<svg width="100%" height="100%" viewBox="0 0 678 1095" fill="none" xmlns="http://www.w3.org/2000/svg">
<path d="M0 4.00002C0 1.79088 1.79086 0 4 0H674C676.209 0 678 1.79086 678 4V1091C678 1093.21 676.209 1095 674 1095H4.00002C1.79088 1095 0 1093.21 0 1091V4.00002Z" fill="#E6EDF8"/>
<path d="M556.367 189.785H551.141V204H547.625V189.785H542.469V186.938H556.367V189.785ZM562.941 204.234C561.082 204.234 559.566 203.664 558.395 202.523C557.23 201.383 556.648 199.863 556.648 197.965V197.637C556.648 196.363 556.895 195.227 557.387 194.227C557.879 193.219 558.574 192.445 559.473 191.906C560.379 191.359 561.41 191.086 562.566 191.086C564.301 191.086 565.664 191.633 566.656 192.727C567.656 193.82 568.156 195.371 568.156 197.379V198.762H560.082C560.191 199.59 560.52 200.254 561.066 200.754C561.621 201.254 562.32 201.504 563.164 201.504C564.469 201.504 565.488 201.031 566.223 200.086L567.887 201.949C567.379 202.668 566.691 203.23 565.824 203.637C564.957 204.035 563.996 204.234 562.941 204.234ZM562.555 193.828C561.883 193.828 561.336 194.055 560.914 194.508C560.5 194.961 560.234 195.609 560.117 196.453H564.828V196.184C564.812 195.434 564.609 194.855 564.219 194.449C563.828 194.035 563.273 193.828 562.555 193.828ZM577.438 204C577.281 203.695 577.168 203.316 577.098 202.863C576.277 203.777 575.211 204.234 573.898 204.234C572.656 204.234 571.625 203.875 570.805 203.156C569.992 202.438 569.586 201.531 569.586 200.438C569.586 199.094 570.082 198.062 571.074 197.344C572.074 196.625 573.516 196.262 575.398 196.254H576.957V195.527C576.957 194.941 576.805 194.473 576.5 194.121C576.203 193.77 575.73 193.594 575.082 193.594C574.512 193.594 574.062 193.73 573.734 194.004C573.414 194.277 573.254 194.652 573.254 195.129H569.867C569.867 194.395 570.094 193.715 570.547 193.09C571 192.465 571.641 191.977 572.469 191.625C573.297 191.266 574.227 191.086 575.258 191.086C576.82 191.086 578.059 191.48 578.973 192.27C579.895 193.051 580.355 194.152 580.355 195.574V201.07C580.363 202.273 580.531 203.184 580.859 203.801V204H577.438ZM574.637 201.645C575.137 201.645 575.598 201.535 576.02 201.316C576.441 201.09 576.754 200.789 576.957 200.414V198.234H575.691C573.996 198.234 573.094 198.82 572.984 199.992L572.973 200.191C572.973 200.613 573.121 200.961 573.418 201.234C573.715 201.508 574.121 201.645 574.637 201.645ZM586.133 191.32L586.238 192.738C587.137 191.637 588.352 191.086 589.883 191.086C591.516 191.086 592.637 191.73 593.246 193.02C594.137 191.73 595.406 191.086 597.055 191.086C598.43 191.086 599.453 191.488 600.125 192.293C600.797 193.09 601.133 194.293 601.133 195.902V204H597.734V195.914C597.734 195.195 597.594 194.672 597.312 194.344C597.031 194.008 596.535 193.84 595.824 193.84C594.809 193.84 594.105 194.324 593.715 195.293L593.727 204H590.34V195.926C590.34 195.191 590.195 194.66 589.906 194.332C589.617 194.004 589.125 193.84 588.43 193.84C587.469 193.84 586.773 194.238 586.344 195.035V204H582.957V191.32H586.133Z" fill="black"/>
<path d="M556.367 416.785H551.141V431H547.625V416.785H542.469V413.938H556.367V416.785ZM562.941 431.234C561.082 431.234 559.566 430.664 558.395 429.523C557.23 428.383 556.648 426.863 556.648 424.965V424.637C556.648 423.363 556.895 422.227 557.387 421.227C557.879 420.219 558.574 419.445 559.473 418.906C560.379 418.359 561.41 418.086 562.566 418.086C564.301 418.086 565.664 418.633 566.656 419.727C567.656 420.82 568.156 422.371 568.156 424.379V425.762H560.082C560.191 426.59 560.52 427.254 561.066 427.754C561.621 428.254 562.32 428.504 563.164 428.504C564.469 428.504 565.488 428.031 566.223 427.086L567.887 428.949C567.379 429.668 566.691 430.23 565.824 430.637C564.957 431.035 563.996 431.234 562.941 431.234ZM562.555 420.828C561.883 420.828 561.336 421.055 560.914 421.508C560.5 421.961 560.234 422.609 560.117 423.453H564.828V423.184C564.812 422.434 564.609 421.855 564.219 421.449C563.828 421.035 563.273 420.828 562.555 420.828ZM577.438 431C577.281 430.695 577.168 430.316 577.098 429.863C576.277 430.777 575.211 431.234 573.898 431.234C572.656 431.234 571.625 430.875 570.805 430.156C569.992 429.438 569.586 428.531 569.586 427.438C569.586 426.094 570.082 425.062 571.074 424.344C572.074 423.625 573.516 423.262 575.398 423.254H576.957V422.527C576.957 421.941 576.805 421.473 576.5 421.121C576.203 420.77 575.73 420.594 575.082 420.594C574.512 420.594 574.062 420.73 573.734 421.004C573.414 421.277 573.254 421.652 573.254 422.129H569.867C569.867 421.395 570.094 420.715 570.547 420.09C571 419.465 571.641 418.977 572.469 418.625C573.297 418.266 574.227 418.086 575.258 418.086C576.82 418.086 578.059 418.48 578.973 419.27C579.895 420.051 580.355 421.152 580.355 422.574V428.07C580.363 429.273 580.531 430.184 580.859 430.801V431H577.438ZM574.637 428.645C575.137 428.645 575.598 428.535 576.02 428.316C576.441 428.09 576.754 427.789 576.957 427.414V425.234H575.691C573.996 425.234 573.094 425.82 572.984 426.992L572.973 427.191C572.973 427.613 573.121 427.961 573.418 428.234C573.715 428.508 574.121 428.645 574.637 428.645ZM586.133 418.32L586.238 419.738C587.137 418.637 588.352 418.086 589.883 418.086C591.516 418.086 592.637 418.73 593.246 420.02C594.137 418.73 595.406 418.086 597.055 418.086C598.43 418.086 599.453 418.488 600.125 419.293C600.797 420.09 601.133 421.293 601.133 422.902V431H597.734V422.914C597.734 422.195 597.594 421.672 597.312 421.344C597.031 421.008 596.535 420.84 595.824 420.84C594.809 420.84 594.105 421.324 593.715 422.293L593.727 431H590.34V422.926C590.34 422.191 590.195 421.66 589.906 421.332C589.617 421.004 589.125 420.84 588.43 420.84C587.469 420.84 586.773 421.238 586.344 422.035V431H582.957V418.32H586.133Z" fill="black"/>
<path d="M556.367 775.785H551.141V790H547.625V775.785H542.469V772.938H556.367V775.785ZM562.941 790.234C561.082 790.234 559.566 789.664 558.395 788.523C557.23 787.383 556.648 785.863 556.648 783.965V783.637C556.648 782.363 556.895 781.227 557.387 780.227C557.879 779.219 558.574 778.445 559.473 777.906C560.379 777.359 561.41 777.086 562.566 777.086C564.301 777.086 565.664 777.633 566.656 778.727C567.656 779.82 568.156 781.371 568.156 783.379V784.762H560.082C560.191 785.59 560.52 786.254 561.066 786.754C561.621 787.254 562.32 787.504 563.164 787.504C564.469 787.504 565.488 787.031 566.223 786.086L567.887 787.949C567.379 788.668 566.691 789.23 565.824 789.637C564.957 790.035 563.996 790.234 562.941 790.234ZM562.555 779.828C561.883 779.828 561.336 780.055 560.914 780.508C560.5 780.961 560.234 781.609 560.117 782.453H564.828V782.184C564.812 781.434 564.609 780.855 564.219 780.449C563.828 780.035 563.273 779.828 562.555 779.828ZM577.438 790C577.281 789.695 577.168 789.316 577.098 788.863C576.277 789.777 575.211 790.234 573.898 790.234C572.656 790.234 571.625 789.875 570.805 789.156C569.992 788.438 569.586 787.531 569.586 786.438C569.586 785.094 570.082 784.062 571.074 783.344C572.074 782.625 573.516 782.262 575.398 782.254H576.957V781.527C576.957 780.941 576.805 780.473 576.5 780.121C576.203 779.77 575.73 779.594 575.082 779.594C574.512 779.594 574.062 779.73 573.734 780.004C573.414 780.277 573.254 780.652 573.254 781.129H569.867C569.867 780.395 570.094 779.715 570.547 779.09C571 778.465 571.641 777.977 572.469 777.625C573.297 777.266 574.227 777.086 575.258 777.086C576.82 777.086 578.059 777.48 578.973 778.27C579.895 779.051 580.355 780.152 580.355 781.574V787.07C580.363 788.273 580.531 789.184 580.859 789.801V790H577.438ZM574.637 787.645C575.137 787.645 575.598 787.535 576.02 787.316C576.441 787.09 576.754 786.789 576.957 786.414V784.234H575.691C573.996 784.234 573.094 784.82 572.984 785.992L572.973 786.191C572.973 786.613 573.121 786.961 573.418 787.234C573.715 787.508 574.121 787.645 574.637 787.645ZM586.133 777.32L586.238 778.738C587.137 777.637 588.352 777.086 589.883 777.086C591.516 777.086 592.637 777.73 593.246 779.02C594.137 777.73 595.406 777.086 597.055 777.086C598.43 777.086 599.453 777.488 600.125 778.293C600.797 779.09 601.133 780.293 601.133 781.902V790H597.734V781.914C597.734 781.195 597.594 780.672 597.312 780.344C597.031 780.008 596.535 779.84 595.824 779.84C594.809 779.84 594.105 780.324 593.715 781.293L593.727 790H590.34V781.926C590.34 781.191 590.195 780.66 589.906 780.332C589.617 780.004 589.125 779.84 588.43 779.84C587.469 779.84 586.773 780.238 586.344 781.035V790H582.957V777.32H586.133Z" fill="black"/>
<path d="M580.133 448.449H584.363V451.508H580.133V456.289H576.91V451.508H572.668V448.449H576.91V443.867H580.133V448.449Z" fill="black"/>
<path d="M579.133 808.449H583.363V811.508H579.133V816.289H575.91V811.508H571.668V808.449H575.91V803.867H579.133V808.449Z" fill="black"/>
<path d="M580.133 864.449H584.363V867.508H580.133V872.289H576.91V867.508H572.668V864.449H576.91V859.867H580.133V864.449Z" fill="black"/>
<path d="M571.539 477.855C571.539 479.535 571.242 481.008 570.648 482.273C570.055 483.539 569.203 484.516 568.094 485.203C566.992 485.891 565.727 486.234 564.297 486.234C562.883 486.234 561.621 485.895 560.512 485.215C559.402 484.535 558.543 483.566 557.934 482.309C557.324 481.043 557.016 479.59 557.008 477.949V477.105C557.008 475.426 557.309 473.949 557.91 472.676C558.52 471.395 559.375 470.414 560.477 469.734C561.586 469.047 562.852 468.703 564.273 468.703C565.695 468.703 566.957 469.047 568.059 469.734C569.168 470.414 570.023 471.395 570.625 472.676C571.234 473.949 571.539 475.422 571.539 477.094V477.855ZM567.977 477.082C567.977 475.293 567.656 473.934 567.016 473.004C566.375 472.074 565.461 471.609 564.273 471.609C563.094 471.609 562.184 472.07 561.543 472.992C560.902 473.906 560.578 475.25 560.57 477.023V477.855C560.57 479.598 560.891 480.949 561.531 481.91C562.172 482.871 563.094 483.352 564.297 483.352C565.477 483.352 566.383 482.891 567.016 481.969C567.648 481.039 567.969 479.688 567.977 477.914V477.082ZM580.996 476.496C580.535 476.434 580.129 476.402 579.777 476.402C578.496 476.402 577.656 476.836 577.258 477.703V486H573.871V473.32H577.07L577.164 474.832C577.844 473.668 578.785 473.086 579.988 473.086C580.363 473.086 580.715 473.137 581.043 473.238L580.996 476.496ZM581.91 479.566C581.91 477.621 582.371 476.055 583.293 474.867C584.223 473.68 585.473 473.086 587.043 473.086C588.434 473.086 589.516 473.562 590.289 474.516L590.43 473.32H593.5V485.578C593.5 486.688 593.246 487.652 592.738 488.473C592.238 489.293 591.531 489.918 590.617 490.348C589.703 490.777 588.633 490.992 587.406 490.992C586.477 490.992 585.57 490.805 584.688 490.43C583.805 490.062 583.137 489.586 582.684 489L584.184 486.938C585.027 487.883 586.051 488.355 587.254 488.355C588.152 488.355 588.852 488.113 589.352 487.629C589.852 487.152 590.102 486.473 590.102 485.59V484.91C589.32 485.793 588.293 486.234 587.02 486.234C585.496 486.234 584.262 485.641 583.316 484.453C582.379 483.258 581.91 481.676 581.91 479.707V479.566ZM585.297 479.812C585.297 480.961 585.527 481.863 585.988 482.52C586.449 483.168 587.082 483.492 587.887 483.492C588.918 483.492 589.656 483.105 590.102 482.332V477C589.648 476.227 588.918 475.84 587.91 475.84C587.098 475.84 586.457 476.172 585.988 476.836C585.527 477.5 585.297 478.492 585.297 479.812Z" fill="black"/>
<path d="M570.539 893.855C570.539 895.535 570.242 897.008 569.648 898.273C569.055 899.539 568.203 900.516 567.094 901.203C565.992 901.891 564.727 902.234 563.297 902.234C561.883 902.234 560.621 901.895 559.512 901.215C558.402 900.535 557.543 899.566 556.934 898.309C556.324 897.043 556.016 895.59 556.008 893.949V893.105C556.008 891.426 556.309 889.949 556.91 888.676C557.52 887.395 558.375 886.414 559.477 885.734C560.586 885.047 561.852 884.703 563.273 884.703C564.695 884.703 565.957 885.047 567.059 885.734C568.168 886.414 569.023 887.395 569.625 888.676C570.234 889.949 570.539 891.422 570.539 893.094V893.855ZM566.977 893.082C566.977 891.293 566.656 889.934 566.016 889.004C565.375 888.074 564.461 887.609 563.273 887.609C562.094 887.609 561.184 888.07 560.543 888.992C559.902 889.906 559.578 891.25 559.57 893.023V893.855C559.57 895.598 559.891 896.949 560.531 897.91C561.172 898.871 562.094 899.352 563.297 899.352C564.477 899.352 565.383 898.891 566.016 897.969C566.648 897.039 566.969 895.688 566.977 893.914V893.082ZM579.996 892.496C579.535 892.434 579.129 892.402 578.777 892.402C577.496 892.402 576.656 892.836 576.258 893.703V902H572.871V889.32H576.07L576.164 890.832C576.844 889.668 577.785 889.086 578.988 889.086C579.363 889.086 579.715 889.137 580.043 889.238L579.996 892.496ZM580.91 895.566C580.91 893.621 581.371 892.055 582.293 890.867C583.223 889.68 584.473 889.086 586.043 889.086C587.434 889.086 588.516 889.562 589.289 890.516L589.43 889.32H592.5V901.578C592.5 902.688 592.246 903.652 591.738 904.473C591.238 905.293 590.531 905.918 589.617 906.348C588.703 906.777 587.633 906.992 586.406 906.992C585.477 906.992 584.57 906.805 583.688 906.43C582.805 906.062 582.137 905.586 581.684 905L583.184 902.938C584.027 903.883 585.051 904.355 586.254 904.355C587.152 904.355 587.852 904.113 588.352 903.629C588.852 903.152 589.102 902.473 589.102 901.59V900.91C588.32 901.793 587.293 902.234 586.02 902.234C584.496 902.234 583.262 901.641 582.316 900.453C581.379 899.258 580.91 897.676 580.91 895.707V895.566ZM584.297 895.812C584.297 896.961 584.527 897.863 584.988 898.52C585.449 899.168 586.082 899.492 586.887 899.492C587.918 899.492 588.656 899.105 589.102 898.332V893C588.648 892.227 587.918 891.84 586.91 891.84C586.098 891.84 585.457 892.172 584.988 892.836C584.527 893.5 584.297 894.492 584.297 895.812Z" fill="black"/>
<path d="M562.438 828.938V840.176C562.438 842.043 561.852 843.52 560.68 844.605C559.516 845.691 557.922 846.234 555.898 846.234C553.906 846.234 552.324 845.707 551.152 844.652C549.98 843.598 549.383 842.148 549.359 840.305V828.938H552.875V840.199C552.875 841.316 553.141 842.133 553.672 842.648C554.211 843.156 554.953 843.41 555.898 843.41C557.875 843.41 558.879 842.371 558.91 840.293V828.938H562.438ZM571.965 842.496C571.965 842.082 571.758 841.758 571.344 841.523C570.938 841.281 570.281 841.066 569.375 840.879C566.359 840.246 564.852 838.965 564.852 837.035C564.852 835.91 565.316 834.973 566.246 834.223C567.184 833.465 568.406 833.086 569.914 833.086C571.523 833.086 572.809 833.465 573.77 834.223C574.738 834.98 575.223 835.965 575.223 837.176H571.836C571.836 836.691 571.68 836.293 571.367 835.98C571.055 835.66 570.566 835.5 569.902 835.5C569.332 835.5 568.891 835.629 568.578 835.887C568.266 836.145 568.109 836.473 568.109 836.871C568.109 837.246 568.285 837.551 568.637 837.785C568.996 838.012 569.598 838.211 570.441 838.383C571.285 838.547 571.996 838.734 572.574 838.945C574.363 839.602 575.258 840.738 575.258 842.355C575.258 843.512 574.762 844.449 573.77 845.168C572.777 845.879 571.496 846.234 569.926 846.234C568.863 846.234 567.918 846.047 567.09 845.672C566.27 845.289 565.625 844.77 565.156 844.113C564.688 843.449 564.453 842.734 564.453 841.969H567.664C567.695 842.57 567.918 843.031 568.332 843.352C568.746 843.672 569.301 843.832 569.996 843.832C570.645 843.832 571.133 843.711 571.461 843.469C571.797 843.219 571.965 842.895 571.965 842.496ZM583.285 846.234C581.426 846.234 579.91 845.664 578.738 844.523C577.574 843.383 576.992 841.863 576.992 839.965V839.637C576.992 838.363 577.238 837.227 577.73 836.227C578.223 835.219 578.918 834.445 579.816 833.906C580.723 833.359 581.754 833.086 582.91 833.086C584.645 833.086 586.008 833.633 587 834.727C588 835.82 588.5 837.371 588.5 839.379V840.762H580.426C580.535 841.59 580.863 842.254 581.41 842.754C581.965 843.254 582.664 843.504 583.508 843.504C584.812 843.504 585.832 843.031 586.566 842.086L588.23 843.949C587.723 844.668 587.035 845.23 586.168 845.637C585.301 846.035 584.34 846.234 583.285 846.234ZM582.898 835.828C582.227 835.828 581.68 836.055 581.258 836.508C580.844 836.961 580.578 837.609 580.461 838.453H585.172V838.184C585.156 837.434 584.953 836.855 584.562 836.449C584.172 836.035 583.617 835.828 582.898 835.828ZM597.559 836.496C597.098 836.434 596.691 836.402 596.34 836.402C595.059 836.402 594.219 836.836 593.82 837.703V846H590.434V833.32H593.633L593.727 834.832C594.406 833.668 595.348 833.086 596.551 833.086C596.926 833.086 597.277 833.137 597.605 833.238L597.559 836.496Z" fill="black"/>
<path d="M318.586 1039.41C319.367 1040.2 320.633 1040.2 321.414 1039.41L334.142 1026.69C334.923 1025.91 334.923 1024.64 334.142 1023.86C333.361 1023.08 332.095 1023.08 331.314 1023.86L320 1035.17L308.686 1023.86C307.905 1023.08 306.639 1023.08 305.858 1023.86C305.077 1024.64 305.077 1025.91 305.858 1026.69L318.586 1039.41ZM318 61L318 1038H322L322 61H318Z" fill="white"/>
<line x1="51.9962" y1="336.481" x2="627.004" y2="336.481" stroke="white" stroke-width="4"/>
<line x1="32.0016" y1="336" x2="627.005" y2="336.481" stroke="white" stroke-width="4"/>
<line x1="32" y1="668" x2="627" y2="668" stroke="white" stroke-width="4"/>
<rect x="122" y="181" width="154" height="43" rx="10" fill="#2975F3"/>
<rect x="122" y="181" width="154" height="43" rx="10" fill="#4C81F7"/>
<rect x="339" y="223" width="196" height="41" rx="10" fill="#2975F3"/>
<rect x="339" y="223" width="196" height="41" rx="10" fill="#4C81F7"/>
<path d="M222 324C222 318.477 226.477 314 232 314H408C413.523 314 418 318.477 418 324V344C418 349.523 413.523 354 408 354H232C226.477 354 222 349.523 222 344V324Z" fill="#2975F3"/>
<path d="M222 324C222 318.477 226.477 314 232 314H408C413.523 314 418 318.477 418 324V344C418 349.523 413.523 354 408 354H232C226.477 354 222 349.523 222 344V324Z" fill="#6FCF97"/>
<path d="M222 652.5C222 646.977 226.477 642.5 232 642.5H408C413.523 642.5 418 646.977 418 652.5V672.5C418 678.023 413.523 682.5 408 682.5H232C226.477 682.5 222 678.023 222 672.5V652.5Z" fill="#2975F3"/>
<path d="M222 652.5C222 646.977 226.477 642.5 232 642.5H408C413.523 642.5 418 646.977 418 652.5V672.5C418 678.023 413.523 682.5 408 682.5H232C226.477 682.5 222 678.023 222 672.5V652.5Z" fill="#6FCF97"/>
<rect x="111" y="396" width="217" height="43" rx="10" fill="#2975F3"/>
<rect x="111" y="396" width="217" height="43" rx="10" fill="#4C81F7"/>
<rect x="373" y="548" width="187" height="43" rx="10" fill="#2975F3"/>
<rect x="373" y="548" width="187" height="43" rx="10" fill="#4C81F7"/>
<rect x="68" y="584" width="221" height="43" rx="10" fill="#2975F3"/>
<rect x="68" y="584" width="221" height="43" rx="10" fill="#4C81F7"/>
<path d="M292.88 664.315H290.779V669H288.143V656.203H292.897C294.409 656.203 295.575 656.54 296.396 657.214C297.216 657.888 297.626 658.84 297.626 660.07C297.626 660.943 297.436 661.673 297.055 662.259C296.68 662.839 296.108 663.302 295.341 663.647L298.109 668.877V669H295.279L292.88 664.315ZM290.779 662.18H292.906C293.568 662.18 294.081 662.013 294.444 661.679C294.808 661.339 294.989 660.873 294.989 660.281C294.989 659.678 294.816 659.203 294.471 658.857C294.131 658.512 293.606 658.339 292.897 658.339H290.779V662.18ZM303.849 669.176C302.454 669.176 301.317 668.748 300.438 667.893C299.565 667.037 299.129 665.897 299.129 664.474V664.228C299.129 663.272 299.313 662.42 299.683 661.67C300.052 660.914 300.573 660.334 301.247 659.93C301.927 659.52 302.7 659.314 303.567 659.314C304.868 659.314 305.891 659.725 306.635 660.545C307.385 661.365 307.76 662.528 307.76 664.034V665.071H301.704C301.786 665.692 302.032 666.19 302.442 666.565C302.858 666.94 303.383 667.128 304.016 667.128C304.994 667.128 305.759 666.773 306.31 666.064L307.558 667.462C307.177 668.001 306.661 668.423 306.011 668.728C305.36 669.026 304.64 669.176 303.849 669.176ZM303.559 661.371C303.055 661.371 302.645 661.541 302.328 661.881C302.018 662.221 301.818 662.707 301.73 663.34H305.264V663.138C305.252 662.575 305.1 662.142 304.807 661.837C304.514 661.526 304.098 661.371 303.559 661.371ZM311.891 669H309.342V655.5H311.891V669ZM318.368 669.176C316.974 669.176 315.837 668.748 314.958 667.893C314.085 667.037 313.648 665.897 313.648 664.474V664.228C313.648 663.272 313.833 662.42 314.202 661.67C314.571 660.914 315.093 660.334 315.767 659.93C316.446 659.52 317.22 659.314 318.087 659.314C319.388 659.314 320.41 659.725 321.154 660.545C321.904 661.365 322.279 662.528 322.279 664.034V665.071H316.224C316.306 665.692 316.552 666.19 316.962 666.565C317.378 666.94 317.902 667.128 318.535 667.128C319.514 667.128 320.278 666.773 320.829 666.064L322.077 667.462C321.696 668.001 321.181 668.423 320.53 668.728C319.88 669.026 319.159 669.176 318.368 669.176ZM318.078 661.371C317.574 661.371 317.164 661.541 316.848 661.881C316.537 662.221 316.338 662.707 316.25 663.34H319.783V663.138C319.771 662.575 319.619 662.142 319.326 661.837C319.033 661.526 318.617 661.371 318.078 661.371ZM329.24 669C329.123 668.771 329.038 668.487 328.985 668.147C328.37 668.833 327.57 669.176 326.586 669.176C325.654 669.176 324.881 668.906 324.266 668.367C323.656 667.828 323.352 667.148 323.352 666.328C323.352 665.32 323.724 664.547 324.468 664.008C325.218 663.469 326.299 663.196 327.711 663.19H328.88V662.646C328.88 662.206 328.766 661.854 328.537 661.591C328.314 661.327 327.96 661.195 327.474 661.195C327.046 661.195 326.709 661.298 326.463 661.503C326.223 661.708 326.103 661.989 326.103 662.347H323.562C323.562 661.796 323.732 661.286 324.072 660.817C324.412 660.349 324.893 659.982 325.514 659.719C326.135 659.449 326.832 659.314 327.605 659.314C328.777 659.314 329.706 659.61 330.392 660.202C331.083 660.788 331.429 661.614 331.429 662.681V666.803C331.435 667.705 331.561 668.388 331.807 668.851V669H329.24ZM327.14 667.233C327.515 667.233 327.86 667.151 328.177 666.987C328.493 666.817 328.728 666.592 328.88 666.311V664.676H327.931C326.659 664.676 325.982 665.115 325.9 665.994L325.892 666.144C325.892 666.46 326.003 666.721 326.226 666.926C326.448 667.131 326.753 667.233 327.14 667.233ZM338.53 666.372C338.53 666.062 338.375 665.818 338.064 665.643C337.76 665.461 337.268 665.3 336.588 665.159C334.326 664.685 333.195 663.724 333.195 662.276C333.195 661.433 333.544 660.729 334.241 660.167C334.944 659.599 335.861 659.314 336.992 659.314C338.199 659.314 339.163 659.599 339.884 660.167C340.61 660.735 340.974 661.474 340.974 662.382H338.434C338.434 662.019 338.316 661.72 338.082 661.485C337.848 661.245 337.481 661.125 336.983 661.125C336.556 661.125 336.225 661.222 335.99 661.415C335.756 661.608 335.639 661.854 335.639 662.153C335.639 662.435 335.771 662.663 336.034 662.839C336.304 663.009 336.755 663.158 337.388 663.287C338.021 663.41 338.554 663.551 338.987 663.709C340.329 664.201 341 665.054 341 666.267C341 667.134 340.628 667.837 339.884 668.376C339.14 668.909 338.179 669.176 337.001 669.176C336.204 669.176 335.495 669.035 334.874 668.754C334.259 668.467 333.775 668.077 333.424 667.585C333.072 667.087 332.896 666.551 332.896 665.977H335.305C335.328 666.428 335.495 666.773 335.806 667.014C336.116 667.254 336.532 667.374 337.054 667.374C337.54 667.374 337.906 667.283 338.152 667.102C338.404 666.914 338.53 666.671 338.53 666.372ZM347.021 669.176C345.626 669.176 344.489 668.748 343.61 667.893C342.737 667.037 342.301 665.897 342.301 664.474V664.228C342.301 663.272 342.485 662.42 342.854 661.67C343.224 660.914 343.745 660.334 344.419 659.93C345.099 659.52 345.872 659.314 346.739 659.314C348.04 659.314 349.062 659.725 349.807 660.545C350.557 661.365 350.932 662.528 350.932 664.034V665.071H344.876C344.958 665.692 345.204 666.19 345.614 666.565C346.03 666.94 346.555 667.128 347.188 667.128C348.166 667.128 348.931 666.773 349.481 666.064L350.729 667.462C350.349 668.001 349.833 668.423 349.183 668.728C348.532 669.026 347.812 669.176 347.021 669.176ZM346.73 661.371C346.227 661.371 345.816 661.541 345.5 661.881C345.189 662.221 344.99 662.707 344.902 663.34H348.436V663.138C348.424 662.575 348.271 662.142 347.979 661.837C347.686 661.526 347.27 661.371 346.73 661.371Z" fill="black"/>
<path d="M300.143 340V327.203H304.625C306.178 327.203 307.355 327.502 308.158 328.1C308.961 328.691 309.362 329.562 309.362 330.71C309.362 331.337 309.201 331.891 308.879 332.371C308.557 332.846 308.108 333.194 307.534 333.417C308.19 333.581 308.706 333.912 309.081 334.41C309.462 334.908 309.652 335.518 309.652 336.238C309.652 337.469 309.26 338.4 308.475 339.033C307.689 339.666 306.57 339.988 305.117 340H300.143ZM302.779 334.428V337.882H305.038C305.659 337.882 306.143 337.735 306.488 337.442C306.84 337.144 307.016 336.733 307.016 336.212C307.016 335.04 306.409 334.445 305.196 334.428H302.779ZM302.779 332.564H304.73C306.061 332.541 306.726 332.011 306.726 330.974C306.726 330.394 306.556 329.978 306.216 329.726C305.882 329.468 305.352 329.339 304.625 329.339H302.779V332.564ZM317.167 339.033C316.54 339.795 315.673 340.176 314.565 340.176C313.546 340.176 312.767 339.883 312.228 339.297C311.694 338.711 311.422 337.853 311.41 336.722V330.49H313.95V336.634C313.95 337.624 314.401 338.119 315.304 338.119C316.165 338.119 316.757 337.82 317.079 337.223V330.49H319.628V340H317.237L317.167 339.033ZM324.225 340H321.676V330.49H324.225V340ZM321.526 328.029C321.526 327.648 321.652 327.335 321.904 327.089C322.162 326.843 322.511 326.72 322.95 326.72C323.384 326.72 323.729 326.843 323.987 327.089C324.245 327.335 324.374 327.648 324.374 328.029C324.374 328.416 324.242 328.732 323.979 328.979C323.721 329.225 323.378 329.348 322.95 329.348C322.522 329.348 322.177 329.225 321.913 328.979C321.655 328.732 321.526 328.416 321.526 328.029ZM329.006 340H326.457V326.5H329.006V340ZM330.711 335.175C330.711 333.692 331.042 332.512 331.704 331.633C332.372 330.754 333.283 330.314 334.438 330.314C335.363 330.314 336.128 330.66 336.731 331.352V326.5H339.28V340H336.986L336.863 338.989C336.23 339.78 335.416 340.176 334.42 340.176C333.301 340.176 332.401 339.736 331.722 338.857C331.048 337.973 330.711 336.745 330.711 335.175ZM333.251 335.359C333.251 336.25 333.406 336.933 333.717 337.407C334.027 337.882 334.479 338.119 335.07 338.119C335.855 338.119 336.409 337.788 336.731 337.126V333.373C336.415 332.711 335.867 332.38 335.088 332.38C333.863 332.38 333.251 333.373 333.251 335.359Z" fill="black"/>
<rect x="68" y="584" width="210" height="43" rx="10" fill="#2975F3"/>
<rect x="68" y="584" width="210" height="43" rx="10" fill="#4C81F7"/>
<rect x="93" y="877" width="196" height="38" rx="10" fill="#2975F3"/>
<rect x="93" y="877" width="196" height="38" rx="10" fill="#4C81F7"/>
<rect x="353" y="96" width="207" height="44" rx="10" fill="#2975F3"/>
<rect x="353" y="96" width="207" height="44" rx="10" fill="#4C81F7"/>
<path d="M170.828 197.203V205.632C170.828 207.032 170.389 208.14 169.51 208.954C168.637 209.769 167.441 210.176 165.924 210.176C164.43 210.176 163.243 209.78 162.364 208.989C161.485 208.198 161.037 207.111 161.02 205.729V197.203H163.656V205.649C163.656 206.487 163.855 207.1 164.254 207.486C164.658 207.867 165.215 208.058 165.924 208.058C167.406 208.058 168.159 207.278 168.183 205.72V197.203H170.828ZM175.161 200.49L175.24 201.589C175.92 200.739 176.831 200.314 177.974 200.314C178.981 200.314 179.731 200.61 180.224 201.202C180.716 201.794 180.968 202.679 180.979 203.856V210H178.439V203.918C178.439 203.379 178.322 202.989 178.088 202.749C177.854 202.503 177.464 202.38 176.919 202.38C176.204 202.38 175.668 202.685 175.311 203.294V210H172.771V200.49H175.161ZM185.594 210H183.045V200.49H185.594V210ZM182.896 198.029C182.896 197.648 183.021 197.335 183.273 197.089C183.531 196.843 183.88 196.72 184.319 196.72C184.753 196.72 185.099 196.843 185.356 197.089C185.614 197.335 185.743 197.648 185.743 198.029C185.743 198.416 185.611 198.732 185.348 198.979C185.09 199.225 184.747 199.348 184.319 199.348C183.892 199.348 183.546 199.225 183.282 198.979C183.024 198.732 182.896 198.416 182.896 198.029ZM190.735 198.152V200.49H192.361V202.354H190.735V207.1C190.735 207.451 190.803 207.703 190.938 207.855C191.072 208.008 191.33 208.084 191.711 208.084C191.992 208.084 192.241 208.063 192.458 208.022V209.947C191.96 210.1 191.447 210.176 190.92 210.176C189.139 210.176 188.23 209.276 188.195 207.478V202.354H186.807V200.49H188.195V198.152H190.735ZM201.3 198.152V200.49H202.926V202.354H201.3V207.1C201.3 207.451 201.367 207.703 201.502 207.855C201.637 208.008 201.895 208.084 202.275 208.084C202.557 208.084 202.806 208.063 203.022 208.022V209.947C202.524 210.1 202.012 210.176 201.484 210.176C199.703 210.176 198.795 209.276 198.76 207.478V202.354H197.371V200.49H198.76V198.152H201.3ZM208.718 210.176C207.323 210.176 206.187 209.748 205.308 208.893C204.435 208.037 203.998 206.897 203.998 205.474V205.228C203.998 204.272 204.183 203.42 204.552 202.67C204.921 201.914 205.442 201.334 206.116 200.93C206.796 200.52 207.569 200.314 208.437 200.314C209.737 200.314 210.76 200.725 211.504 201.545C212.254 202.365 212.629 203.528 212.629 205.034V206.071H206.573C206.655 206.692 206.901 207.19 207.312 207.565C207.728 207.94 208.252 208.128 208.885 208.128C209.863 208.128 210.628 207.773 211.179 207.064L212.427 208.462C212.046 209.001 211.53 209.423 210.88 209.728C210.229 210.026 209.509 210.176 208.718 210.176ZM208.428 202.371C207.924 202.371 207.514 202.541 207.197 202.881C206.887 203.221 206.688 203.707 206.6 204.34H210.133V204.138C210.121 203.575 209.969 203.142 209.676 202.837C209.383 202.526 208.967 202.371 208.428 202.371ZM219.229 207.372C219.229 207.062 219.074 206.818 218.764 206.643C218.459 206.461 217.967 206.3 217.287 206.159C215.025 205.685 213.895 204.724 213.895 203.276C213.895 202.433 214.243 201.729 214.94 201.167C215.644 200.599 216.561 200.314 217.691 200.314C218.898 200.314 219.862 200.599 220.583 201.167C221.31 201.735 221.673 202.474 221.673 203.382H219.133C219.133 203.019 219.016 202.72 218.781 202.485C218.547 202.245 218.181 202.125 217.683 202.125C217.255 202.125 216.924 202.222 216.689 202.415C216.455 202.608 216.338 202.854 216.338 203.153C216.338 203.435 216.47 203.663 216.733 203.839C217.003 204.009 217.454 204.158 218.087 204.287C218.72 204.41 219.253 204.551 219.687 204.709C221.028 205.201 221.699 206.054 221.699 207.267C221.699 208.134 221.327 208.837 220.583 209.376C219.839 209.909 218.878 210.176 217.7 210.176C216.903 210.176 216.194 210.035 215.573 209.754C214.958 209.467 214.475 209.077 214.123 208.585C213.771 208.087 213.596 207.551 213.596 206.977H216.004C216.027 207.428 216.194 207.773 216.505 208.014C216.815 208.254 217.231 208.374 217.753 208.374C218.239 208.374 218.605 208.283 218.852 208.102C219.104 207.914 219.229 207.671 219.229 207.372ZM226.384 198.152V200.49H228.01V202.354H226.384V207.1C226.384 207.451 226.451 207.703 226.586 207.855C226.721 208.008 226.979 208.084 227.359 208.084C227.641 208.084 227.89 208.063 228.106 208.022V209.947C227.608 210.1 227.096 210.176 226.568 210.176C224.787 210.176 223.879 209.276 223.844 207.478V202.354H222.455V200.49H223.844V198.152H226.384ZM234.575 207.372C234.575 207.062 234.42 206.818 234.109 206.643C233.805 206.461 233.312 206.3 232.633 206.159C230.371 205.685 229.24 204.724 229.24 203.276C229.24 202.433 229.589 201.729 230.286 201.167C230.989 200.599 231.906 200.314 233.037 200.314C234.244 200.314 235.208 200.599 235.929 201.167C236.655 201.735 237.019 202.474 237.019 203.382H234.479C234.479 203.019 234.361 202.72 234.127 202.485C233.893 202.245 233.526 202.125 233.028 202.125C232.601 202.125 232.27 202.222 232.035 202.415C231.801 202.608 231.684 202.854 231.684 203.153C231.684 203.435 231.815 203.663 232.079 203.839C232.349 204.009 232.8 204.158 233.433 204.287C234.065 204.41 234.599 204.551 235.032 204.709C236.374 205.201 237.045 206.054 237.045 207.267C237.045 208.134 236.673 208.837 235.929 209.376C235.185 209.909 234.224 210.176 233.046 210.176C232.249 210.176 231.54 210.035 230.919 209.754C230.304 209.467 229.82 209.077 229.469 208.585C229.117 208.087 228.941 207.551 228.941 206.977H231.35C231.373 207.428 231.54 207.773 231.851 208.014C232.161 208.254 232.577 208.374 233.099 208.374C233.585 208.374 233.951 208.283 234.197 208.102C234.449 207.914 234.575 207.671 234.575 207.372Z" fill="white"/>
<path d="M377.779 120.882H383.378V123H375.143V110.203H377.779V120.882ZM387.412 123H384.863V113.49H387.412V123ZM384.714 111.029C384.714 110.648 384.84 110.335 385.092 110.089C385.35 109.843 385.698 109.72 386.138 109.72C386.571 109.72 386.917 109.843 387.175 110.089C387.433 110.335 387.562 110.648 387.562 111.029C387.562 111.416 387.43 111.732 387.166 111.979C386.908 112.225 386.565 112.348 386.138 112.348C385.71 112.348 385.364 112.225 385.101 111.979C384.843 111.732 384.714 111.416 384.714 111.029ZM391.851 113.49L391.93 114.589C392.609 113.739 393.521 113.314 394.663 113.314C395.671 113.314 396.421 113.61 396.913 114.202C397.405 114.794 397.657 115.679 397.669 116.856V123H395.129V116.918C395.129 116.379 395.012 115.989 394.777 115.749C394.543 115.503 394.153 115.38 393.608 115.38C392.894 115.38 392.357 115.685 392 116.294V123H389.46V113.49H391.851ZM402.644 111.152V113.49H404.27V115.354H402.644V120.1C402.644 120.451 402.711 120.703 402.846 120.855C402.98 121.008 403.238 121.084 403.619 121.084C403.9 121.084 404.149 121.063 404.366 121.022V122.947C403.868 123.1 403.355 123.176 402.828 123.176C401.047 123.176 400.139 122.276 400.104 120.478V115.354H398.715V113.49H400.104V111.152H402.644ZM408.365 123H405.816V113.49H408.365V123ZM405.667 111.029C405.667 110.648 405.793 110.335 406.045 110.089C406.303 109.843 406.651 109.72 407.091 109.72C407.524 109.72 407.87 109.843 408.128 110.089C408.386 110.335 408.515 110.648 408.515 111.029C408.515 111.416 408.383 111.732 408.119 111.979C407.861 112.225 407.519 112.348 407.091 112.348C406.663 112.348 406.317 112.225 406.054 111.979C405.796 111.732 405.667 111.416 405.667 111.029ZM412.804 113.49L412.883 114.589C413.562 113.739 414.474 113.314 415.616 113.314C416.624 113.314 417.374 113.61 417.866 114.202C418.358 114.794 418.61 115.679 418.622 116.856V123H416.082V116.918C416.082 116.379 415.965 115.989 415.73 115.749C415.496 115.503 415.106 115.38 414.562 115.38C413.847 115.38 413.311 115.685 412.953 116.294V123H410.413V113.49H412.804ZM420.187 118.175C420.187 116.716 420.532 115.541 421.224 114.65C421.921 113.76 422.858 113.314 424.036 113.314C425.079 113.314 425.891 113.672 426.471 114.387L426.576 113.49H428.879V122.684C428.879 123.516 428.688 124.239 428.308 124.854C427.933 125.47 427.402 125.938 426.717 126.261C426.031 126.583 425.229 126.744 424.309 126.744C423.611 126.744 422.932 126.604 422.27 126.322C421.607 126.047 421.106 125.689 420.767 125.25L421.892 123.703C422.524 124.412 423.292 124.767 424.194 124.767C424.868 124.767 425.393 124.585 425.768 124.222C426.143 123.864 426.33 123.354 426.33 122.692V122.183C425.744 122.845 424.974 123.176 424.019 123.176C422.876 123.176 421.95 122.73 421.241 121.84C420.538 120.943 420.187 119.757 420.187 118.28V118.175ZM422.727 118.359C422.727 119.221 422.899 119.897 423.245 120.39C423.591 120.876 424.065 121.119 424.669 121.119C425.442 121.119 425.996 120.829 426.33 120.249V116.25C425.99 115.67 425.442 115.38 424.687 115.38C424.077 115.38 423.597 115.629 423.245 116.127C422.899 116.625 422.727 117.369 422.727 118.359ZM436.121 124.099H434.231L438.942 110.203H440.832L436.121 124.099ZM454.402 117.771H449.34V123H446.703V110.203H455.035V112.339H449.34V115.644H454.402V117.771ZM455.809 118.157C455.809 117.214 455.99 116.373 456.354 115.635C456.717 114.896 457.238 114.325 457.918 113.921C458.604 113.517 459.397 113.314 460.3 113.314C461.583 113.314 462.629 113.707 463.438 114.492C464.252 115.277 464.706 116.344 464.8 117.691L464.817 118.342C464.817 119.801 464.41 120.973 463.596 121.857C462.781 122.736 461.688 123.176 460.317 123.176C458.946 123.176 457.851 122.736 457.03 121.857C456.216 120.979 455.809 119.783 455.809 118.271V118.157ZM458.349 118.342C458.349 119.244 458.519 119.936 458.858 120.416C459.198 120.891 459.685 121.128 460.317 121.128C460.933 121.128 461.413 120.894 461.759 120.425C462.104 119.95 462.277 119.194 462.277 118.157C462.277 117.272 462.104 116.587 461.759 116.101C461.413 115.614 460.927 115.371 460.3 115.371C459.679 115.371 459.198 115.614 458.858 116.101C458.519 116.581 458.349 117.328 458.349 118.342ZM471.726 115.872C471.38 115.825 471.075 115.802 470.812 115.802C469.851 115.802 469.221 116.127 468.922 116.777V123H466.382V113.49H468.781L468.852 114.624C469.361 113.751 470.067 113.314 470.97 113.314C471.251 113.314 471.515 113.353 471.761 113.429L471.726 115.872ZM475.338 113.49L475.417 114.554C476.091 113.728 477.002 113.314 478.15 113.314C479.375 113.314 480.216 113.798 480.673 114.765C481.341 113.798 482.293 113.314 483.529 113.314C484.561 113.314 485.328 113.616 485.832 114.22C486.336 114.817 486.588 115.72 486.588 116.927V123H484.039V116.936C484.039 116.396 483.934 116.004 483.723 115.758C483.512 115.506 483.14 115.38 482.606 115.38C481.845 115.38 481.317 115.743 481.024 116.47L481.033 123H478.493V116.944C478.493 116.394 478.385 115.995 478.168 115.749C477.951 115.503 477.582 115.38 477.061 115.38C476.34 115.38 475.818 115.679 475.496 116.276V123H472.956V113.49H475.338ZM494.059 123C493.941 122.771 493.856 122.487 493.804 122.147C493.188 122.833 492.389 123.176 491.404 123.176C490.473 123.176 489.699 122.906 489.084 122.367C488.475 121.828 488.17 121.148 488.17 120.328C488.17 119.32 488.542 118.547 489.286 118.008C490.036 117.469 491.117 117.196 492.529 117.19H493.698V116.646C493.698 116.206 493.584 115.854 493.355 115.591C493.133 115.327 492.778 115.195 492.292 115.195C491.864 115.195 491.527 115.298 491.281 115.503C491.041 115.708 490.921 115.989 490.921 116.347H488.381C488.381 115.796 488.551 115.286 488.891 114.817C489.23 114.349 489.711 113.982 490.332 113.719C490.953 113.449 491.65 113.314 492.424 113.314C493.596 113.314 494.524 113.61 495.21 114.202C495.901 114.788 496.247 115.614 496.247 116.681V120.803C496.253 121.705 496.379 122.388 496.625 122.851V123H494.059ZM491.958 121.233C492.333 121.233 492.679 121.151 492.995 120.987C493.312 120.817 493.546 120.592 493.698 120.311V118.676H492.749C491.478 118.676 490.801 119.115 490.719 119.994L490.71 120.144C490.71 120.46 490.821 120.721 491.044 120.926C491.267 121.131 491.571 121.233 491.958 121.233ZM501.239 111.152V113.49H502.865V115.354H501.239V120.1C501.239 120.451 501.307 120.703 501.441 120.855C501.576 121.008 501.834 121.084 502.215 121.084C502.496 121.084 502.745 121.063 502.962 121.022V122.947C502.464 123.1 501.951 123.176 501.424 123.176C499.643 123.176 498.734 122.276 498.699 120.478V115.354H497.311V113.49H498.699V111.152H501.239ZM507.321 111.152V113.49H508.947V115.354H507.321V120.1C507.321 120.451 507.389 120.703 507.523 120.855C507.658 121.008 507.916 121.084 508.297 121.084C508.578 121.084 508.827 121.063 509.044 121.022V122.947C508.546 123.1 508.033 123.176 507.506 123.176C505.725 123.176 504.816 122.276 504.781 120.478V115.354H503.393V113.49H504.781V111.152H507.321ZM513.043 123H510.494V113.49H513.043V123ZM510.345 111.029C510.345 110.648 510.471 110.335 510.723 110.089C510.98 109.843 511.329 109.72 511.769 109.72C512.202 109.72 512.548 109.843 512.806 110.089C513.063 110.335 513.192 110.648 513.192 111.029C513.192 111.416 513.061 111.732 512.797 111.979C512.539 112.225 512.196 112.348 511.769 112.348C511.341 112.348 510.995 112.225 510.731 111.979C510.474 111.732 510.345 111.416 510.345 111.029ZM517.481 113.49L517.561 114.589C518.24 113.739 519.151 113.314 520.294 113.314C521.302 113.314 522.052 113.61 522.544 114.202C523.036 114.794 523.288 115.679 523.3 116.856V123H520.76V116.918C520.76 116.379 520.643 115.989 520.408 115.749C520.174 115.503 519.784 115.38 519.239 115.38C518.524 115.38 517.988 115.685 517.631 116.294V123H515.091V113.49H517.481ZM524.864 118.175C524.864 116.716 525.21 115.541 525.901 114.65C526.599 113.76 527.536 113.314 528.714 113.314C529.757 113.314 530.568 113.672 531.148 114.387L531.254 113.49H533.557V122.684C533.557 123.516 533.366 124.239 532.985 124.854C532.61 125.47 532.08 125.938 531.395 126.261C530.709 126.583 529.906 126.744 528.986 126.744C528.289 126.744 527.609 126.604 526.947 126.322C526.285 126.047 525.784 125.689 525.444 125.25L526.569 123.703C527.202 124.412 527.97 124.767 528.872 124.767C529.546 124.767 530.07 124.585 530.445 124.222C530.82 123.864 531.008 123.354 531.008 122.692V122.183C530.422 122.845 529.651 123.176 528.696 123.176C527.554 123.176 526.628 122.73 525.919 121.84C525.216 120.943 524.864 119.757 524.864 118.28V118.175ZM527.404 118.359C527.404 119.221 527.577 119.897 527.923 120.39C528.269 120.876 528.743 121.119 529.347 121.119C530.12 121.119 530.674 120.829 531.008 120.249V116.25C530.668 115.67 530.12 115.38 529.364 115.38C528.755 115.38 528.274 115.629 527.923 116.127C527.577 116.625 527.404 117.369 527.404 118.359Z" fill="white"/>
<path d="M373.946 250H371.31V237.203H373.946V250ZM378.569 240.49L378.648 241.589C379.328 240.739 380.239 240.314 381.382 240.314C382.39 240.314 383.14 240.61 383.632 241.202C384.124 241.794 384.376 242.679 384.388 243.856V250H381.848V243.918C381.848 243.379 381.73 242.989 381.496 242.749C381.262 242.503 380.872 242.38 380.327 242.38C379.612 242.38 379.076 242.685 378.719 243.294V250H376.179V240.49H378.569ZM389.362 238.152V240.49H390.988V242.354H389.362V247.1C389.362 247.451 389.43 247.703 389.564 247.855C389.699 248.008 389.957 248.084 390.338 248.084C390.619 248.084 390.868 248.063 391.085 248.022V249.947C390.587 250.1 390.074 250.176 389.547 250.176C387.766 250.176 386.857 249.276 386.822 247.478V242.354H385.434V240.49H386.822V238.152H389.362ZM396.78 250.176C395.386 250.176 394.249 249.748 393.37 248.893C392.497 248.037 392.061 246.897 392.061 245.474V245.228C392.061 244.272 392.245 243.42 392.614 242.67C392.983 241.914 393.505 241.334 394.179 240.93C394.858 240.52 395.632 240.314 396.499 240.314C397.8 240.314 398.822 240.725 399.566 241.545C400.316 242.365 400.691 243.528 400.691 245.034V246.071H394.636C394.718 246.692 394.964 247.19 395.374 247.565C395.79 247.94 396.314 248.128 396.947 248.128C397.926 248.128 398.69 247.773 399.241 247.064L400.489 248.462C400.108 249.001 399.593 249.423 398.942 249.728C398.292 250.026 397.571 250.176 396.78 250.176ZM396.49 242.371C395.986 242.371 395.576 242.541 395.26 242.881C394.949 243.221 394.75 243.707 394.662 244.34H398.195V244.138C398.184 243.575 398.031 243.142 397.738 242.837C397.445 242.526 397.029 242.371 396.49 242.371ZM401.772 245.175C401.772 243.716 402.118 242.541 402.81 241.65C403.507 240.76 404.444 240.314 405.622 240.314C406.665 240.314 407.477 240.672 408.057 241.387L408.162 240.49H410.465V249.684C410.465 250.516 410.274 251.239 409.894 251.854C409.519 252.47 408.988 252.938 408.303 253.261C407.617 253.583 406.814 253.744 405.895 253.744C405.197 253.744 404.518 253.604 403.855 253.322C403.193 253.047 402.692 252.689 402.353 252.25L403.478 250.703C404.11 251.412 404.878 251.767 405.78 251.767C406.454 251.767 406.979 251.585 407.354 251.222C407.729 250.864 407.916 250.354 407.916 249.692V249.183C407.33 249.845 406.56 250.176 405.604 250.176C404.462 250.176 403.536 249.73 402.827 248.84C402.124 247.943 401.772 246.757 401.772 245.28V245.175ZM404.312 245.359C404.312 246.221 404.485 246.897 404.831 247.39C405.177 247.876 405.651 248.119 406.255 248.119C407.028 248.119 407.582 247.829 407.916 247.249V243.25C407.576 242.67 407.028 242.38 406.272 242.38C405.663 242.38 405.183 242.629 404.831 243.127C404.485 243.625 404.312 244.369 404.312 245.359ZM417.769 242.872C417.423 242.825 417.118 242.802 416.854 242.802C415.894 242.802 415.264 243.127 414.965 243.777V250H412.425V240.49H414.824L414.895 241.624C415.404 240.751 416.11 240.314 417.013 240.314C417.294 240.314 417.558 240.353 417.804 240.429L417.769 242.872ZM424.246 250C424.129 249.771 424.044 249.487 423.991 249.147C423.376 249.833 422.576 250.176 421.592 250.176C420.66 250.176 419.887 249.906 419.271 249.367C418.662 248.828 418.357 248.148 418.357 247.328C418.357 246.32 418.729 245.547 419.474 245.008C420.224 244.469 421.305 244.196 422.717 244.19H423.886V243.646C423.886 243.206 423.771 242.854 423.543 242.591C423.32 242.327 422.966 242.195 422.479 242.195C422.052 242.195 421.715 242.298 421.469 242.503C421.229 242.708 421.108 242.989 421.108 243.347H418.568C418.568 242.796 418.738 242.286 419.078 241.817C419.418 241.349 419.898 240.982 420.52 240.719C421.141 240.449 421.838 240.314 422.611 240.314C423.783 240.314 424.712 240.61 425.397 241.202C426.089 241.788 426.435 242.614 426.435 243.681V247.803C426.44 248.705 426.566 249.388 426.812 249.851V250H424.246ZM422.146 248.233C422.521 248.233 422.866 248.151 423.183 247.987C423.499 247.817 423.733 247.592 423.886 247.311V245.676H422.937C421.665 245.676 420.988 246.115 420.906 246.994L420.897 247.144C420.897 247.46 421.009 247.721 421.231 247.926C421.454 248.131 421.759 248.233 422.146 248.233ZM431.427 238.152V240.49H433.053V242.354H431.427V247.1C431.427 247.451 431.494 247.703 431.629 247.855C431.764 248.008 432.021 248.084 432.402 248.084C432.684 248.084 432.933 248.063 433.149 248.022V249.947C432.651 250.1 432.139 250.176 431.611 250.176C429.83 250.176 428.922 249.276 428.887 247.478V242.354H427.498V240.49H428.887V238.152H431.427ZM437.148 250H434.6V240.49H437.148V250ZM434.45 238.029C434.45 237.648 434.576 237.335 434.828 237.089C435.086 236.843 435.435 236.72 435.874 236.72C436.308 236.72 436.653 236.843 436.911 237.089C437.169 237.335 437.298 237.648 437.298 238.029C437.298 238.416 437.166 238.732 436.902 238.979C436.645 239.225 436.302 239.348 435.874 239.348C435.446 239.348 435.101 239.225 434.837 238.979C434.579 238.732 434.45 238.416 434.45 238.029ZM438.854 245.157C438.854 244.214 439.035 243.373 439.398 242.635C439.762 241.896 440.283 241.325 440.963 240.921C441.648 240.517 442.442 240.314 443.345 240.314C444.628 240.314 445.674 240.707 446.482 241.492C447.297 242.277 447.751 243.344 447.845 244.691L447.862 245.342C447.862 246.801 447.455 247.973 446.641 248.857C445.826 249.736 444.733 250.176 443.362 250.176C441.991 250.176 440.896 249.736 440.075 248.857C439.261 247.979 438.854 246.783 438.854 245.271V245.157ZM441.394 245.342C441.394 246.244 441.563 246.936 441.903 247.416C442.243 247.891 442.729 248.128 443.362 248.128C443.978 248.128 444.458 247.894 444.804 247.425C445.149 246.95 445.322 246.194 445.322 245.157C445.322 244.272 445.149 243.587 444.804 243.101C444.458 242.614 443.972 242.371 443.345 242.371C442.724 242.371 442.243 242.614 441.903 243.101C441.563 243.581 441.394 244.328 441.394 245.342ZM451.765 240.49L451.844 241.589C452.523 240.739 453.435 240.314 454.577 240.314C455.585 240.314 456.335 240.61 456.827 241.202C457.319 241.794 457.571 242.679 457.583 243.856V250H455.043V243.918C455.043 243.379 454.926 242.989 454.691 242.749C454.457 242.503 454.067 242.38 453.522 242.38C452.808 242.38 452.271 242.685 451.914 243.294V250H449.374V240.49H451.765ZM467.04 238.152V240.49H468.666V242.354H467.04V247.1C467.04 247.451 467.107 247.703 467.242 247.855C467.377 248.008 467.635 248.084 468.016 248.084C468.297 248.084 468.546 248.063 468.763 248.022V249.947C468.265 250.1 467.752 250.176 467.225 250.176C465.443 250.176 464.535 249.276 464.5 247.478V242.354H463.111V240.49H464.5V238.152H467.04ZM474.458 250.176C473.063 250.176 471.927 249.748 471.048 248.893C470.175 248.037 469.738 246.897 469.738 245.474V245.228C469.738 244.272 469.923 243.42 470.292 242.67C470.661 241.914 471.183 241.334 471.856 240.93C472.536 240.52 473.31 240.314 474.177 240.314C475.478 240.314 476.5 240.725 477.244 241.545C477.994 242.365 478.369 243.528 478.369 245.034V246.071H472.313C472.396 246.692 472.642 247.19 473.052 247.565C473.468 247.94 473.992 248.128 474.625 248.128C475.604 248.128 476.368 247.773 476.919 247.064L478.167 248.462C477.786 249.001 477.271 249.423 476.62 249.728C475.97 250.026 475.249 250.176 474.458 250.176ZM474.168 242.371C473.664 242.371 473.254 242.541 472.938 242.881C472.627 243.221 472.428 243.707 472.34 244.34H475.873V244.138C475.861 243.575 475.709 243.142 475.416 242.837C475.123 242.526 474.707 242.371 474.168 242.371ZM484.97 247.372C484.97 247.062 484.814 246.818 484.504 246.643C484.199 246.461 483.707 246.3 483.027 246.159C480.766 245.685 479.635 244.724 479.635 243.276C479.635 242.433 479.983 241.729 480.681 241.167C481.384 240.599 482.301 240.314 483.432 240.314C484.639 240.314 485.603 240.599 486.323 241.167C487.05 241.735 487.413 242.474 487.413 243.382H484.873C484.873 243.019 484.756 242.72 484.521 242.485C484.287 242.245 483.921 242.125 483.423 242.125C482.995 242.125 482.664 242.222 482.43 242.415C482.195 242.608 482.078 242.854 482.078 243.153C482.078 243.435 482.21 243.663 482.474 243.839C482.743 244.009 483.194 244.158 483.827 244.287C484.46 244.41 484.993 244.551 485.427 244.709C486.769 245.201 487.439 246.054 487.439 247.267C487.439 248.134 487.067 248.837 486.323 249.376C485.579 249.909 484.618 250.176 483.44 250.176C482.644 250.176 481.935 250.035 481.313 249.754C480.698 249.467 480.215 249.077 479.863 248.585C479.512 248.087 479.336 247.551 479.336 246.977H481.744C481.768 247.428 481.935 247.773 482.245 248.014C482.556 248.254 482.972 248.374 483.493 248.374C483.979 248.374 484.346 248.283 484.592 248.102C484.844 247.914 484.97 247.671 484.97 247.372ZM492.124 238.152V240.49H493.75V242.354H492.124V247.1C492.124 247.451 492.191 247.703 492.326 247.855C492.461 248.008 492.719 248.084 493.1 248.084C493.381 248.084 493.63 248.063 493.847 248.022V249.947C493.349 250.1 492.836 250.176 492.309 250.176C490.527 250.176 489.619 249.276 489.584 247.478V242.354H488.195V240.49H489.584V238.152H492.124ZM500.315 247.372C500.315 247.062 500.16 246.818 499.85 246.643C499.545 246.461 499.053 246.3 498.373 246.159C496.111 245.685 494.98 244.724 494.98 243.276C494.98 242.433 495.329 241.729 496.026 241.167C496.729 240.599 497.646 240.314 498.777 240.314C499.984 240.314 500.948 240.599 501.669 241.167C502.396 241.735 502.759 242.474 502.759 243.382H500.219C500.219 243.019 500.102 242.72 499.867 242.485C499.633 242.245 499.267 242.125 498.769 242.125C498.341 242.125 498.01 242.222 497.775 242.415C497.541 242.608 497.424 242.854 497.424 243.153C497.424 243.435 497.556 243.663 497.819 243.839C498.089 244.009 498.54 244.158 499.173 244.287C499.806 244.41 500.339 244.551 500.772 244.709C502.114 245.201 502.785 246.054 502.785 247.267C502.785 248.134 502.413 248.837 501.669 249.376C500.925 249.909 499.964 250.176 498.786 250.176C497.989 250.176 497.28 250.035 496.659 249.754C496.044 249.467 495.561 249.077 495.209 248.585C494.857 248.087 494.682 247.551 494.682 246.977H497.09C497.113 247.428 497.28 247.773 497.591 248.014C497.901 248.254 498.317 248.374 498.839 248.374C499.325 248.374 499.691 248.283 499.938 248.102C500.189 247.914 500.315 247.671 500.315 247.372Z" fill="white"/>
<path d="M137.779 419.491V424H135.143V411.203H140.135C141.096 411.203 141.939 411.379 142.666 411.73C143.398 412.082 143.961 412.583 144.354 413.233C144.746 413.878 144.942 414.613 144.942 415.439C144.942 416.693 144.512 417.684 143.65 418.41C142.795 419.131 141.608 419.491 140.091 419.491H137.779ZM137.779 417.355H140.135C140.832 417.355 141.362 417.191 141.726 416.863C142.095 416.535 142.279 416.066 142.279 415.457C142.279 414.83 142.095 414.323 141.726 413.937C141.356 413.55 140.847 413.351 140.196 413.339H137.779V417.355ZM151.938 416.872C151.593 416.825 151.288 416.802 151.024 416.802C150.063 416.802 149.434 417.127 149.135 417.777V424H146.595V414.49H148.994L149.064 415.624C149.574 414.751 150.28 414.314 151.183 414.314C151.464 414.314 151.728 414.353 151.974 414.429L151.938 416.872ZM157.37 424.176C155.976 424.176 154.839 423.748 153.96 422.893C153.087 422.037 152.65 420.897 152.65 419.474V419.228C152.65 418.272 152.835 417.42 153.204 416.67C153.573 415.914 154.095 415.334 154.769 414.93C155.448 414.52 156.222 414.314 157.089 414.314C158.39 414.314 159.412 414.725 160.156 415.545C160.906 416.365 161.281 417.528 161.281 419.034V420.071H155.226C155.308 420.692 155.554 421.19 155.964 421.565C156.38 421.94 156.904 422.128 157.537 422.128C158.516 422.128 159.28 421.773 159.831 421.064L161.079 422.462C160.698 423.001 160.183 423.423 159.532 423.728C158.882 424.026 158.161 424.176 157.37 424.176ZM157.08 416.371C156.576 416.371 156.166 416.541 155.85 416.881C155.539 417.221 155.34 417.707 155.252 418.34H158.785V418.138C158.773 417.575 158.621 417.142 158.328 416.837C158.035 416.526 157.619 416.371 157.08 416.371ZM166.168 420.897L167.935 414.49H170.589L167.381 424H164.955L161.747 414.49H164.401L166.168 420.897ZM174.395 424H171.846V414.49H174.395V424ZM171.696 412.029C171.696 411.648 171.822 411.335 172.074 411.089C172.332 410.843 172.681 410.72 173.12 410.72C173.554 410.72 173.899 410.843 174.157 411.089C174.415 411.335 174.544 411.648 174.544 412.029C174.544 412.416 174.412 412.732 174.148 412.979C173.891 413.225 173.548 413.348 173.12 413.348C172.692 413.348 172.347 413.225 172.083 412.979C171.825 412.732 171.696 412.416 171.696 412.029ZM180.872 424.176C179.478 424.176 178.341 423.748 177.462 422.893C176.589 422.037 176.152 420.897 176.152 419.474V419.228C176.152 418.272 176.337 417.42 176.706 416.67C177.075 415.914 177.597 415.334 178.271 414.93C178.95 414.52 179.724 414.314 180.591 414.314C181.892 414.314 182.914 414.725 183.658 415.545C184.408 416.365 184.783 417.528 184.783 419.034V420.071H178.728C178.81 420.692 179.056 421.19 179.466 421.565C179.882 421.94 180.406 422.128 181.039 422.128C182.018 422.128 182.782 421.773 183.333 421.064L184.581 422.462C184.2 423.001 183.685 423.423 183.034 423.728C182.384 424.026 181.663 424.176 180.872 424.176ZM180.582 416.371C180.078 416.371 179.668 416.541 179.352 416.881C179.041 417.221 178.842 417.707 178.754 418.34H182.287V418.138C182.275 417.575 182.123 417.142 181.83 416.837C181.537 416.526 181.121 416.371 180.582 416.371ZM194.504 420.546L195.752 414.49H198.204L195.778 424H193.651L191.85 418.015L190.048 424H187.93L185.504 414.49H187.956L189.195 420.537L190.936 414.49H192.772L194.504 420.546ZM204.119 424V411.203H208.057C209.182 411.203 210.187 411.458 211.071 411.968C211.962 412.472 212.656 413.192 213.154 414.13C213.652 415.062 213.901 416.122 213.901 417.312V417.9C213.901 419.09 213.655 420.147 213.163 421.073C212.677 421.999 211.988 422.717 211.098 423.227C210.207 423.736 209.202 423.994 208.083 424H204.119ZM206.756 413.339V421.882H208.03C209.062 421.882 209.85 421.545 210.395 420.871C210.939 420.197 211.218 419.233 211.229 417.979V417.303C211.229 416.002 210.96 415.018 210.421 414.35C209.882 413.676 209.094 413.339 208.057 413.339H206.756ZM220.036 424.176C218.642 424.176 217.505 423.748 216.626 422.893C215.753 422.037 215.316 420.897 215.316 419.474V419.228C215.316 418.272 215.501 417.42 215.87 416.67C216.239 415.914 216.761 415.334 217.435 414.93C218.114 414.52 218.888 414.314 219.755 414.314C221.056 414.314 222.078 414.725 222.822 415.545C223.572 416.365 223.947 417.528 223.947 419.034V420.071H217.892C217.974 420.692 218.22 421.19 218.63 421.565C219.046 421.94 219.57 422.128 220.203 422.128C221.182 422.128 221.946 421.773 222.497 421.064L223.745 422.462C223.364 423.001 222.849 423.423 222.198 423.728C221.548 424.026 220.827 424.176 220.036 424.176ZM219.746 416.371C219.242 416.371 218.832 416.541 218.516 416.881C218.205 417.221 218.006 417.707 217.918 418.34H221.451V418.138C221.439 417.575 221.287 417.142 220.994 416.837C220.701 416.526 220.285 416.371 219.746 416.371ZM233.958 419.333C233.958 420.798 233.624 421.973 232.956 422.857C232.294 423.736 231.397 424.176 230.267 424.176C229.306 424.176 228.529 423.842 227.938 423.174V427.656H225.397V414.49H227.753L227.841 415.422C228.456 414.684 229.259 414.314 230.249 414.314C231.421 414.314 232.332 414.748 232.982 415.615C233.633 416.482 233.958 417.678 233.958 419.201V419.333ZM231.418 419.148C231.418 418.264 231.26 417.581 230.943 417.101C230.633 416.62 230.179 416.38 229.581 416.38C228.784 416.38 228.236 416.685 227.938 417.294V421.188C228.248 421.814 228.802 422.128 229.599 422.128C230.812 422.128 231.418 421.135 231.418 419.148ZM238.221 424H235.672V410.5H238.221V424ZM239.926 419.157C239.926 418.214 240.107 417.373 240.471 416.635C240.834 415.896 241.355 415.325 242.035 414.921C242.721 414.517 243.515 414.314 244.417 414.314C245.7 414.314 246.746 414.707 247.555 415.492C248.369 416.277 248.823 417.344 248.917 418.691L248.935 419.342C248.935 420.801 248.527 421.973 247.713 422.857C246.898 423.736 245.806 424.176 244.435 424.176C243.063 424.176 241.968 423.736 241.147 422.857C240.333 421.979 239.926 420.783 239.926 419.271V419.157ZM242.466 419.342C242.466 420.244 242.636 420.936 242.976 421.416C243.315 421.891 243.802 422.128 244.435 422.128C245.05 422.128 245.53 421.894 245.876 421.425C246.222 420.95 246.395 420.194 246.395 419.157C246.395 418.272 246.222 417.587 245.876 417.101C245.53 416.614 245.044 416.371 244.417 416.371C243.796 416.371 243.315 416.614 242.976 417.101C242.636 417.581 242.466 418.328 242.466 419.342ZM253.909 420.405L255.667 414.49H258.392L254.568 425.477L254.357 425.978C253.789 427.22 252.852 427.841 251.545 427.841C251.176 427.841 250.801 427.785 250.42 427.674V425.749L250.807 425.758C251.287 425.758 251.645 425.685 251.879 425.538C252.119 425.392 252.307 425.148 252.441 424.809L252.74 424.026L249.409 414.49H252.143L253.909 420.405ZM261.775 414.49L261.854 415.554C262.528 414.728 263.439 414.314 264.588 414.314C265.812 414.314 266.653 414.798 267.11 415.765C267.778 414.798 268.73 414.314 269.967 414.314C270.998 414.314 271.766 414.616 272.27 415.22C272.773 415.817 273.025 416.72 273.025 417.927V424H270.477V417.936C270.477 417.396 270.371 417.004 270.16 416.758C269.949 416.506 269.577 416.38 269.044 416.38C268.282 416.38 267.755 416.743 267.462 417.47L267.471 424H264.931V417.944C264.931 417.394 264.822 416.995 264.605 416.749C264.389 416.503 264.02 416.38 263.498 416.38C262.777 416.38 262.256 416.679 261.934 417.276V424H259.394V414.49H261.775ZM279.362 424.176C277.968 424.176 276.831 423.748 275.952 422.893C275.079 422.037 274.643 420.897 274.643 419.474V419.228C274.643 418.272 274.827 417.42 275.196 416.67C275.565 415.914 276.087 415.334 276.761 414.93C277.44 414.52 278.214 414.314 279.081 414.314C280.382 414.314 281.404 414.725 282.148 415.545C282.898 416.365 283.273 417.528 283.273 419.034V420.071H277.218C277.3 420.692 277.546 421.19 277.956 421.565C278.372 421.94 278.896 422.128 279.529 422.128C280.508 422.128 281.272 421.773 281.823 421.064L283.071 422.462C282.69 423.001 282.175 423.423 281.524 423.728C280.874 424.026 280.153 424.176 279.362 424.176ZM279.072 416.371C278.568 416.371 278.158 416.541 277.842 416.881C277.531 417.221 277.332 417.707 277.244 418.34H280.777V418.138C280.766 417.575 280.613 417.142 280.32 416.837C280.027 416.526 279.611 416.371 279.072 416.371ZM287.062 414.49L287.141 415.589C287.82 414.739 288.731 414.314 289.874 414.314C290.882 414.314 291.632 414.61 292.124 415.202C292.616 415.794 292.868 416.679 292.88 417.856V424H290.34V417.918C290.34 417.379 290.223 416.989 289.988 416.749C289.754 416.503 289.364 416.38 288.819 416.38C288.104 416.38 287.568 416.685 287.211 417.294V424H284.671V414.49H287.062ZM297.854 412.152V414.49H299.48V416.354H297.854V421.1C297.854 421.451 297.922 421.703 298.057 421.855C298.191 422.008 298.449 422.084 298.83 422.084C299.111 422.084 299.36 422.063 299.577 422.022V423.947C299.079 424.1 298.566 424.176 298.039 424.176C296.258 424.176 295.35 423.276 295.314 421.478V416.354H293.926V414.49H295.314V412.152H297.854ZM306.046 421.372C306.046 421.062 305.891 420.818 305.58 420.643C305.275 420.461 304.783 420.3 304.104 420.159C301.842 419.685 300.711 418.724 300.711 417.276C300.711 416.433 301.06 415.729 301.757 415.167C302.46 414.599 303.377 414.314 304.508 414.314C305.715 414.314 306.679 414.599 307.399 415.167C308.126 415.735 308.489 416.474 308.489 417.382H305.949C305.949 417.019 305.832 416.72 305.598 416.485C305.363 416.245 304.997 416.125 304.499 416.125C304.071 416.125 303.74 416.222 303.506 416.415C303.271 416.608 303.154 416.854 303.154 417.153C303.154 417.435 303.286 417.663 303.55 417.839C303.819 418.009 304.271 418.158 304.903 418.287C305.536 418.41 306.069 418.551 306.503 418.709C307.845 419.201 308.516 420.054 308.516 421.267C308.516 422.134 308.144 422.837 307.399 423.376C306.655 423.909 305.694 424.176 304.517 424.176C303.72 424.176 303.011 424.035 302.39 423.754C301.774 423.467 301.291 423.077 300.939 422.585C300.588 422.087 300.412 421.551 300.412 420.977H302.82C302.844 421.428 303.011 421.773 303.321 422.014C303.632 422.254 304.048 422.374 304.569 422.374C305.056 422.374 305.422 422.283 305.668 422.102C305.92 421.914 306.046 421.671 306.046 421.372Z" fill="white"/>
<path d="M409.842 570.454H404.779V573.882H410.721V576H402.143V563.203H410.703V565.339H404.779V568.389H409.842V570.454ZM414.438 566.49L414.518 567.589C415.197 566.739 416.108 566.314 417.251 566.314C418.259 566.314 419.009 566.61 419.501 567.202C419.993 567.794 420.245 568.679 420.257 569.856V576H417.717V569.918C417.717 569.379 417.6 568.989 417.365 568.749C417.131 568.503 416.741 568.38 416.196 568.38C415.481 568.38 414.945 568.685 414.588 569.294V576H412.048V566.49H414.438ZM421.795 571.175C421.795 569.692 422.126 568.512 422.788 567.633C423.456 566.754 424.367 566.314 425.521 566.314C426.447 566.314 427.212 566.66 427.815 567.352V562.5H430.364V576H428.07L427.947 574.989C427.314 575.78 426.5 576.176 425.504 576.176C424.385 576.176 423.485 575.736 422.806 574.857C422.132 573.973 421.795 572.745 421.795 571.175ZM424.335 571.359C424.335 572.25 424.49 572.933 424.801 573.407C425.111 573.882 425.562 574.119 426.154 574.119C426.939 574.119 427.493 573.788 427.815 573.126V569.373C427.499 568.711 426.951 568.38 426.172 568.38C424.947 568.38 424.335 569.373 424.335 571.359ZM439.856 564.152V566.49H441.482V568.354H439.856V573.1C439.856 573.451 439.924 573.703 440.059 573.855C440.193 574.008 440.451 574.084 440.832 574.084C441.113 574.084 441.362 574.063 441.579 574.022V575.947C441.081 576.1 440.568 576.176 440.041 576.176C438.26 576.176 437.352 575.276 437.316 573.478V568.354H435.928V566.49H437.316V564.152H439.856ZM442.238 571.157C442.238 570.214 442.42 569.373 442.783 568.635C443.146 567.896 443.668 567.325 444.348 566.921C445.033 566.517 445.827 566.314 446.729 566.314C448.013 566.314 449.059 566.707 449.867 567.492C450.682 568.277 451.136 569.344 451.229 570.691L451.247 571.342C451.247 572.801 450.84 573.973 450.025 574.857C449.211 575.736 448.118 576.176 446.747 576.176C445.376 576.176 444.28 575.736 443.46 574.857C442.646 573.979 442.238 572.783 442.238 571.271V571.157ZM444.778 571.342C444.778 572.244 444.948 572.936 445.288 573.416C445.628 573.891 446.114 574.128 446.747 574.128C447.362 574.128 447.843 573.894 448.188 573.425C448.534 572.95 448.707 572.194 448.707 571.157C448.707 570.272 448.534 569.587 448.188 569.101C447.843 568.614 447.356 568.371 446.729 568.371C446.108 568.371 445.628 568.614 445.288 569.101C444.948 569.581 444.778 570.328 444.778 571.342ZM461.671 576.176C460.276 576.176 459.14 575.748 458.261 574.893C457.388 574.037 456.951 572.897 456.951 571.474V571.228C456.951 570.272 457.136 569.42 457.505 568.67C457.874 567.914 458.396 567.334 459.069 566.93C459.749 566.52 460.522 566.314 461.39 566.314C462.69 566.314 463.713 566.725 464.457 567.545C465.207 568.365 465.582 569.528 465.582 571.034V572.071H459.526C459.608 572.692 459.854 573.19 460.265 573.565C460.681 573.94 461.205 574.128 461.838 574.128C462.816 574.128 463.581 573.773 464.132 573.064L465.38 574.462C464.999 575.001 464.483 575.423 463.833 575.728C463.183 576.026 462.462 576.176 461.671 576.176ZM461.381 568.371C460.877 568.371 460.467 568.541 460.15 568.881C459.84 569.221 459.641 569.707 459.553 570.34H463.086V570.138C463.074 569.575 462.922 569.142 462.629 568.837C462.336 568.526 461.92 568.371 461.381 568.371ZM469.37 566.49L469.449 567.589C470.129 566.739 471.04 566.314 472.183 566.314C473.19 566.314 473.94 566.61 474.433 567.202C474.925 567.794 475.177 568.679 475.188 569.856V576H472.648V569.918C472.648 569.379 472.531 568.989 472.297 568.749C472.062 568.503 471.673 568.38 471.128 568.38C470.413 568.38 469.877 568.685 469.52 569.294V576H466.979V566.49H469.37ZM476.727 571.175C476.727 569.692 477.058 568.512 477.72 567.633C478.388 566.754 479.299 566.314 480.453 566.314C481.379 566.314 482.144 566.66 482.747 567.352V562.5H485.296V576H483.002L482.879 574.989C482.246 575.78 481.432 576.176 480.436 576.176C479.316 576.176 478.417 575.736 477.737 574.857C477.063 573.973 476.727 572.745 476.727 571.175ZM479.267 571.359C479.267 572.25 479.422 572.933 479.732 573.407C480.043 573.882 480.494 574.119 481.086 574.119C481.871 574.119 482.425 573.788 482.747 573.126V569.373C482.431 568.711 481.883 568.38 481.104 568.38C479.879 568.38 479.267 569.373 479.267 571.359ZM494.788 564.152V566.49H496.414V568.354H494.788V573.1C494.788 573.451 494.855 573.703 494.99 573.855C495.125 574.008 495.383 574.084 495.764 574.084C496.045 574.084 496.294 574.063 496.511 574.022V575.947C496.013 576.1 495.5 576.176 494.973 576.176C493.191 576.176 492.283 575.276 492.248 573.478V568.354H490.859V566.49H492.248V564.152H494.788ZM502.206 576.176C500.812 576.176 499.675 575.748 498.796 574.893C497.923 574.037 497.486 572.897 497.486 571.474V571.228C497.486 570.272 497.671 569.42 498.04 568.67C498.409 567.914 498.931 567.334 499.604 566.93C500.284 566.52 501.058 566.314 501.925 566.314C503.226 566.314 504.248 566.725 504.992 567.545C505.742 568.365 506.117 569.528 506.117 571.034V572.071H500.062C500.144 572.692 500.39 573.19 500.8 573.565C501.216 573.94 501.74 574.128 502.373 574.128C503.352 574.128 504.116 573.773 504.667 573.064L505.915 574.462C505.534 575.001 505.019 575.423 504.368 575.728C503.718 576.026 502.997 576.176 502.206 576.176ZM501.916 568.371C501.412 568.371 501.002 568.541 500.686 568.881C500.375 569.221 500.176 569.707 500.088 570.34H503.621V570.138C503.609 569.575 503.457 569.142 503.164 568.837C502.871 568.526 502.455 568.371 501.916 568.371ZM512.718 573.372C512.718 573.062 512.562 572.818 512.252 572.643C511.947 572.461 511.455 572.3 510.775 572.159C508.514 571.685 507.383 570.724 507.383 569.276C507.383 568.433 507.731 567.729 508.429 567.167C509.132 566.599 510.049 566.314 511.18 566.314C512.387 566.314 513.351 566.599 514.071 567.167C514.798 567.735 515.161 568.474 515.161 569.382H512.621C512.621 569.019 512.504 568.72 512.27 568.485C512.035 568.245 511.669 568.125 511.171 568.125C510.743 568.125 510.412 568.222 510.178 568.415C509.943 568.608 509.826 568.854 509.826 569.153C509.826 569.435 509.958 569.663 510.222 569.839C510.491 570.009 510.942 570.158 511.575 570.287C512.208 570.41 512.741 570.551 513.175 570.709C514.517 571.201 515.188 572.054 515.188 573.267C515.188 574.134 514.815 574.837 514.071 575.376C513.327 575.909 512.366 576.176 511.188 576.176C510.392 576.176 509.683 576.035 509.062 575.754C508.446 575.467 507.963 575.077 507.611 574.585C507.26 574.087 507.084 573.551 507.084 572.977H509.492C509.516 573.428 509.683 573.773 509.993 574.014C510.304 574.254 510.72 574.374 511.241 574.374C511.728 574.374 512.094 574.283 512.34 574.102C512.592 573.914 512.718 573.671 512.718 573.372ZM519.872 564.152V566.49H521.498V568.354H519.872V573.1C519.872 573.451 519.939 573.703 520.074 573.855C520.209 574.008 520.467 574.084 520.848 574.084C521.129 574.084 521.378 574.063 521.595 574.022V575.947C521.097 576.1 520.584 576.176 520.057 576.176C518.275 576.176 517.367 575.276 517.332 573.478V568.354H515.943V566.49H517.332V564.152H519.872ZM528.063 573.372C528.063 573.062 527.908 572.818 527.598 572.643C527.293 572.461 526.801 572.3 526.121 572.159C523.859 571.685 522.729 570.724 522.729 569.276C522.729 568.433 523.077 567.729 523.774 567.167C524.478 566.599 525.395 566.314 526.525 566.314C527.732 566.314 528.696 566.599 529.417 567.167C530.144 567.735 530.507 568.474 530.507 569.382H527.967C527.967 569.019 527.85 568.72 527.615 568.485C527.381 568.245 527.015 568.125 526.517 568.125C526.089 568.125 525.758 568.222 525.523 568.415C525.289 568.608 525.172 568.854 525.172 569.153C525.172 569.435 525.304 569.663 525.567 569.839C525.837 570.009 526.288 570.158 526.921 570.287C527.554 570.41 528.087 570.551 528.521 570.709C529.862 571.201 530.533 572.054 530.533 573.267C530.533 574.134 530.161 574.837 529.417 575.376C528.673 575.909 527.712 576.176 526.534 576.176C525.737 576.176 525.028 576.035 524.407 575.754C523.792 575.467 523.309 575.077 522.957 574.585C522.605 574.087 522.43 573.551 522.43 572.977H524.838C524.861 573.428 525.028 573.773 525.339 574.014C525.649 574.254 526.065 574.374 526.587 574.374C527.073 574.374 527.439 574.283 527.686 574.102C527.938 573.914 528.063 573.671 528.063 573.372Z" fill="white"/>
<path d="M112.367 609.363H107.744L106.865 612H104.062L108.825 599.203H111.269L116.059 612H113.255L112.367 609.363ZM108.456 607.228H111.655L110.047 602.438L108.456 607.228ZM121.042 610.128C121.511 610.128 121.892 609.999 122.185 609.741C122.478 609.483 122.63 609.141 122.642 608.713H125.023C125.018 609.357 124.842 609.949 124.496 610.488C124.15 611.021 123.676 611.438 123.072 611.736C122.475 612.029 121.812 612.176 121.086 612.176C119.727 612.176 118.654 611.745 117.869 610.884C117.084 610.017 116.691 608.821 116.691 607.298V607.131C116.691 605.666 117.081 604.497 117.86 603.624C118.64 602.751 119.709 602.314 121.068 602.314C122.258 602.314 123.21 602.654 123.925 603.334C124.646 604.008 125.012 604.907 125.023 606.032H122.642C122.63 605.54 122.478 605.142 122.185 604.837C121.892 604.526 121.505 604.371 121.024 604.371C120.433 604.371 119.984 604.588 119.68 605.021C119.381 605.449 119.231 606.146 119.231 607.113V607.377C119.231 608.355 119.381 609.059 119.68 609.486C119.979 609.914 120.433 610.128 121.042 610.128ZM130.429 610.128C130.897 610.128 131.278 609.999 131.571 609.741C131.864 609.483 132.017 609.141 132.028 608.713H134.41C134.404 609.357 134.229 609.949 133.883 610.488C133.537 611.021 133.062 611.438 132.459 611.736C131.861 612.029 131.199 612.176 130.473 612.176C129.113 612.176 128.041 611.745 127.256 610.884C126.471 610.017 126.078 608.821 126.078 607.298V607.131C126.078 605.666 126.468 604.497 127.247 603.624C128.026 602.751 129.096 602.314 130.455 602.314C131.645 602.314 132.597 602.654 133.312 603.334C134.032 604.008 134.398 604.907 134.41 606.032H132.028C132.017 605.54 131.864 605.142 131.571 604.837C131.278 604.526 130.892 604.371 130.411 604.371C129.819 604.371 129.371 604.588 129.066 605.021C128.768 605.449 128.618 606.146 128.618 607.113V607.377C128.618 608.355 128.768 609.059 129.066 609.486C129.365 609.914 129.819 610.128 130.429 610.128ZM140.237 612.176C138.843 612.176 137.706 611.748 136.827 610.893C135.954 610.037 135.518 608.897 135.518 607.474V607.228C135.518 606.272 135.702 605.42 136.071 604.67C136.44 603.914 136.962 603.334 137.636 602.93C138.315 602.52 139.089 602.314 139.956 602.314C141.257 602.314 142.279 602.725 143.023 603.545C143.773 604.365 144.148 605.528 144.148 607.034V608.071H138.093C138.175 608.692 138.421 609.19 138.831 609.565C139.247 609.94 139.771 610.128 140.404 610.128C141.383 610.128 142.147 609.773 142.698 609.064L143.946 610.462C143.565 611.001 143.05 611.423 142.399 611.728C141.749 612.026 141.028 612.176 140.237 612.176ZM139.947 604.371C139.443 604.371 139.033 604.541 138.717 604.881C138.406 605.221 138.207 605.707 138.119 606.34H141.652V606.138C141.641 605.575 141.488 605.142 141.195 604.837C140.902 604.526 140.486 604.371 139.947 604.371ZM150.749 609.372C150.749 609.062 150.594 608.818 150.283 608.643C149.979 608.461 149.486 608.3 148.807 608.159C146.545 607.685 145.414 606.724 145.414 605.276C145.414 604.433 145.763 603.729 146.46 603.167C147.163 602.599 148.08 602.314 149.211 602.314C150.418 602.314 151.382 602.599 152.103 603.167C152.829 603.735 153.192 604.474 153.192 605.382H150.652C150.652 605.019 150.535 604.72 150.301 604.485C150.066 604.245 149.7 604.125 149.202 604.125C148.774 604.125 148.443 604.222 148.209 604.415C147.975 604.608 147.857 604.854 147.857 605.153C147.857 605.435 147.989 605.663 148.253 605.839C148.522 606.009 148.974 606.158 149.606 606.287C150.239 606.41 150.772 606.551 151.206 606.709C152.548 607.201 153.219 608.054 153.219 609.267C153.219 610.134 152.847 610.837 152.103 611.376C151.358 611.909 150.397 612.176 149.22 612.176C148.423 612.176 147.714 612.035 147.093 611.754C146.478 611.467 145.994 611.077 145.643 610.585C145.291 610.087 145.115 609.551 145.115 608.977H147.523C147.547 609.428 147.714 609.773 148.024 610.014C148.335 610.254 148.751 610.374 149.272 610.374C149.759 610.374 150.125 610.283 150.371 610.102C150.623 609.914 150.749 609.671 150.749 609.372ZM160.013 609.372C160.013 609.062 159.857 608.818 159.547 608.643C159.242 608.461 158.75 608.3 158.07 608.159C155.809 607.685 154.678 606.724 154.678 605.276C154.678 604.433 155.026 603.729 155.724 603.167C156.427 602.599 157.344 602.314 158.475 602.314C159.682 602.314 160.646 602.599 161.366 603.167C162.093 603.735 162.456 604.474 162.456 605.382H159.916C159.916 605.019 159.799 604.72 159.564 604.485C159.33 604.245 158.964 604.125 158.466 604.125C158.038 604.125 157.707 604.222 157.473 604.415C157.238 604.608 157.121 604.854 157.121 605.153C157.121 605.435 157.253 605.663 157.517 605.839C157.786 606.009 158.237 606.158 158.87 606.287C159.503 606.41 160.036 606.551 160.47 606.709C161.812 607.201 162.482 608.054 162.482 609.267C162.482 610.134 162.11 610.837 161.366 611.376C160.622 611.909 159.661 612.176 158.483 612.176C157.687 612.176 156.978 612.035 156.356 611.754C155.741 611.467 155.258 611.077 154.906 610.585C154.555 610.087 154.379 609.551 154.379 608.977H156.787C156.811 609.428 156.978 609.773 157.288 610.014C157.599 610.254 158.015 610.374 158.536 610.374C159.022 610.374 159.389 610.283 159.635 610.102C159.887 609.914 160.013 609.671 160.013 609.372ZM166.807 612H164.258V602.49H166.807V612ZM164.108 600.029C164.108 599.648 164.234 599.335 164.486 599.089C164.744 598.843 165.093 598.72 165.532 598.72C165.966 598.72 166.312 598.843 166.569 599.089C166.827 599.335 166.956 599.648 166.956 600.029C166.956 600.416 166.824 600.732 166.561 600.979C166.303 601.225 165.96 601.348 165.532 601.348C165.104 601.348 164.759 601.225 164.495 600.979C164.237 600.732 164.108 600.416 164.108 600.029ZM177.477 607.333C177.477 608.856 177.151 610.046 176.501 610.901C175.851 611.751 174.942 612.176 173.776 612.176C172.745 612.176 171.922 611.78 171.307 610.989L171.192 612H168.907V598.5H171.447V603.343C172.033 602.657 172.804 602.314 173.759 602.314C174.919 602.314 175.827 602.742 176.483 603.598C177.146 604.447 177.477 605.646 177.477 607.192V607.333ZM174.937 607.148C174.937 606.188 174.784 605.487 174.479 605.048C174.175 604.603 173.721 604.38 173.117 604.38C172.309 604.38 171.752 604.711 171.447 605.373V609.126C171.758 609.794 172.32 610.128 173.135 610.128C173.955 610.128 174.494 609.724 174.752 608.915C174.875 608.528 174.937 607.939 174.937 607.148ZM181.73 612H179.182V602.49H181.73V612ZM179.032 600.029C179.032 599.648 179.158 599.335 179.41 599.089C179.668 598.843 180.017 598.72 180.456 598.72C180.89 598.72 181.235 598.843 181.493 599.089C181.751 599.335 181.88 599.648 181.88 600.029C181.88 600.416 181.748 600.732 181.484 600.979C181.227 601.225 180.884 601.348 180.456 601.348C180.028 601.348 179.683 601.225 179.419 600.979C179.161 600.732 179.032 600.416 179.032 600.029ZM186.512 612H183.963V598.5H186.512V612ZM191.293 612H188.744V602.49H191.293V612ZM188.595 600.029C188.595 599.648 188.721 599.335 188.973 599.089C189.23 598.843 189.579 598.72 190.019 598.72C190.452 598.72 190.798 598.843 191.056 599.089C191.313 599.335 191.442 599.648 191.442 600.029C191.442 600.416 191.311 600.732 191.047 600.979C190.789 601.225 190.446 601.348 190.019 601.348C189.591 601.348 189.245 601.225 188.981 600.979C188.724 600.732 188.595 600.416 188.595 600.029ZM196.435 600.152V602.49H198.061V604.354H196.435V609.1C196.435 609.451 196.502 609.703 196.637 609.855C196.771 610.008 197.029 610.084 197.41 610.084C197.691 610.084 197.94 610.063 198.157 610.022V611.947C197.659 612.1 197.146 612.176 196.619 612.176C194.838 612.176 193.93 611.276 193.895 609.478V604.354H192.506V602.49H193.895V600.152H196.435ZM203.026 608.405L204.784 602.49H207.509L203.686 613.477L203.475 613.978C202.906 615.22 201.969 615.841 200.662 615.841C200.293 615.841 199.918 615.785 199.537 615.674V613.749L199.924 613.758C200.404 613.758 200.762 613.685 200.996 613.538C201.236 613.392 201.424 613.148 201.559 612.809L201.857 612.026L198.526 602.49H201.26L203.026 608.405ZM216.034 600.152V602.49H217.66V604.354H216.034V609.1C216.034 609.451 216.102 609.703 216.236 609.855C216.371 610.008 216.629 610.084 217.01 610.084C217.291 610.084 217.54 610.063 217.757 610.022V611.947C217.259 612.1 216.746 612.176 216.219 612.176C214.438 612.176 213.529 611.276 213.494 609.478V604.354H212.105V602.49H213.494V600.152H216.034ZM223.452 612.176C222.058 612.176 220.921 611.748 220.042 610.893C219.169 610.037 218.732 608.897 218.732 607.474V607.228C218.732 606.272 218.917 605.42 219.286 604.67C219.655 603.914 220.177 603.334 220.851 602.93C221.53 602.52 222.304 602.314 223.171 602.314C224.472 602.314 225.494 602.725 226.238 603.545C226.988 604.365 227.363 605.528 227.363 607.034V608.071H221.308C221.39 608.692 221.636 609.19 222.046 609.565C222.462 609.94 222.986 610.128 223.619 610.128C224.598 610.128 225.362 609.773 225.913 609.064L227.161 610.462C226.78 611.001 226.265 611.423 225.614 611.728C224.964 612.026 224.243 612.176 223.452 612.176ZM223.162 604.371C222.658 604.371 222.248 604.541 221.932 604.881C221.621 605.221 221.422 605.707 221.334 606.34H224.867V606.138C224.855 605.575 224.703 605.142 224.41 604.837C224.117 604.526 223.701 604.371 223.162 604.371ZM233.964 609.372C233.964 609.062 233.809 608.818 233.498 608.643C233.193 608.461 232.701 608.3 232.021 608.159C229.76 607.685 228.629 606.724 228.629 605.276C228.629 604.433 228.978 603.729 229.675 603.167C230.378 602.599 231.295 602.314 232.426 602.314C233.633 602.314 234.597 602.599 235.317 603.167C236.044 603.735 236.407 604.474 236.407 605.382H233.867C233.867 605.019 233.75 604.72 233.516 604.485C233.281 604.245 232.915 604.125 232.417 604.125C231.989 604.125 231.658 604.222 231.424 604.415C231.189 604.608 231.072 604.854 231.072 605.153C231.072 605.435 231.204 605.663 231.468 605.839C231.737 606.009 232.188 606.158 232.821 606.287C233.454 606.41 233.987 606.551 234.421 606.709C235.763 607.201 236.434 608.054 236.434 609.267C236.434 610.134 236.062 610.837 235.317 611.376C234.573 611.909 233.612 612.176 232.435 612.176C231.638 612.176 230.929 612.035 230.308 611.754C229.692 611.467 229.209 611.077 228.857 610.585C228.506 610.087 228.33 609.551 228.33 608.977H230.738C230.762 609.428 230.929 609.773 231.239 610.014C231.55 610.254 231.966 610.374 232.487 610.374C232.974 610.374 233.34 610.283 233.586 610.102C233.838 609.914 233.964 609.671 233.964 609.372ZM241.118 600.152V602.49H242.744V604.354H241.118V609.1C241.118 609.451 241.186 609.703 241.32 609.855C241.455 610.008 241.713 610.084 242.094 610.084C242.375 610.084 242.624 610.063 242.841 610.022V611.947C242.343 612.1 241.83 612.176 241.303 612.176C239.521 612.176 238.613 611.276 238.578 609.478V604.354H237.189V602.49H238.578V600.152H241.118ZM249.31 609.372C249.31 609.062 249.154 608.818 248.844 608.643C248.539 608.461 248.047 608.3 247.367 608.159C245.105 607.685 243.975 606.724 243.975 605.276C243.975 604.433 244.323 603.729 245.021 603.167C245.724 602.599 246.641 602.314 247.771 602.314C248.979 602.314 249.942 602.599 250.663 603.167C251.39 603.735 251.753 604.474 251.753 605.382H249.213C249.213 605.019 249.096 604.72 248.861 604.485C248.627 604.245 248.261 604.125 247.763 604.125C247.335 604.125 247.004 604.222 246.77 604.415C246.535 604.608 246.418 604.854 246.418 605.153C246.418 605.435 246.55 605.663 246.813 605.839C247.083 606.009 247.534 606.158 248.167 606.287C248.8 606.41 249.333 606.551 249.767 606.709C251.108 607.201 251.779 608.054 251.779 609.267C251.779 610.134 251.407 610.837 250.663 611.376C249.919 611.909 248.958 612.176 247.78 612.176C246.983 612.176 246.274 612.035 245.653 611.754C245.038 611.467 244.555 611.077 244.203 610.585C243.852 610.087 243.676 609.551 243.676 608.977H246.084C246.107 609.428 246.274 609.773 246.585 610.014C246.896 610.254 247.312 610.374 247.833 610.374C248.319 610.374 248.686 610.283 248.932 610.102C249.184 609.914 249.31 609.671 249.31 609.372Z" fill="white"/>
<rect x="274" y="753" width="223" height="43" rx="10" fill="#2975F3"/>
<rect x="274" y="753" width="223" height="43" rx="10" fill="#4C81F7"/>
<path d="M319.367 778.363H314.744L313.865 781H311.062L315.825 768.203H318.269L323.059 781H320.255L319.367 778.363ZM315.456 776.228H318.655L317.047 771.438L315.456 776.228ZM328.042 779.128C328.511 779.128 328.892 778.999 329.185 778.741C329.478 778.483 329.63 778.141 329.642 777.713H332.023C332.018 778.357 331.842 778.949 331.496 779.488C331.15 780.021 330.676 780.438 330.072 780.736C329.475 781.029 328.812 781.176 328.086 781.176C326.727 781.176 325.654 780.745 324.869 779.884C324.084 779.017 323.691 777.821 323.691 776.298V776.131C323.691 774.666 324.081 773.497 324.86 772.624C325.64 771.751 326.709 771.314 328.068 771.314C329.258 771.314 330.21 771.654 330.925 772.334C331.646 773.008 332.012 773.907 332.023 775.032H329.642C329.63 774.54 329.478 774.142 329.185 773.837C328.892 773.526 328.505 773.371 328.024 773.371C327.433 773.371 326.984 773.588 326.68 774.021C326.381 774.449 326.231 775.146 326.231 776.113V776.377C326.231 777.355 326.381 778.059 326.68 778.486C326.979 778.914 327.433 779.128 328.042 779.128ZM337.429 779.128C337.897 779.128 338.278 778.999 338.571 778.741C338.864 778.483 339.017 778.141 339.028 777.713H341.41C341.404 778.357 341.229 778.949 340.883 779.488C340.537 780.021 340.062 780.438 339.459 780.736C338.861 781.029 338.199 781.176 337.473 781.176C336.113 781.176 335.041 780.745 334.256 779.884C333.471 779.017 333.078 777.821 333.078 776.298V776.131C333.078 774.666 333.468 773.497 334.247 772.624C335.026 771.751 336.096 771.314 337.455 771.314C338.645 771.314 339.597 771.654 340.312 772.334C341.032 773.008 341.398 773.907 341.41 775.032H339.028C339.017 774.54 338.864 774.142 338.571 773.837C338.278 773.526 337.892 773.371 337.411 773.371C336.819 773.371 336.371 773.588 336.066 774.021C335.768 774.449 335.618 775.146 335.618 776.113V776.377C335.618 777.355 335.768 778.059 336.066 778.486C336.365 778.914 336.819 779.128 337.429 779.128ZM347.237 781.176C345.843 781.176 344.706 780.748 343.827 779.893C342.954 779.037 342.518 777.897 342.518 776.474V776.228C342.518 775.272 342.702 774.42 343.071 773.67C343.44 772.914 343.962 772.334 344.636 771.93C345.315 771.52 346.089 771.314 346.956 771.314C348.257 771.314 349.279 771.725 350.023 772.545C350.773 773.365 351.148 774.528 351.148 776.034V777.071H345.093C345.175 777.692 345.421 778.19 345.831 778.565C346.247 778.94 346.771 779.128 347.404 779.128C348.383 779.128 349.147 778.773 349.698 778.064L350.946 779.462C350.565 780.001 350.05 780.423 349.399 780.728C348.749 781.026 348.028 781.176 347.237 781.176ZM346.947 773.371C346.443 773.371 346.033 773.541 345.717 773.881C345.406 774.221 345.207 774.707 345.119 775.34H348.652V775.138C348.641 774.575 348.488 774.142 348.195 773.837C347.902 773.526 347.486 773.371 346.947 773.371ZM357.749 778.372C357.749 778.062 357.594 777.818 357.283 777.643C356.979 777.461 356.486 777.3 355.807 777.159C353.545 776.685 352.414 775.724 352.414 774.276C352.414 773.433 352.763 772.729 353.46 772.167C354.163 771.599 355.08 771.314 356.211 771.314C357.418 771.314 358.382 771.599 359.103 772.167C359.829 772.735 360.192 773.474 360.192 774.382H357.652C357.652 774.019 357.535 773.72 357.301 773.485C357.066 773.245 356.7 773.125 356.202 773.125C355.774 773.125 355.443 773.222 355.209 773.415C354.975 773.608 354.857 773.854 354.857 774.153C354.857 774.435 354.989 774.663 355.253 774.839C355.522 775.009 355.974 775.158 356.606 775.287C357.239 775.41 357.772 775.551 358.206 775.709C359.548 776.201 360.219 777.054 360.219 778.267C360.219 779.134 359.847 779.837 359.103 780.376C358.358 780.909 357.397 781.176 356.22 781.176C355.423 781.176 354.714 781.035 354.093 780.754C353.478 780.467 352.994 780.077 352.643 779.585C352.291 779.087 352.115 778.551 352.115 777.977H354.523C354.547 778.428 354.714 778.773 355.024 779.014C355.335 779.254 355.751 779.374 356.272 779.374C356.759 779.374 357.125 779.283 357.371 779.102C357.623 778.914 357.749 778.671 357.749 778.372ZM367.013 778.372C367.013 778.062 366.857 777.818 366.547 777.643C366.242 777.461 365.75 777.3 365.07 777.159C362.809 776.685 361.678 775.724 361.678 774.276C361.678 773.433 362.026 772.729 362.724 772.167C363.427 771.599 364.344 771.314 365.475 771.314C366.682 771.314 367.646 771.599 368.366 772.167C369.093 772.735 369.456 773.474 369.456 774.382H366.916C366.916 774.019 366.799 773.72 366.564 773.485C366.33 773.245 365.964 773.125 365.466 773.125C365.038 773.125 364.707 773.222 364.473 773.415C364.238 773.608 364.121 773.854 364.121 774.153C364.121 774.435 364.253 774.663 364.517 774.839C364.786 775.009 365.237 775.158 365.87 775.287C366.503 775.41 367.036 775.551 367.47 775.709C368.812 776.201 369.482 777.054 369.482 778.267C369.482 779.134 369.11 779.837 368.366 780.376C367.622 780.909 366.661 781.176 365.483 781.176C364.687 781.176 363.978 781.035 363.356 780.754C362.741 780.467 362.258 780.077 361.906 779.585C361.555 779.087 361.379 778.551 361.379 777.977H363.787C363.811 778.428 363.978 778.773 364.288 779.014C364.599 779.254 365.015 779.374 365.536 779.374C366.022 779.374 366.389 779.283 366.635 779.102C366.887 778.914 367.013 778.671 367.013 778.372ZM373.807 781H371.258V771.49H373.807V781ZM371.108 769.029C371.108 768.648 371.234 768.335 371.486 768.089C371.744 767.843 372.093 767.72 372.532 767.72C372.966 767.72 373.312 767.843 373.569 768.089C373.827 768.335 373.956 768.648 373.956 769.029C373.956 769.416 373.824 769.732 373.561 769.979C373.303 770.225 372.96 770.348 372.532 770.348C372.104 770.348 371.759 770.225 371.495 769.979C371.237 769.732 371.108 769.416 371.108 769.029ZM384.477 776.333C384.477 777.856 384.151 779.046 383.501 779.901C382.851 780.751 381.942 781.176 380.776 781.176C379.745 781.176 378.922 780.78 378.307 779.989L378.192 781H375.907V767.5H378.447V772.343C379.033 771.657 379.804 771.314 380.759 771.314C381.919 771.314 382.827 771.742 383.483 772.598C384.146 773.447 384.477 774.646 384.477 776.192V776.333ZM381.937 776.148C381.937 775.188 381.784 774.487 381.479 774.048C381.175 773.603 380.721 773.38 380.117 773.38C379.309 773.38 378.752 773.711 378.447 774.373V778.126C378.758 778.794 379.32 779.128 380.135 779.128C380.955 779.128 381.494 778.724 381.752 777.915C381.875 777.528 381.937 776.939 381.937 776.148ZM388.73 781H386.182V771.49H388.73V781ZM386.032 769.029C386.032 768.648 386.158 768.335 386.41 768.089C386.668 767.843 387.017 767.72 387.456 767.72C387.89 767.72 388.235 767.843 388.493 768.089C388.751 768.335 388.88 768.648 388.88 769.029C388.88 769.416 388.748 769.732 388.484 769.979C388.227 770.225 387.884 770.348 387.456 770.348C387.028 770.348 386.683 770.225 386.419 769.979C386.161 769.732 386.032 769.416 386.032 769.029ZM393.512 781H390.963V767.5H393.512V781ZM398.293 781H395.744V771.49H398.293V781ZM395.595 769.029C395.595 768.648 395.721 768.335 395.973 768.089C396.23 767.843 396.579 767.72 397.019 767.72C397.452 767.72 397.798 767.843 398.056 768.089C398.313 768.335 398.442 768.648 398.442 769.029C398.442 769.416 398.311 769.732 398.047 769.979C397.789 770.225 397.446 770.348 397.019 770.348C396.591 770.348 396.245 770.225 395.981 769.979C395.724 769.732 395.595 769.416 395.595 769.029ZM403.435 769.152V771.49H405.061V773.354H403.435V778.1C403.435 778.451 403.502 778.703 403.637 778.855C403.771 779.008 404.029 779.084 404.41 779.084C404.691 779.084 404.94 779.063 405.157 779.022V780.947C404.659 781.1 404.146 781.176 403.619 781.176C401.838 781.176 400.93 780.276 400.895 778.478V773.354H399.506V771.49H400.895V769.152H403.435ZM410.026 777.405L411.784 771.49H414.509L410.686 782.477L410.475 782.978C409.906 784.22 408.969 784.841 407.662 784.841C407.293 784.841 406.918 784.785 406.537 784.674V782.749L406.924 782.758C407.404 782.758 407.762 782.685 407.996 782.538C408.236 782.392 408.424 782.148 408.559 781.809L408.857 781.026L405.526 771.49H408.26L410.026 777.405ZM425.504 781C425.387 780.771 425.302 780.487 425.249 780.147C424.634 780.833 423.834 781.176 422.85 781.176C421.918 781.176 421.145 780.906 420.529 780.367C419.92 779.828 419.615 779.148 419.615 778.328C419.615 777.32 419.987 776.547 420.731 776.008C421.481 775.469 422.562 775.196 423.975 775.19H425.144V774.646C425.144 774.206 425.029 773.854 424.801 773.591C424.578 773.327 424.224 773.195 423.737 773.195C423.31 773.195 422.973 773.298 422.727 773.503C422.486 773.708 422.366 773.989 422.366 774.347H419.826C419.826 773.796 419.996 773.286 420.336 772.817C420.676 772.349 421.156 771.982 421.777 771.719C422.398 771.449 423.096 771.314 423.869 771.314C425.041 771.314 425.97 771.61 426.655 772.202C427.347 772.788 427.692 773.614 427.692 774.681V778.803C427.698 779.705 427.824 780.388 428.07 780.851V781H425.504ZM423.403 779.233C423.778 779.233 424.124 779.151 424.44 778.987C424.757 778.817 424.991 778.592 425.144 778.311V776.676H424.194C422.923 776.676 422.246 777.115 422.164 777.994L422.155 778.144C422.155 778.46 422.267 778.721 422.489 778.926C422.712 779.131 423.017 779.233 423.403 779.233ZM435.339 780.033C434.712 780.795 433.845 781.176 432.737 781.176C431.718 781.176 430.938 780.883 430.399 780.297C429.866 779.711 429.594 778.853 429.582 777.722V771.49H432.122V777.634C432.122 778.624 432.573 779.119 433.476 779.119C434.337 779.119 434.929 778.82 435.251 778.223V771.49H437.8V781H435.409L435.339 780.033ZM439.32 776.175C439.32 774.692 439.651 773.512 440.313 772.633C440.981 771.754 441.893 771.314 443.047 771.314C443.973 771.314 444.737 771.66 445.341 772.352V767.5H447.89V781H445.596L445.473 779.989C444.84 780.78 444.025 781.176 443.029 781.176C441.91 781.176 441.011 780.736 440.331 779.857C439.657 778.973 439.32 777.745 439.32 776.175ZM441.86 776.359C441.86 777.25 442.016 777.933 442.326 778.407C442.637 778.882 443.088 779.119 443.68 779.119C444.465 779.119 445.019 778.788 445.341 778.126V774.373C445.024 773.711 444.477 773.38 443.697 773.38C442.473 773.38 441.86 774.373 441.86 776.359ZM452.539 781H449.99V771.49H452.539V781ZM449.841 769.029C449.841 768.648 449.967 768.335 450.219 768.089C450.477 767.843 450.825 767.72 451.265 767.72C451.698 767.72 452.044 767.843 452.302 768.089C452.56 768.335 452.688 768.648 452.688 769.029C452.688 769.416 452.557 769.732 452.293 769.979C452.035 770.225 451.692 770.348 451.265 770.348C450.837 770.348 450.491 770.225 450.228 769.979C449.97 769.732 449.841 769.416 449.841 769.029ZM457.681 769.152V771.49H459.307V773.354H457.681V778.1C457.681 778.451 457.748 778.703 457.883 778.855C458.018 779.008 458.275 779.084 458.656 779.084C458.938 779.084 459.187 779.063 459.403 779.022V780.947C458.905 781.1 458.393 781.176 457.865 781.176C456.084 781.176 455.176 780.276 455.141 778.478V773.354H453.752V771.49H455.141V769.152H457.681ZM465.872 778.372C465.872 778.062 465.717 777.818 465.406 777.643C465.102 777.461 464.609 777.3 463.93 777.159C461.668 776.685 460.537 775.724 460.537 774.276C460.537 773.433 460.886 772.729 461.583 772.167C462.286 771.599 463.203 771.314 464.334 771.314C465.541 771.314 466.505 771.599 467.226 772.167C467.952 772.735 468.315 773.474 468.315 774.382H465.775C465.775 774.019 465.658 773.72 465.424 773.485C465.189 773.245 464.823 773.125 464.325 773.125C463.897 773.125 463.566 773.222 463.332 773.415C463.098 773.608 462.98 773.854 462.98 774.153C462.98 774.435 463.112 774.663 463.376 774.839C463.646 775.009 464.097 775.158 464.729 775.287C465.362 775.41 465.896 775.551 466.329 775.709C467.671 776.201 468.342 777.054 468.342 778.267C468.342 779.134 467.97 779.837 467.226 780.376C466.481 780.909 465.521 781.176 464.343 781.176C463.546 781.176 462.837 781.035 462.216 780.754C461.601 780.467 461.117 780.077 460.766 779.585C460.414 779.087 460.238 778.551 460.238 777.977H462.646C462.67 778.428 462.837 778.773 463.147 779.014C463.458 779.254 463.874 779.374 464.396 779.374C464.882 779.374 465.248 779.283 465.494 779.102C465.746 778.914 465.872 778.671 465.872 778.372Z" fill="white"/>
<path d="M144.842 896.771H139.779V902H137.143V889.203H145.475V891.339H139.779V894.644H144.842V896.771ZM151.021 902.176C149.626 902.176 148.489 901.748 147.61 900.893C146.737 900.037 146.301 898.897 146.301 897.474V897.228C146.301 896.272 146.485 895.42 146.854 894.67C147.224 893.914 147.745 893.334 148.419 892.93C149.099 892.52 149.872 892.314 150.739 892.314C152.04 892.314 153.062 892.725 153.807 893.545C154.557 894.365 154.932 895.528 154.932 897.034V898.071H148.876C148.958 898.692 149.204 899.19 149.614 899.565C150.03 899.94 150.555 900.128 151.188 900.128C152.166 900.128 152.931 899.773 153.481 899.064L154.729 900.462C154.349 901.001 153.833 901.423 153.183 901.728C152.532 902.026 151.812 902.176 151.021 902.176ZM150.73 894.371C150.227 894.371 149.816 894.541 149.5 894.881C149.189 895.221 148.99 895.707 148.902 896.34H152.436V896.138C152.424 895.575 152.271 895.142 151.979 894.837C151.686 894.526 151.27 894.371 150.73 894.371ZM161.893 902C161.775 901.771 161.69 901.487 161.638 901.147C161.022 901.833 160.223 902.176 159.238 902.176C158.307 902.176 157.533 901.906 156.918 901.367C156.309 900.828 156.004 900.148 156.004 899.328C156.004 898.32 156.376 897.547 157.12 897.008C157.87 896.469 158.951 896.196 160.363 896.19H161.532V895.646C161.532 895.206 161.418 894.854 161.189 894.591C160.967 894.327 160.612 894.195 160.126 894.195C159.698 894.195 159.361 894.298 159.115 894.503C158.875 894.708 158.755 894.989 158.755 895.347H156.215C156.215 894.796 156.385 894.286 156.725 893.817C157.064 893.349 157.545 892.982 158.166 892.719C158.787 892.449 159.484 892.314 160.258 892.314C161.43 892.314 162.358 892.61 163.044 893.202C163.735 893.788 164.081 894.614 164.081 895.681V899.803C164.087 900.705 164.213 901.388 164.459 901.851V902H161.893ZM159.792 900.233C160.167 900.233 160.513 900.151 160.829 899.987C161.146 899.817 161.38 899.592 161.532 899.311V897.676H160.583C159.312 897.676 158.635 898.115 158.553 898.994L158.544 899.144C158.544 899.46 158.655 899.721 158.878 899.926C159.101 900.131 159.405 900.233 159.792 900.233ZM169.073 890.152V892.49H170.699V894.354H169.073V899.1C169.073 899.451 169.141 899.703 169.275 899.855C169.41 900.008 169.668 900.084 170.049 900.084C170.33 900.084 170.579 900.063 170.796 900.022V901.947C170.298 902.1 169.785 902.176 169.258 902.176C167.477 902.176 166.568 901.276 166.533 899.478V894.354H165.145V892.49H166.533V890.152H169.073ZM177.81 901.033C177.183 901.795 176.315 902.176 175.208 902.176C174.188 902.176 173.409 901.883 172.87 901.297C172.337 900.711 172.064 899.853 172.053 898.722V892.49H174.593V898.634C174.593 899.624 175.044 900.119 175.946 900.119C176.808 900.119 177.399 899.82 177.722 899.223V892.49H180.271V902H177.88L177.81 901.033ZM187.53 894.872C187.185 894.825 186.88 894.802 186.616 894.802C185.655 894.802 185.025 895.127 184.727 895.777V902H182.187V892.49H184.586L184.656 893.624C185.166 892.751 185.872 892.314 186.774 892.314C187.056 892.314 187.319 892.353 187.565 892.429L187.53 894.872ZM192.962 902.176C191.567 902.176 190.431 901.748 189.552 900.893C188.679 900.037 188.242 898.897 188.242 897.474V897.228C188.242 896.272 188.427 895.42 188.796 894.67C189.165 893.914 189.687 893.334 190.36 892.93C191.04 892.52 191.813 892.314 192.681 892.314C193.981 892.314 195.004 892.725 195.748 893.545C196.498 894.365 196.873 895.528 196.873 897.034V898.071H190.817C190.899 898.692 191.146 899.19 191.556 899.565C191.972 899.94 192.496 900.128 193.129 900.128C194.107 900.128 194.872 899.773 195.423 899.064L196.671 900.462C196.29 901.001 195.774 901.423 195.124 901.728C194.474 902.026 193.753 902.176 192.962 902.176ZM192.672 894.371C192.168 894.371 191.758 894.541 191.441 894.881C191.131 895.221 190.932 895.707 190.844 896.34H194.377V896.138C194.365 895.575 194.213 895.142 193.92 894.837C193.627 894.526 193.211 894.371 192.672 894.371ZM209.178 890.469C208.674 890.41 208.205 890.381 207.771 890.381C206.623 890.381 206.049 890.87 206.049 891.849V892.49H207.938V894.354H206.049V902H203.5V894.354H202.085V892.49H203.5V891.752C203.512 890.65 203.857 889.804 204.537 889.212C205.217 888.614 206.178 888.315 207.42 888.315C208.305 888.315 209.74 888.409 211.727 888.597V902H209.178V890.469ZM219.355 902C219.238 901.771 219.153 901.487 219.101 901.147C218.485 901.833 217.686 902.176 216.701 902.176C215.77 902.176 214.996 901.906 214.381 901.367C213.771 900.828 213.467 900.148 213.467 899.328C213.467 898.32 213.839 897.547 214.583 897.008C215.333 896.469 216.414 896.196 217.826 896.19H218.995V895.646C218.995 895.206 218.881 894.854 218.652 894.591C218.43 894.327 218.075 894.195 217.589 894.195C217.161 894.195 216.824 894.298 216.578 894.503C216.338 894.708 216.218 894.989 216.218 895.347H213.678C213.678 894.796 213.848 894.286 214.188 893.817C214.527 893.349 215.008 892.982 215.629 892.719C216.25 892.449 216.947 892.314 217.721 892.314C218.893 892.314 219.821 892.61 220.507 893.202C221.198 893.788 221.544 894.614 221.544 895.681V899.803C221.55 900.705 221.676 901.388 221.922 901.851V902H219.355ZM217.255 900.233C217.63 900.233 217.976 900.151 218.292 899.987C218.608 899.817 218.843 899.592 218.995 899.311V897.676H218.046C216.774 897.676 216.098 898.115 216.016 898.994L216.007 899.144C216.007 899.46 216.118 899.721 216.341 899.926C216.563 900.131 216.868 900.233 217.255 900.233ZM223.126 897.175C223.126 895.716 223.472 894.541 224.163 893.65C224.86 892.76 225.798 892.314 226.976 892.314C228.019 892.314 228.83 892.672 229.41 893.387L229.516 892.49H231.818V901.684C231.818 902.516 231.628 903.239 231.247 903.854C230.872 904.47 230.342 904.938 229.656 905.261C228.971 905.583 228.168 905.744 227.248 905.744C226.551 905.744 225.871 905.604 225.209 905.322C224.547 905.047 224.046 904.689 223.706 904.25L224.831 902.703C225.464 903.412 226.231 903.767 227.134 903.767C227.808 903.767 228.332 903.585 228.707 903.222C229.082 902.864 229.27 902.354 229.27 901.692V901.183C228.684 901.845 227.913 902.176 226.958 902.176C225.815 902.176 224.89 901.73 224.181 900.84C223.478 899.943 223.126 898.757 223.126 897.28V897.175ZM225.666 897.359C225.666 898.221 225.839 898.897 226.185 899.39C226.53 899.876 227.005 900.119 227.608 900.119C228.382 900.119 228.936 899.829 229.27 899.249V895.25C228.93 894.67 228.382 894.38 227.626 894.38C227.017 894.38 226.536 894.629 226.185 895.127C225.839 895.625 225.666 896.369 225.666 897.359ZM238.929 899.372C238.929 899.062 238.773 898.818 238.463 898.643C238.158 898.461 237.666 898.3 236.986 898.159C234.725 897.685 233.594 896.724 233.594 895.276C233.594 894.433 233.942 893.729 234.64 893.167C235.343 892.599 236.26 892.314 237.391 892.314C238.598 892.314 239.562 892.599 240.282 893.167C241.009 893.735 241.372 894.474 241.372 895.382H238.832C238.832 895.019 238.715 894.72 238.48 894.485C238.246 894.245 237.88 894.125 237.382 894.125C236.954 894.125 236.623 894.222 236.389 894.415C236.154 894.608 236.037 894.854 236.037 895.153C236.037 895.435 236.169 895.663 236.433 895.839C236.702 896.009 237.153 896.158 237.786 896.287C238.419 896.41 238.952 896.551 239.386 896.709C240.728 897.201 241.398 898.054 241.398 899.267C241.398 900.134 241.026 900.837 240.282 901.376C239.538 901.909 238.577 902.176 237.399 902.176C236.603 902.176 235.894 902.035 235.272 901.754C234.657 901.467 234.174 901.077 233.822 900.585C233.471 900.087 233.295 899.551 233.295 898.977H235.703C235.727 899.428 235.894 899.773 236.204 900.014C236.515 900.254 236.931 900.374 237.452 900.374C237.938 900.374 238.305 900.283 238.551 900.102C238.803 899.914 238.929 899.671 238.929 899.372Z" fill="white"/>
</svg>
