<svg width="1096" height="467" viewBox="0 0 1096 467" fill="none" xmlns="http://www.w3.org/2000/svg">
<g clip-path="url(#clip0)">
<rect width="1095.93" height="467.013" rx="10" fill="#E5ECF7"/>
<rect x="120.127" y="243.276" width="124.358" height="69.4612" rx="10" fill="#4A79DF"/>
<path d="M156.9 290.506L165.549 266.512H162.068L155.406 286.551H155.301L148.604 266.512H145.105L153.736 290.506H156.9ZM168.555 267.584C168.555 268.657 169.416 269.5 170.488 269.5C171.561 269.5 172.439 268.657 172.439 267.584C172.439 266.495 171.561 265.651 170.488 265.651C169.416 265.651 168.555 266.495 168.555 267.584ZM168.977 290.506H172V272.032H168.977V290.506ZM184.604 290.805C188.682 290.805 191.125 288.538 191.828 285.479H188.822C188.225 287.202 186.818 288.274 184.674 288.274C181.668 288.274 179.875 285.866 179.875 282.35V282.016H192.074V280.293C192.074 275.213 189.297 271.733 184.463 271.733C179.611 271.733 176.852 275.213 176.852 280.083V282.157C176.852 287.413 179.787 290.805 184.604 290.805ZM179.875 279.573V279.52C179.875 276.602 181.668 274.264 184.48 274.264C187.24 274.264 189.051 276.584 189.051 279.52V279.573H179.875ZM219.092 272.032H216.033L212.641 286.639H212.5L208.316 272.032H205.434L201.268 286.639H201.127L197.734 272.032H194.676L199.492 290.506H202.639L206.84 276.268H206.91L211.129 290.506H214.258L219.092 272.032Z" fill="white"/>
<path d="M349.218 279.421C350 278.64 350 277.373 349.218 276.592L336.491 263.864C335.71 263.083 334.443 263.083 333.662 263.864C332.881 264.645 332.881 265.912 333.662 266.693L344.976 278.006L333.662 289.32C332.881 290.101 332.881 291.367 333.662 292.148C334.443 292.93 335.71 292.93 336.491 292.148L349.218 279.421ZM267.001 280.006H347.804V276.006H267.001V280.006Z" fill="black"/>
<rect x="598.865" y="243.276" width="124.358" height="69.4612" rx="10" fill="#4A79DF"/>
<path d="M613.856 290.506L616.282 283.299H625.212L627.638 290.506H630.872L622.329 266.512H619.2L610.657 290.506H613.856ZM620.8 270.133L624.386 280.821H617.108L620.712 270.133H620.8ZM633.263 282.104C633.263 287.026 636.022 290.805 640.927 290.805C645.163 290.805 647.483 288.59 648.099 285.426H645.128C644.794 286.903 643.44 288.133 641.138 288.133C638.185 288.133 636.286 285.743 636.286 282.122V280.399C636.286 276.672 638.062 274.405 641.12 274.405C643.124 274.405 644.583 275.829 644.987 277.393H647.958C647.8 274.563 645.198 271.733 640.927 271.733C636.11 271.733 633.263 275.301 633.263 280.276V282.104ZM653.97 272.032H651.474V274.563H653.952V285.338C653.952 288.977 654.849 290.665 659.226 290.665C659.858 290.665 660.491 290.594 660.755 290.542V288.116C660.509 288.151 660.28 288.151 659.981 288.151C657.714 288.151 656.976 287.588 656.976 285.374V274.563H660.632V272.032H656.976V267.426H653.97V272.032ZM665.044 267.584C665.044 268.657 665.905 269.5 666.978 269.5C668.05 269.5 668.929 268.657 668.929 267.584C668.929 266.495 668.05 265.651 666.978 265.651C665.905 265.651 665.044 266.495 665.044 267.584ZM665.466 290.506H668.489V272.032H665.466V290.506ZM681.286 271.733C676.118 271.733 673.341 275.477 673.341 280.417V282.069C673.341 287.079 676.101 290.805 681.286 290.805C686.472 290.805 689.196 287.079 689.196 282.069V280.417C689.196 275.477 686.454 271.733 681.286 271.733ZM681.286 274.317C684.45 274.317 686.173 276.743 686.173 280.522V281.963C686.173 285.743 684.45 288.186 681.286 288.186C678.104 288.186 676.364 285.725 676.364 281.963V280.522C676.364 276.743 678.104 274.317 681.286 274.317ZM693.872 290.506H696.896V279.256C696.896 276.725 698.267 274.475 701.448 274.475C704.138 274.475 705.966 276.057 705.966 279.168V290.506H708.989V278.659C708.989 274.159 706.159 271.733 702.362 271.733C699.356 271.733 697.651 273.297 696.966 274.475H696.878V272.032H693.872V290.506Z" fill="white"/>
<rect x="848.709" y="243.276" width="124.358" height="69.4612" rx="10" fill="#4A79DF"/>
<path d="M870.461 284.038C870.549 287.149 872.746 291.016 879.109 291.016C884.102 291.016 888.057 288.555 888.057 283.827C888.057 279.977 885.508 278.272 881.816 277.305L877.668 276.198C875.365 275.618 874.293 274.352 874.293 272.647C874.293 270.081 876.455 268.657 879.426 268.657C882.783 268.657 884.541 270.467 884.752 272.77H887.793C887.688 268.112 883.574 265.95 879.496 265.95C875.189 265.95 871.182 268.358 871.182 272.858C871.182 276.602 873.941 278.413 876.789 279.151L881.008 280.258C883.68 280.944 884.928 282.069 884.928 284.055C884.928 286.674 882.783 288.292 879.443 288.292C875.752 288.292 873.766 286.358 873.537 284.038H870.461ZM894.051 272.032H891.555V274.563H894.033V285.338C894.033 288.977 894.93 290.665 899.307 290.665C899.939 290.665 900.572 290.594 900.836 290.542V288.116C900.59 288.151 900.361 288.151 900.062 288.151C897.795 288.151 897.057 287.588 897.057 285.374V274.563H900.713V272.032H897.057V267.426H894.051V272.032ZM915.303 288.204H915.391V290.506H918.291V277.762C918.291 273.877 915.426 271.733 911.488 271.733C907.023 271.733 904.826 274.088 904.633 277.323H907.48C907.656 275.477 909.01 274.264 911.383 274.264C913.879 274.264 915.285 275.6 915.285 278.026V279.907H910.416C906.18 279.924 903.93 281.963 903.93 285.198C903.93 288.59 906.391 290.805 909.959 290.805C912.684 290.805 914.371 289.698 915.303 288.204ZM910.768 288.292C908.834 288.292 907.023 287.272 907.023 285.092C907.023 283.422 908.113 282.227 910.645 282.227H915.285V284.372C915.285 286.674 913.352 288.292 910.768 288.292ZM924.637 272.032H922.141V274.563H924.619V285.338C924.619 288.977 925.516 290.665 929.893 290.665C930.525 290.665 931.158 290.594 931.422 290.542V288.116C931.176 288.151 930.947 288.151 930.648 288.151C928.381 288.151 927.643 287.588 927.643 285.374V274.563H931.299V272.032H927.643V267.426H924.637V272.032ZM942.584 290.805C946.662 290.805 949.105 288.538 949.809 285.479H946.803C946.205 287.202 944.799 288.274 942.654 288.274C939.648 288.274 937.855 285.866 937.855 282.35V282.016H950.055V280.293C950.055 275.213 947.277 271.733 942.443 271.733C937.592 271.733 934.832 275.213 934.832 280.083V282.157C934.832 287.413 937.768 290.805 942.584 290.805ZM937.855 279.573V279.52C937.855 276.602 939.648 274.264 942.461 274.264C945.221 274.264 947.031 276.584 947.031 279.52V279.573H937.855Z" fill="white"/>
<path d="M827.956 279.421C828.737 278.64 828.737 277.373 827.956 276.592L815.228 263.864C814.447 263.083 813.181 263.083 812.399 263.864C811.618 264.645 811.618 265.912 812.399 266.693L823.713 278.006L812.399 289.32C811.618 290.101 811.618 291.367 812.399 292.148C813.181 292.93 814.447 292.93 815.228 292.148L827.956 279.421ZM745.739 280.006H826.542V276.006H745.739V280.006Z" fill="black"/>
<path d="M578.111 279.421C578.892 278.64 578.892 277.373 578.111 276.592L565.383 263.864C564.602 263.083 563.335 263.083 562.554 263.864C561.773 264.645 561.773 265.912 562.554 266.693L573.868 278.006L562.554 289.32C561.773 290.101 561.773 291.367 562.554 292.148C563.335 292.93 564.602 292.93 565.383 292.148L578.111 279.421ZM495.894 280.006H576.696V276.006H495.894V280.006Z" fill="black"/>
<path d="M909.023 106.2L911.023 106.2L911.023 104.2L909.023 104.2L909.023 106.2ZM179.434 106.2L179.434 104.2L177.434 104.2L177.434 106.2L179.434 106.2ZM178.02 217.272C178.801 218.053 180.067 218.053 180.848 217.272L193.576 204.544C194.357 203.763 194.357 202.497 193.576 201.716C192.795 200.935 191.529 200.935 190.747 201.716L179.434 213.029L168.12 201.716C167.339 200.935 166.073 200.935 165.292 201.716C164.511 202.497 164.511 203.763 165.292 204.544L178.02 217.272ZM911.023 215.859L911.023 106.2L907.023 106.2L907.023 215.859L911.023 215.859ZM909.023 104.2L179.434 104.2L179.434 108.2L909.023 108.2L909.023 104.2ZM177.434 106.2L177.434 215.858L181.434 215.858L181.434 106.2L177.434 106.2Z" fill="black"/>
<path d="M477.927 82.5713L483.693 66.5752H481.373L476.931 79.9346H476.861L472.396 66.5752H470.064L475.818 82.5713H477.927ZM485.697 67.29C485.697 68.0049 486.271 68.5674 486.986 68.5674C487.701 68.5674 488.287 68.0049 488.287 67.29C488.287 66.5635 487.701 66.001 486.986 66.001C486.271 66.001 485.697 66.5635 485.697 67.29ZM485.978 82.5713H487.994V70.2549H485.978V82.5713ZM496.396 82.7705C499.115 82.7705 500.744 81.2588 501.212 79.2197H499.208C498.81 80.3682 497.873 81.083 496.443 81.083C494.439 81.083 493.244 79.4775 493.244 77.1338V76.9111H501.376V75.7627C501.376 72.376 499.525 70.0557 496.302 70.0557C493.068 70.0557 491.228 72.376 491.228 75.6221V77.0049C491.228 80.5088 493.185 82.7705 496.396 82.7705ZM493.244 75.2822V75.2471C493.244 73.3018 494.439 71.7432 496.314 71.7432C498.154 71.7432 499.361 73.29 499.361 75.2471V75.2822H493.244ZM519.388 70.2549H517.349L515.087 79.9932H514.994L512.205 70.2549H510.283L507.505 79.9932H507.412L505.15 70.2549H503.111L506.322 82.5713H508.419L511.22 73.0791H511.267L514.08 82.5713H516.166L519.388 70.2549ZM536.275 70.2549H534.248V77.8838C534.248 79.8408 533.005 80.9541 531.236 80.9541C529.619 80.9541 528.294 80.2158 528.294 77.9189V70.2549H526.267V78.4932C526.267 81.3174 528.083 82.7705 530.626 82.7705C532.595 82.7705 533.755 81.9268 534.189 80.9541H534.271V82.5713H536.275V70.2549ZM545.439 82.7705C548.333 82.7705 550.349 80.5791 550.349 76.9814V75.8447C550.349 72.2002 548.298 70.0674 545.521 70.0674C543.869 70.0674 542.603 70.8643 541.888 72.0244H541.83V70.2549H539.896V86.6611H541.912V80.9307H541.97C542.662 82.0205 543.869 82.7705 545.439 82.7705ZM545.24 81.0127C543.142 81.0127 541.876 79.3486 541.876 76.8291V75.9033C541.876 73.4541 543.13 71.8018 545.181 71.8018C547.173 71.8018 548.322 73.3252 548.322 75.915V76.8291C548.322 79.5361 547.08 81.0127 545.24 81.0127ZM557.884 70.0674C554.779 70.0674 552.962 72.5049 552.962 75.8564V76.9697C552.962 80.4033 554.673 82.7588 557.884 82.7588C559.537 82.7588 560.826 81.9854 561.517 80.7197H561.564V82.5713H563.498V65.7314H561.482V71.9658H561.423C560.802 70.876 559.513 70.0674 557.884 70.0674ZM558.166 71.8252C560.24 71.8252 561.517 73.4424 561.517 75.9268V76.9111C561.517 79.5244 560.263 81.001 558.201 81.001C556.337 81.001 554.99 79.6416 554.99 76.8994V75.9268C554.99 73.1846 556.337 71.8252 558.166 71.8252ZM573.998 81.0361H574.056V82.5713H575.99V74.0752C575.99 71.4854 574.08 70.0557 571.455 70.0557C568.478 70.0557 567.013 71.626 566.884 73.7822H568.783C568.9 72.5518 569.802 71.7432 571.384 71.7432C573.048 71.7432 573.986 72.6338 573.986 74.251V75.5049H570.74C567.916 75.5166 566.416 76.876 566.416 79.0322C566.416 81.2939 568.056 82.7705 570.435 82.7705C572.251 82.7705 573.376 82.0322 573.998 81.0361ZM570.974 81.0947C569.685 81.0947 568.478 80.415 568.478 78.9619C568.478 77.8486 569.205 77.0518 570.892 77.0518H573.986V78.4814C573.986 80.0166 572.697 81.0947 570.974 81.0947ZM580.22 70.2549H578.556V71.9424H580.208V79.126C580.208 81.5518 580.806 82.6768 583.724 82.6768C584.146 82.6768 584.568 82.6299 584.744 82.5947V80.9775C584.58 81.001 584.427 81.001 584.228 81.001C582.716 81.001 582.224 80.626 582.224 79.1494V71.9424H584.662V70.2549H582.224V67.1846H580.22V70.2549ZM592.185 82.7705C594.904 82.7705 596.533 81.2588 597.001 79.2197H594.998C594.599 80.3682 593.662 81.083 592.232 81.083C590.228 81.083 589.033 79.4775 589.033 77.1338V76.9111H597.166V75.7627C597.166 72.376 595.314 70.0557 592.091 70.0557C588.857 70.0557 587.017 72.376 587.017 75.6221V77.0049C587.017 80.5088 588.974 82.7705 592.185 82.7705ZM589.033 75.2822V75.2471C589.033 73.3018 590.228 71.7432 592.103 71.7432C593.943 71.7432 595.15 73.29 595.15 75.2471V75.2822H589.033Z" fill="black"/>
<path d="M274.701 228.51H268.923V244.506H270.962V238.143H274.841L277.794 244.506H280.126L276.869 237.733C278.275 237.229 279.845 235.905 279.845 233.28C279.845 230.772 278.263 228.51 274.701 228.51ZM270.962 236.35V230.315H274.443C276.435 230.315 277.736 231.358 277.736 233.397C277.736 235.284 276.587 236.35 274.349 236.35H270.962ZM287.697 244.706C290.416 244.706 292.044 243.194 292.513 241.155H290.509C290.111 242.303 289.173 243.018 287.744 243.018C285.74 243.018 284.544 241.413 284.544 239.069V238.846H292.677V237.698C292.677 234.311 290.826 231.991 287.603 231.991C284.369 231.991 282.529 234.311 282.529 237.557V238.94C282.529 242.444 284.486 244.706 287.697 244.706ZM284.544 237.217V237.182C284.544 235.237 285.74 233.678 287.615 233.678C289.455 233.678 290.662 235.225 290.662 237.182V237.217H284.544ZM295.724 244.506H297.74V237.006C297.74 235.319 298.654 233.819 300.775 233.819C302.568 233.819 303.787 234.874 303.787 236.948V244.506H305.802V236.608C305.802 233.608 303.916 231.991 301.384 231.991C299.38 231.991 298.244 233.034 297.787 233.819H297.728V232.19H295.724V244.506ZM313.63 232.002C310.525 232.002 308.708 234.44 308.708 237.792V238.905C308.708 242.338 310.419 244.694 313.63 244.694C315.283 244.694 316.572 243.92 317.263 242.655H317.31V244.506H319.244V227.667H317.228V233.901H317.169C316.548 232.811 315.259 232.002 313.63 232.002ZM313.912 233.76C315.986 233.76 317.263 235.377 317.263 237.862V238.846C317.263 241.459 316.009 242.936 313.947 242.936C312.083 242.936 310.736 241.577 310.736 238.834V237.862C310.736 235.12 312.083 233.76 313.912 233.76ZM327.541 244.706C330.259 244.706 331.888 243.194 332.357 241.155H330.353C329.955 242.303 329.017 243.018 327.587 243.018C325.583 243.018 324.388 241.413 324.388 239.069V238.846H332.521V237.698C332.521 234.311 330.669 231.991 327.447 231.991C324.212 231.991 322.373 234.311 322.373 237.557V238.94C322.373 242.444 324.33 244.706 327.541 244.706ZM324.388 237.217V237.182C324.388 235.237 325.583 233.678 327.458 233.678C329.298 233.678 330.505 235.225 330.505 237.182V237.217H324.388ZM335.568 244.506H337.595V236.877C337.595 235.213 338.275 233.854 340.455 233.854C340.83 233.854 341.228 233.866 341.439 233.901V232.061C341.193 232.026 340.935 232.002 340.677 232.002C338.931 232.002 338.005 232.963 337.642 233.702H337.583V232.19H335.568V244.506Z" fill="black"/>
<path d="M500.269 211.51H498.242V222.186C498.242 225.491 500.503 227.846 504.3 227.846C508.109 227.846 510.371 225.491 510.371 222.186V211.51H508.343V221.917C508.343 224.401 506.761 226.006 504.3 226.006C501.851 226.006 500.269 224.413 500.269 221.917V211.51ZM513.406 218.717C513.406 220.944 515.292 221.647 517.589 222.116C519.312 222.456 520.683 222.725 520.683 224.12C520.683 225.163 519.828 226.053 517.941 226.053C516.3 226.053 515.339 225.315 515.164 224.19H513.195C513.195 226.405 515.082 227.706 517.789 227.706C520.683 227.706 522.664 226.323 522.664 223.874C522.664 221.471 520.718 220.85 518.41 220.44C517.003 220.182 515.375 219.889 515.375 218.506C515.375 217.288 516.429 216.643 517.894 216.643C519.816 216.643 520.402 217.745 520.472 218.682H522.347C522.347 216.643 520.859 214.991 517.964 214.991C515.597 214.991 513.406 216.116 513.406 218.717ZM530.21 227.706C532.929 227.706 534.558 226.194 535.027 224.155H533.023C532.625 225.303 531.687 226.018 530.257 226.018C528.253 226.018 527.058 224.413 527.058 222.069V221.846H535.191V220.698C535.191 217.311 533.339 214.991 530.117 214.991C526.882 214.991 525.042 217.311 525.042 220.557V221.94C525.042 225.444 527 227.706 530.21 227.706ZM527.058 220.217V220.182C527.058 218.237 528.253 216.678 530.128 216.678C531.968 216.678 533.175 218.225 533.175 220.182V220.217H527.058ZM538.238 227.506H540.265V219.877C540.265 218.213 540.945 216.854 543.125 216.854C543.5 216.854 543.898 216.866 544.109 216.901V215.061C543.863 215.026 543.605 215.002 543.347 215.002C541.601 215.002 540.675 215.963 540.312 216.702H540.253V215.19H538.238V227.506ZM505.179 254.971H505.238V256.506H507.171V248.01C507.171 245.42 505.261 243.991 502.636 243.991C499.66 243.991 498.195 245.561 498.066 247.717H499.964C500.082 246.487 500.984 245.678 502.566 245.678C504.23 245.678 505.167 246.569 505.167 248.186V249.44H501.921C499.097 249.452 497.597 250.811 497.597 252.967C497.597 255.229 499.238 256.706 501.617 256.706C503.433 256.706 504.558 255.967 505.179 254.971ZM502.156 255.03C500.867 255.03 499.66 254.35 499.66 252.897C499.66 251.784 500.386 250.987 502.074 250.987H505.167V252.417C505.167 253.952 503.878 255.03 502.156 255.03ZM510.16 250.905C510.16 254.186 512 256.706 515.269 256.706C518.093 256.706 519.64 255.229 520.05 253.12H518.07C517.847 254.104 516.945 254.924 515.41 254.924C513.441 254.924 512.175 253.331 512.175 250.917V249.768C512.175 247.284 513.359 245.772 515.398 245.772C516.734 245.772 517.707 246.721 517.976 247.764H519.957C519.851 245.877 518.117 243.991 515.269 243.991C512.058 243.991 510.16 246.37 510.16 249.686V250.905ZM523.964 244.19H522.3V245.877H523.953V253.061C523.953 255.487 524.55 256.612 527.468 256.612C527.89 256.612 528.312 256.565 528.488 256.53V254.913C528.324 254.936 528.171 254.936 527.972 254.936C526.46 254.936 525.968 254.561 525.968 253.084V245.877H528.406V244.19H525.968V241.12H523.964V244.19ZM531.347 241.225C531.347 241.94 531.921 242.502 532.636 242.502C533.351 242.502 533.937 241.94 533.937 241.225C533.937 240.499 533.351 239.936 532.636 239.936C531.921 239.936 531.347 240.499 531.347 241.225ZM531.628 256.506H533.644V244.19H531.628V256.506ZM542.175 243.991C538.73 243.991 536.878 246.487 536.878 249.78V250.881C536.878 254.221 538.718 256.706 542.175 256.706C545.632 256.706 547.449 254.221 547.449 250.881V249.78C547.449 246.487 545.621 243.991 542.175 243.991ZM542.175 245.713C544.285 245.713 545.433 247.331 545.433 249.85V250.811C545.433 253.331 544.285 254.959 542.175 254.959C540.054 254.959 538.894 253.319 538.894 250.811V249.85C538.894 247.331 540.054 245.713 542.175 245.713ZM550.566 256.506H552.582V249.006C552.582 247.319 553.496 245.819 555.617 245.819C557.41 245.819 558.628 246.874 558.628 248.948V256.506H560.644V248.608C560.644 245.608 558.757 243.991 556.226 243.991C554.222 243.991 553.085 245.034 552.628 245.819H552.57V244.19H550.566V256.506Z" fill="black"/>
<path d="M394.999 227.151C394.999 216.105 403.953 207.151 414.999 207.151H453.725C464.77 207.151 473.725 216.105 473.725 227.151V328.862C473.725 339.908 464.77 348.863 453.725 348.863H414.999C403.953 348.863 394.999 339.908 394.999 328.863V227.151Z" fill="url(#paint0_linear)"/>
<path d="M415.702 284.506L417.319 279.702H423.272L424.889 284.506H427.045L421.35 268.51H419.264L413.569 284.506H415.702ZM420.331 270.924L422.721 278.049H417.87L420.272 270.924H420.331ZM434.709 284.706C437.604 284.706 439.62 282.514 439.62 278.917V277.78C439.62 274.135 437.569 272.002 434.792 272.002C433.139 272.002 431.874 272.799 431.159 273.959H431.1V272.19H429.167V288.596H431.182V282.866H431.241C431.932 283.956 433.139 284.706 434.709 284.706ZM434.51 282.948C432.413 282.948 431.147 281.284 431.147 278.764V277.838C431.147 275.389 432.401 273.737 434.452 273.737C436.444 273.737 437.592 275.26 437.592 277.85V278.764C437.592 281.471 436.35 282.948 434.51 282.948ZM448.303 284.706C451.198 284.706 453.213 282.514 453.213 278.917V277.78C453.213 274.135 451.163 272.002 448.385 272.002C446.733 272.002 445.467 272.799 444.752 273.959H444.694V272.19H442.76V288.596H444.776V282.866H444.834C445.526 283.956 446.733 284.706 448.303 284.706ZM448.104 282.948C446.006 282.948 444.741 281.284 444.741 278.764V277.838C444.741 275.389 445.995 273.737 448.045 273.737C450.038 273.737 451.186 275.26 451.186 277.85V278.764C451.186 281.471 449.944 282.948 448.104 282.948Z" fill="black"/>
<path d="M738.664 217.194C738.723 219.268 740.188 221.846 744.43 221.846C747.758 221.846 750.395 220.206 750.395 217.053C750.395 214.487 748.695 213.35 746.234 212.706L743.469 211.967C741.934 211.581 741.219 210.737 741.219 209.6C741.219 207.889 742.66 206.94 744.641 206.94C746.879 206.94 748.051 208.147 748.191 209.682H750.219C750.148 206.577 747.406 205.135 744.688 205.135C741.816 205.135 739.145 206.741 739.145 209.741C739.145 212.237 740.984 213.444 742.883 213.936L745.695 214.674C747.477 215.131 748.309 215.881 748.309 217.206C748.309 218.952 746.879 220.03 744.652 220.03C742.191 220.03 740.867 218.741 740.715 217.194H738.664ZM754.391 209.19H752.727V210.877H754.379V218.061C754.379 220.487 754.977 221.612 757.895 221.612C758.316 221.612 758.738 221.565 758.914 221.53V219.913C758.75 219.936 758.598 219.936 758.398 219.936C756.887 219.936 756.395 219.561 756.395 218.084V210.877H758.832V209.19H756.395V206.12H754.391V209.19ZM768.559 219.971H768.617V221.506H770.551V213.01C770.551 210.42 768.641 208.991 766.016 208.991C763.039 208.991 761.574 210.561 761.445 212.717H763.344C763.461 211.487 764.363 210.678 765.945 210.678C767.609 210.678 768.547 211.569 768.547 213.186V214.44H765.301C762.477 214.452 760.977 215.811 760.977 217.967C760.977 220.229 762.617 221.706 764.996 221.706C766.812 221.706 767.938 220.967 768.559 219.971ZM765.535 220.03C764.246 220.03 763.039 219.35 763.039 217.897C763.039 216.784 763.766 215.987 765.453 215.987H768.547V217.417C768.547 218.952 767.258 220.03 765.535 220.03ZM774.781 209.19H773.117V210.877H774.77V218.061C774.77 220.487 775.367 221.612 778.285 221.612C778.707 221.612 779.129 221.565 779.305 221.53V219.913C779.141 219.936 778.988 219.936 778.789 219.936C777.277 219.936 776.785 219.561 776.785 218.084V210.877H779.223V209.19H776.785V206.12H774.781V209.19ZM786.746 221.706C789.465 221.706 791.094 220.194 791.562 218.155H789.559C789.16 219.303 788.223 220.018 786.793 220.018C784.789 220.018 783.594 218.413 783.594 216.069V215.846H791.727V214.698C791.727 211.311 789.875 208.991 786.652 208.991C783.418 208.991 781.578 211.311 781.578 214.557V215.94C781.578 219.444 783.535 221.706 786.746 221.706ZM783.594 214.217V214.182C783.594 212.237 784.789 210.678 786.664 210.678C788.504 210.678 789.711 212.225 789.711 214.182V214.217H783.594ZM802.145 221.506H804.312L808.73 209.19H806.691L803.246 219.081H803.176L799.965 209.19H797.832L802.145 221.506ZM817.426 219.971H817.484V221.506H819.418V213.01C819.418 210.42 817.508 208.991 814.883 208.991C811.906 208.991 810.441 210.561 810.312 212.717H812.211C812.328 211.487 813.23 210.678 814.812 210.678C816.477 210.678 817.414 211.569 817.414 213.186V214.44H814.168C811.344 214.452 809.844 215.811 809.844 217.967C809.844 220.229 811.484 221.706 813.863 221.706C815.68 221.706 816.805 220.967 817.426 219.971ZM814.402 220.03C813.113 220.03 811.906 219.35 811.906 217.897C811.906 216.784 812.633 215.987 814.32 215.987H817.414V217.417C817.414 218.952 816.125 220.03 814.402 220.03ZM822.898 221.506H824.926V213.877C824.926 212.213 825.605 210.854 827.785 210.854C828.16 210.854 828.559 210.866 828.77 210.901V209.061C828.523 209.026 828.266 209.002 828.008 209.002C826.262 209.002 825.336 209.963 824.973 210.702H824.914V209.19H822.898V221.506ZM831.312 206.225C831.312 206.94 831.887 207.502 832.602 207.502C833.316 207.502 833.902 206.94 833.902 206.225C833.902 205.499 833.316 204.936 832.602 204.936C831.887 204.936 831.312 205.499 831.312 206.225ZM831.594 221.506H833.609V209.19H831.594V221.506ZM844.215 219.971H844.273V221.506H846.207V213.01C846.207 210.42 844.297 208.991 841.672 208.991C838.695 208.991 837.23 210.561 837.102 212.717H839C839.117 211.487 840.02 210.678 841.602 210.678C843.266 210.678 844.203 211.569 844.203 213.186V214.44H840.957C838.133 214.452 836.633 215.811 836.633 217.967C836.633 220.229 838.273 221.706 840.652 221.706C842.469 221.706 843.594 220.967 844.215 219.971ZM841.191 220.03C839.902 220.03 838.695 219.35 838.695 217.897C838.695 216.784 839.422 215.987 841.109 215.987H844.203V217.417C844.203 218.952 842.914 220.03 841.191 220.03ZM855.395 221.706C858.359 221.706 860.305 219.502 860.305 215.94V214.745C860.305 211.042 858.289 209.002 855.418 209.002C853.859 209.002 852.43 209.811 851.797 210.877H851.738V204.667H849.723V221.506H851.656V219.655H851.715C852.441 220.92 853.637 221.706 855.395 221.706ZM855.148 219.948C852.992 219.948 851.715 218.483 851.715 215.811V214.862C851.715 212.19 853.004 210.76 855.148 210.76C856.988 210.76 858.277 212.202 858.277 214.862V215.834C858.277 218.471 857 219.948 855.148 219.948ZM863.48 221.506H865.484V204.667H863.48V221.506ZM873.84 221.706C876.559 221.706 878.188 220.194 878.656 218.155H876.652C876.254 219.303 875.316 220.018 873.887 220.018C871.883 220.018 870.688 218.413 870.688 216.069V215.846H878.82V214.698C878.82 211.311 876.969 208.991 873.746 208.991C870.512 208.991 868.672 211.311 868.672 214.557V215.94C868.672 219.444 870.629 221.706 873.84 221.706ZM870.688 214.217V214.182C870.688 212.237 871.883 210.678 873.758 210.678C875.598 210.678 876.805 212.225 876.805 214.182V214.217H870.688ZM739.25 244.905C739.25 248.186 741.09 250.706 744.359 250.706C747.184 250.706 748.73 249.229 749.141 247.12H747.16C746.938 248.104 746.035 248.924 744.5 248.924C742.531 248.924 741.266 247.331 741.266 244.917V243.768C741.266 241.284 742.449 239.772 744.488 239.772C745.824 239.772 746.797 240.721 747.066 241.764H749.047C748.941 239.877 747.207 237.991 744.359 237.991C741.148 237.991 739.25 240.37 739.25 243.686V244.905ZM751.988 250.506H754.004V243.006C754.004 241.319 754.918 239.819 757.039 239.819C758.844 239.819 760.051 240.874 760.051 242.948V250.506H762.066V242.608C762.066 239.608 760.191 237.991 757.648 237.991C755.656 237.991 754.52 239.034 754.062 239.819H754.004V233.667H751.988V250.506ZM772.355 248.971H772.414V250.506H774.348V242.01C774.348 239.42 772.438 237.991 769.812 237.991C766.836 237.991 765.371 239.561 765.242 241.717H767.141C767.258 240.487 768.16 239.678 769.742 239.678C771.406 239.678 772.344 240.569 772.344 242.186V243.44H769.098C766.273 243.452 764.773 244.811 764.773 246.967C764.773 249.229 766.414 250.706 768.793 250.706C770.609 250.706 771.734 249.967 772.355 248.971ZM769.332 249.03C768.043 249.03 766.836 248.35 766.836 246.897C766.836 245.784 767.562 244.987 769.25 244.987H772.344V246.417C772.344 247.952 771.055 249.03 769.332 249.03ZM777.828 250.506H779.844V243.006C779.844 241.319 780.758 239.819 782.879 239.819C784.672 239.819 785.891 240.874 785.891 242.948V250.506H787.906V242.608C787.906 239.608 786.02 237.991 783.488 237.991C781.484 237.991 780.348 239.034 779.891 239.819H779.832V238.19H777.828V250.506ZM796.109 253.331C794.422 253.331 793.379 252.417 793.156 251.42H791.094C791.375 253.471 792.969 255.018 796.098 255.018C798.887 255.018 801.336 253.436 801.336 250.284V238.19H799.391V239.924H799.332C798.758 238.881 797.422 238.002 795.746 238.002C792.852 238.002 790.824 240.042 790.824 243.663V244.682C790.824 248.374 792.875 250.389 795.746 250.389C797.422 250.389 798.77 249.51 799.262 248.444H799.32V250.26C799.32 252.194 798.055 253.331 796.109 253.331ZM796.133 239.737C798.078 239.737 799.32 241.319 799.32 243.815V244.577C799.32 247.12 798.148 248.667 796.133 248.667C794.059 248.667 792.84 247.131 792.84 244.577V243.815C792.84 241.213 794.059 239.737 796.133 239.737ZM809.645 250.706C812.363 250.706 813.992 249.194 814.461 247.155H812.457C812.059 248.303 811.121 249.018 809.691 249.018C807.688 249.018 806.492 247.413 806.492 245.069V244.846H814.625V243.698C814.625 240.311 812.773 237.991 809.551 237.991C806.316 237.991 804.477 240.311 804.477 243.557V244.94C804.477 248.444 806.434 250.706 809.645 250.706ZM806.492 243.217V243.182C806.492 241.237 807.688 239.678 809.562 239.678C811.402 239.678 812.609 241.225 812.609 243.182V243.217H806.492Z" fill="black"/>
</g>
<defs>
<linearGradient id="paint0_linear" x1="502.719" y1="229.298" x2="463.842" y2="338.385" gradientUnits="userSpaceOnUse">
<stop offset="0.0303053" stop-color="#DCD2F8"/>
<stop offset="0.421875" stop-color="#FFE4E9"/>
<stop offset="1" stop-color="white"/>
</linearGradient>
<clipPath id="clip0">
<rect width="1096" height="467" rx="10" fill="white"/>
</clipPath>
</defs>
</svg>
