
<svg width="100%" height="100%" viewBox="0 0 661 418" fill="none" xmlns="http://www.w3.org/2000/svg">
<rect width="661" height="418" rx="4" fill="#E6EDF8"/>
<path d="M142.877 364.687H138.939V367.353H143.561V369H136.889V359.047H143.547V360.708H138.939V363.08H142.877V364.687ZM151.374 369H144.552V367.646L147.771 364.215C148.214 363.732 148.539 363.31 148.749 362.95C148.963 362.59 149.07 362.248 149.07 361.925C149.07 361.483 148.959 361.136 148.735 360.886C148.512 360.631 148.193 360.503 147.778 360.503C147.332 360.503 146.979 360.658 146.719 360.968C146.464 361.273 146.336 361.676 146.336 362.178H144.354C144.354 361.572 144.497 361.018 144.784 360.517C145.076 360.015 145.486 359.623 146.015 359.341C146.543 359.054 147.143 358.91 147.812 358.91C148.838 358.91 149.633 359.156 150.198 359.648C150.768 360.141 151.053 360.836 151.053 361.733C151.053 362.226 150.925 362.727 150.67 363.237C150.415 363.748 149.977 364.342 149.357 365.021L147.095 367.407H151.374V369ZM158.791 364.687H154.854V367.353H159.475V369H152.803V359.047H159.461V360.708H154.854V363.08H158.791V364.687ZM171.246 360.708H168.197V369H166.146V360.708H163.139V359.047H171.246V360.708ZM175.081 369.137C173.996 369.137 173.112 368.804 172.429 368.139C171.75 367.473 171.41 366.587 171.41 365.479V365.288C171.41 364.545 171.554 363.882 171.841 363.299C172.128 362.711 172.534 362.26 173.058 361.945C173.586 361.626 174.188 361.467 174.862 361.467C175.874 361.467 176.669 361.786 177.248 362.424C177.831 363.062 178.123 363.966 178.123 365.138V365.944H173.413C173.477 366.427 173.668 366.815 173.987 367.106C174.311 367.398 174.719 367.544 175.211 367.544C175.972 367.544 176.567 367.268 176.995 366.717L177.966 367.804C177.67 368.223 177.269 368.551 176.763 368.788C176.257 369.021 175.696 369.137 175.081 369.137ZM174.855 363.066C174.464 363.066 174.145 363.199 173.898 363.463C173.657 363.727 173.502 364.105 173.434 364.598H176.182V364.44C176.173 364.003 176.054 363.666 175.826 363.429C175.598 363.187 175.275 363.066 174.855 363.066ZM183.257 366.956C183.257 366.715 183.136 366.525 182.895 366.389C182.658 366.247 182.275 366.122 181.746 366.013C179.987 365.644 179.107 364.896 179.107 363.771C179.107 363.114 179.379 362.567 179.921 362.13C180.468 361.688 181.181 361.467 182.061 361.467C182.999 361.467 183.749 361.688 184.31 362.13C184.875 362.572 185.157 363.146 185.157 363.853H183.182C183.182 363.57 183.09 363.338 182.908 363.155C182.726 362.968 182.441 362.875 182.054 362.875C181.721 362.875 181.464 362.95 181.281 363.101C181.099 363.251 181.008 363.442 181.008 363.675C181.008 363.894 181.11 364.071 181.315 364.208C181.525 364.34 181.876 364.456 182.368 364.557C182.86 364.652 183.275 364.762 183.612 364.885C184.656 365.268 185.178 365.931 185.178 366.874C185.178 367.549 184.888 368.095 184.31 368.515C183.731 368.929 182.983 369.137 182.067 369.137C181.448 369.137 180.896 369.027 180.413 368.809C179.935 368.585 179.559 368.282 179.285 367.899C179.012 367.512 178.875 367.095 178.875 366.648H180.748C180.766 366.999 180.896 367.268 181.138 367.455C181.379 367.642 181.703 367.735 182.108 367.735C182.487 367.735 182.771 367.665 182.963 367.523C183.159 367.378 183.257 367.188 183.257 366.956ZM188.821 359.785V361.604H190.086V363.053H188.821V366.744C188.821 367.018 188.874 367.214 188.979 367.332C189.083 367.451 189.284 367.51 189.58 367.51C189.799 367.51 189.993 367.494 190.161 367.462V368.959C189.774 369.077 189.375 369.137 188.965 369.137C187.579 369.137 186.873 368.437 186.846 367.038V363.053H185.766V361.604H186.846V359.785H188.821ZM195.192 366.956C195.192 366.715 195.072 366.525 194.83 366.389C194.593 366.247 194.21 366.122 193.682 366.013C191.923 365.644 191.043 364.896 191.043 363.771C191.043 363.114 191.314 362.567 191.856 362.13C192.403 361.688 193.117 361.467 193.996 361.467C194.935 361.467 195.685 361.688 196.245 362.13C196.81 362.572 197.093 363.146 197.093 363.853H195.117C195.117 363.57 195.026 363.338 194.844 363.155C194.661 362.968 194.377 362.875 193.989 362.875C193.657 362.875 193.399 362.95 193.217 363.101C193.035 363.251 192.943 363.442 192.943 363.675C192.943 363.894 193.046 364.071 193.251 364.208C193.461 364.34 193.812 364.456 194.304 364.557C194.796 364.652 195.211 364.762 195.548 364.885C196.591 365.268 197.113 365.931 197.113 366.874C197.113 367.549 196.824 368.095 196.245 368.515C195.666 368.929 194.919 369.137 194.003 369.137C193.383 369.137 192.832 369.027 192.349 368.809C191.87 368.585 191.494 368.282 191.221 367.899C190.947 367.512 190.811 367.095 190.811 366.648H192.684C192.702 366.999 192.832 367.268 193.073 367.455C193.315 367.642 193.638 367.735 194.044 367.735C194.422 367.735 194.707 367.665 194.898 367.523C195.094 367.378 195.192 367.188 195.192 366.956Z" fill="black"/>
<path d="M402.069 369H400.019V359.047H402.069V369ZM405.665 361.604L405.727 362.458C406.255 361.797 406.964 361.467 407.853 361.467C408.636 361.467 409.22 361.697 409.603 362.157C409.985 362.618 410.181 363.306 410.19 364.222V369H408.215V364.27C408.215 363.85 408.124 363.547 407.941 363.36C407.759 363.169 407.456 363.073 407.032 363.073C406.476 363.073 406.059 363.31 405.781 363.784V369H403.806V361.604H405.665ZM414.06 359.785V361.604H415.324V363.053H414.06V366.744C414.06 367.018 414.112 367.214 414.217 367.332C414.322 367.451 414.522 367.51 414.818 367.51C415.037 367.51 415.231 367.494 415.399 367.462V368.959C415.012 369.077 414.613 369.137 414.203 369.137C412.818 369.137 412.111 368.437 412.084 367.038V363.053H411.004V361.604H412.084V359.785H414.06ZM419.829 369.137C418.744 369.137 417.86 368.804 417.177 368.139C416.498 367.473 416.158 366.587 416.158 365.479V365.288C416.158 364.545 416.302 363.882 416.589 363.299C416.876 362.711 417.282 362.26 417.806 361.945C418.334 361.626 418.936 361.467 419.61 361.467C420.622 361.467 421.417 361.786 421.996 362.424C422.579 363.062 422.871 363.966 422.871 365.138V365.944H418.161C418.225 366.427 418.416 366.815 418.735 367.106C419.059 367.398 419.467 367.544 419.959 367.544C420.72 367.544 421.315 367.268 421.743 366.717L422.714 367.804C422.418 368.223 422.017 368.551 421.511 368.788C421.005 369.021 420.444 369.137 419.829 369.137ZM419.604 363.066C419.212 363.066 418.893 363.199 418.646 363.463C418.405 363.727 418.25 364.105 418.182 364.598H420.93V364.44C420.921 364.003 420.802 363.666 420.574 363.429C420.346 363.187 420.023 363.066 419.604 363.066ZM423.712 365.247C423.712 364.112 423.981 363.199 424.519 362.506C425.061 361.813 425.79 361.467 426.706 361.467C427.517 361.467 428.148 361.745 428.6 362.301L428.682 361.604H430.473V368.754C430.473 369.401 430.325 369.964 430.028 370.442C429.737 370.921 429.324 371.285 428.791 371.536C428.258 371.787 427.633 371.912 426.918 371.912C426.376 371.912 425.847 371.803 425.332 371.584C424.817 371.37 424.427 371.092 424.163 370.75L425.038 369.547C425.53 370.098 426.127 370.374 426.829 370.374C427.353 370.374 427.761 370.233 428.053 369.95C428.344 369.672 428.49 369.276 428.49 368.761V368.364C428.035 368.879 427.435 369.137 426.692 369.137C425.804 369.137 425.084 368.79 424.532 368.098C423.985 367.4 423.712 366.478 423.712 365.329V365.247ZM425.688 365.391C425.688 366.061 425.822 366.587 426.091 366.97C426.36 367.348 426.729 367.537 427.198 367.537C427.8 367.537 428.23 367.312 428.49 366.86V363.75C428.226 363.299 427.8 363.073 427.212 363.073C426.738 363.073 426.364 363.267 426.091 363.654C425.822 364.042 425.688 364.62 425.688 365.391ZM436.153 363.456C435.884 363.42 435.647 363.401 435.442 363.401C434.695 363.401 434.205 363.654 433.973 364.16V369H431.997V361.604H433.863L433.918 362.485C434.314 361.806 434.864 361.467 435.565 361.467C435.784 361.467 435.989 361.496 436.181 361.556L436.153 363.456ZM441.191 369C441.1 368.822 441.034 368.601 440.993 368.337C440.515 368.87 439.893 369.137 439.127 369.137C438.402 369.137 437.801 368.927 437.322 368.508C436.848 368.089 436.611 367.56 436.611 366.922C436.611 366.138 436.901 365.536 437.479 365.117C438.063 364.698 438.904 364.486 440.002 364.481H440.911V364.058C440.911 363.716 440.822 363.442 440.645 363.237C440.471 363.032 440.196 362.93 439.817 362.93C439.485 362.93 439.223 363.009 439.031 363.169C438.844 363.328 438.751 363.547 438.751 363.825H436.775C436.775 363.397 436.908 363 437.172 362.636C437.436 362.271 437.81 361.986 438.293 361.781C438.776 361.572 439.318 361.467 439.92 361.467C440.831 361.467 441.554 361.697 442.087 362.157C442.625 362.613 442.894 363.256 442.894 364.085V367.291C442.898 367.993 442.996 368.524 443.188 368.884V369H441.191ZM439.558 367.626C439.849 367.626 440.118 367.562 440.364 367.435C440.61 367.302 440.793 367.127 440.911 366.908V365.637H440.173C439.184 365.637 438.658 365.979 438.594 366.662L438.587 366.778C438.587 367.024 438.674 367.227 438.847 367.387C439.02 367.546 439.257 367.626 439.558 367.626ZM446.776 359.785V361.604H448.041V363.053H446.776V366.744C446.776 367.018 446.829 367.214 446.934 367.332C447.038 367.451 447.239 367.51 447.535 367.51C447.754 367.51 447.948 367.494 448.116 367.462V368.959C447.729 369.077 447.33 369.137 446.92 369.137C445.535 369.137 444.828 368.437 444.801 367.038V363.053H443.721V361.604H444.801V359.785H446.776ZM451.227 369H449.244V361.604H451.227V369ZM449.128 359.689C449.128 359.393 449.226 359.149 449.422 358.958C449.622 358.767 449.894 358.671 450.235 358.671C450.573 358.671 450.841 358.767 451.042 358.958C451.243 359.149 451.343 359.393 451.343 359.689C451.343 359.99 451.24 360.236 451.035 360.428C450.835 360.619 450.568 360.715 450.235 360.715C449.903 360.715 449.634 360.619 449.429 360.428C449.228 360.236 449.128 359.99 449.128 359.689ZM452.553 365.233C452.553 364.5 452.694 363.846 452.977 363.271C453.259 362.697 453.665 362.253 454.193 361.938C454.727 361.624 455.344 361.467 456.046 361.467C457.044 361.467 457.857 361.772 458.486 362.383C459.12 362.993 459.473 363.823 459.546 364.871L459.56 365.377C459.56 366.512 459.243 367.423 458.609 368.111C457.976 368.795 457.126 369.137 456.06 369.137C454.993 369.137 454.141 368.795 453.503 368.111C452.869 367.428 452.553 366.498 452.553 365.322V365.233ZM454.528 365.377C454.528 366.079 454.66 366.617 454.925 366.99C455.189 367.359 455.567 367.544 456.06 367.544C456.538 367.544 456.912 367.362 457.181 366.997C457.45 366.628 457.584 366.04 457.584 365.233C457.584 364.545 457.45 364.012 457.181 363.634C456.912 363.256 456.534 363.066 456.046 363.066C455.563 363.066 455.189 363.256 454.925 363.634C454.66 364.007 454.528 364.589 454.528 365.377ZM462.595 361.604L462.656 362.458C463.185 361.797 463.894 361.467 464.782 361.467C465.566 361.467 466.149 361.697 466.532 362.157C466.915 362.618 467.111 363.306 467.12 364.222V369H465.145V364.27C465.145 363.85 465.053 363.547 464.871 363.36C464.689 363.169 464.386 363.073 463.962 363.073C463.406 363.073 462.989 363.31 462.711 363.784V369H460.735V361.604H462.595ZM479.322 360.708H476.273V369H474.223V360.708H471.215V359.047H479.322V360.708ZM483.157 369.137C482.073 369.137 481.188 368.804 480.505 368.139C479.826 367.473 479.486 366.587 479.486 365.479V365.288C479.486 364.545 479.63 363.882 479.917 363.299C480.204 362.711 480.61 362.26 481.134 361.945C481.662 361.626 482.264 361.467 482.938 361.467C483.95 361.467 484.745 361.786 485.324 362.424C485.908 363.062 486.199 363.966 486.199 365.138V365.944H481.489C481.553 366.427 481.744 366.815 482.063 367.106C482.387 367.398 482.795 367.544 483.287 367.544C484.048 367.544 484.643 367.268 485.071 366.717L486.042 367.804C485.746 368.223 485.345 368.551 484.839 368.788C484.333 369.021 483.772 369.137 483.157 369.137ZM482.932 363.066C482.54 363.066 482.221 363.199 481.975 363.463C481.733 363.727 481.578 364.105 481.51 364.598H484.258V364.44C484.249 364.003 484.13 363.666 483.902 363.429C483.674 363.187 483.351 363.066 482.932 363.066ZM491.333 366.956C491.333 366.715 491.212 366.525 490.971 366.389C490.734 366.247 490.351 366.122 489.822 366.013C488.063 365.644 487.184 364.896 487.184 363.771C487.184 363.114 487.455 362.567 487.997 362.13C488.544 361.688 489.257 361.467 490.137 361.467C491.076 361.467 491.825 361.688 492.386 362.13C492.951 362.572 493.233 363.146 493.233 363.853H491.258C491.258 363.57 491.167 363.338 490.984 363.155C490.802 362.968 490.517 362.875 490.13 362.875C489.797 362.875 489.54 362.95 489.357 363.101C489.175 363.251 489.084 363.442 489.084 363.675C489.084 363.894 489.187 364.071 489.392 364.208C489.601 364.34 489.952 364.456 490.444 364.557C490.937 364.652 491.351 364.762 491.688 364.885C492.732 365.268 493.254 365.931 493.254 366.874C493.254 367.549 492.965 368.095 492.386 368.515C491.807 368.929 491.06 369.137 490.144 369.137C489.524 369.137 488.972 369.027 488.489 368.809C488.011 368.585 487.635 368.282 487.361 367.899C487.088 367.512 486.951 367.095 486.951 366.648H488.824C488.842 366.999 488.972 367.268 489.214 367.455C489.455 367.642 489.779 367.735 490.185 367.735C490.563 367.735 490.848 367.665 491.039 367.523C491.235 367.378 491.333 367.188 491.333 366.956ZM496.897 359.785V361.604H498.162V363.053H496.897V366.744C496.897 367.018 496.95 367.214 497.055 367.332C497.16 367.451 497.36 367.51 497.656 367.51C497.875 367.51 498.069 367.494 498.237 367.462V368.959C497.85 369.077 497.451 369.137 497.041 369.137C495.656 369.137 494.949 368.437 494.922 367.038V363.053H493.842V361.604H494.922V359.785H496.897ZM503.269 366.956C503.269 366.715 503.148 366.525 502.906 366.389C502.669 366.247 502.286 366.122 501.758 366.013C499.999 365.644 499.119 364.896 499.119 363.771C499.119 363.114 499.39 362.567 499.933 362.13C500.479 361.688 501.193 361.467 502.072 361.467C503.011 361.467 503.761 361.688 504.321 362.13C504.886 362.572 505.169 363.146 505.169 363.853H503.193C503.193 363.57 503.102 363.338 502.92 363.155C502.738 362.968 502.453 362.875 502.065 362.875C501.733 362.875 501.475 362.95 501.293 363.101C501.111 363.251 501.02 363.442 501.02 363.675C501.02 363.894 501.122 364.071 501.327 364.208C501.537 364.34 501.888 364.456 502.38 364.557C502.872 364.652 503.287 364.762 503.624 364.885C504.668 365.268 505.189 365.931 505.189 366.874C505.189 367.549 504.9 368.095 504.321 368.515C503.743 368.929 502.995 369.137 502.079 369.137C501.459 369.137 500.908 369.027 500.425 368.809C499.946 368.585 499.57 368.282 499.297 367.899C499.023 367.512 498.887 367.095 498.887 366.648H500.76C500.778 366.999 500.908 367.268 501.149 367.455C501.391 367.642 501.715 367.735 502.12 367.735C502.498 367.735 502.783 367.665 502.975 367.523C503.171 367.378 503.269 367.188 503.269 366.956Z" fill="black"/>
<path d="M163.057 70.9355C162.469 70.3518 161.519 70.3553 160.935 70.9432L151.424 80.5239C150.841 81.1118 150.844 82.0616 151.432 82.6452C152.02 83.2289 152.97 83.2254 153.553 82.6375L162.008 74.1213L170.524 82.5756C171.112 83.1592 172.062 83.1557 172.645 82.5678C173.229 81.9799 173.225 81.0302 172.638 80.4465L163.057 70.9355ZM164.496 344.995L163.5 71.9945L160.5 72.0055L161.496 345.005L164.496 344.995Z" fill="black"/>
<path d="M453.057 67.9355C452.469 67.3518 451.519 67.3553 450.935 67.9432L441.424 77.5239C440.841 78.1118 440.844 79.0616 441.432 79.6452C442.02 80.2289 442.97 80.2254 443.553 79.6375L452.008 71.1213L460.524 79.5756C461.112 80.1592 462.062 80.1557 462.645 79.5678C463.229 78.9799 463.225 78.0302 462.637 77.4465L453.057 67.9355ZM454.496 341.995L453.5 68.9945L450.5 69.0055L451.496 342.005L454.496 341.995Z" fill="black"/>
<path d="M452.404 199.68L453.904 199.673L453.902 199.19L453.617 198.798L452.404 199.68ZM364.235 76.5185C363.416 76.3889 362.648 76.9471 362.518 77.7654L360.406 91.0991C360.277 91.9174 360.835 92.6857 361.653 92.8153C362.472 92.9449 363.24 92.3867 363.37 91.5685L365.247 79.7162L377.099 81.5935C377.917 81.7231 378.686 81.1649 378.815 80.3467C378.945 79.5285 378.387 78.7601 377.568 78.6305L364.235 76.5185ZM454.5 341.494L453.904 199.673L450.904 199.686L451.5 341.506L454.5 341.494ZM453.617 198.798L365.214 77.1184L362.786 78.8817L451.19 200.561L453.617 198.798Z" fill="black"/>
<path d="M452.416 200.304L450.916 200.311L450.914 199.834L451.187 199.444L452.416 200.304ZM537.739 76.5228C538.555 76.3787 539.333 76.9233 539.477 77.7391L541.825 91.0333C541.969 91.8491 541.425 92.6272 540.609 92.7713C539.793 92.9154 539.015 92.3709 538.871 91.5551L536.784 79.738L524.967 81.8253C524.151 81.9694 523.373 81.4249 523.229 80.6091C523.085 79.7933 523.629 79.0152 524.445 78.8711L537.739 76.5228ZM451.511 340.006L450.916 200.311L453.916 200.298L454.511 339.994L451.511 340.006ZM451.187 199.444L536.771 77.14L539.229 78.86L453.645 201.164L451.187 199.444Z" fill="black"/>
<rect x="124" y="40" width="76" height="21" rx="10" fill="#6FCF97"/>
<rect x="301" y="40" width="76" height="21" rx="10" fill="#2F80ED"/>
<rect x="414" y="40" width="76" height="21" rx="10" fill="#F2994A"/>
<rect x="527" y="40" width="76" height="21" rx="10" fill="#6FCF97"/>
<path d="M142.05 53.3887C142.05 53.0013 141.913 52.7051 141.64 52.5C141.366 52.2904 140.874 52.0716 140.163 51.8438C139.452 51.6113 138.889 51.3835 138.475 51.1602C137.344 50.5495 136.779 49.7269 136.779 48.6924C136.779 48.1546 136.93 47.6761 137.23 47.2568C137.536 46.833 137.971 46.5026 138.536 46.2656C139.106 46.0286 139.744 45.9102 140.45 45.9102C141.161 45.9102 141.795 46.04 142.351 46.2998C142.907 46.555 143.337 46.9173 143.643 47.3867C143.952 47.8561 144.107 48.3893 144.107 48.9863H142.057C142.057 48.5306 141.913 48.1774 141.626 47.9268C141.339 47.6715 140.936 47.5439 140.416 47.5439C139.915 47.5439 139.525 47.651 139.247 47.8652C138.969 48.0749 138.83 48.3529 138.83 48.6992C138.83 49.0228 138.992 49.2939 139.315 49.5127C139.644 49.7314 140.124 49.9365 140.758 50.1279C141.924 50.4788 142.774 50.9141 143.308 51.4336C143.841 51.9531 144.107 52.6003 144.107 53.375C144.107 54.2363 143.782 54.9131 143.13 55.4053C142.478 55.8929 141.601 56.1367 140.498 56.1367C139.732 56.1367 139.035 55.9977 138.406 55.7197C137.777 55.4372 137.297 55.0521 136.964 54.5645C136.636 54.0768 136.472 53.5117 136.472 52.8691H138.529C138.529 53.9674 139.186 54.5166 140.498 54.5166C140.986 54.5166 141.366 54.4186 141.64 54.2227C141.913 54.0221 142.05 53.7441 142.05 53.3887ZM149.802 55.248C149.314 55.8405 148.64 56.1367 147.778 56.1367C146.985 56.1367 146.379 55.9089 145.96 55.4531C145.545 54.9974 145.333 54.3298 145.324 53.4502V48.6035H147.3V53.3818C147.3 54.152 147.651 54.5371 148.353 54.5371C149.022 54.5371 149.483 54.3047 149.733 53.8398V48.6035H151.716V56H149.856L149.802 55.248ZM156.282 54.5439C156.647 54.5439 156.943 54.4437 157.171 54.2432C157.399 54.0426 157.517 53.776 157.526 53.4434H159.379C159.374 53.9447 159.238 54.4049 158.969 54.8242C158.7 55.2389 158.331 55.5625 157.861 55.7949C157.396 56.0228 156.882 56.1367 156.316 56.1367C155.259 56.1367 154.425 55.8018 153.814 55.1318C153.204 54.4574 152.898 53.5277 152.898 52.3428V52.2129C152.898 51.0736 153.201 50.1644 153.808 49.4854C154.414 48.8063 155.245 48.4668 156.303 48.4668C157.228 48.4668 157.968 48.7311 158.524 49.2598C159.085 49.7839 159.37 50.4834 159.379 51.3584H157.526C157.517 50.9756 157.399 50.6657 157.171 50.4287C156.943 50.1872 156.642 50.0664 156.269 50.0664C155.808 50.0664 155.46 50.235 155.223 50.5723C154.99 50.9049 154.874 51.4473 154.874 52.1992V52.4043C154.874 53.1654 154.99 53.7122 155.223 54.0449C155.455 54.3776 155.808 54.5439 156.282 54.5439ZM163.583 54.5439C163.948 54.5439 164.244 54.4437 164.472 54.2432C164.7 54.0426 164.818 53.776 164.827 53.4434H166.68C166.675 53.9447 166.538 54.4049 166.27 54.8242C166.001 55.2389 165.632 55.5625 165.162 55.7949C164.697 56.0228 164.182 56.1367 163.617 56.1367C162.56 56.1367 161.726 55.8018 161.115 55.1318C160.505 54.4574 160.199 53.5277 160.199 52.3428V52.2129C160.199 51.0736 160.502 50.1644 161.108 49.4854C161.715 48.8063 162.546 48.4668 163.604 48.4668C164.529 48.4668 165.269 48.7311 165.825 49.2598C166.386 49.7839 166.671 50.4834 166.68 51.3584H164.827C164.818 50.9756 164.7 50.6657 164.472 50.4287C164.244 50.1872 163.943 50.0664 163.569 50.0664C163.109 50.0664 162.76 50.235 162.523 50.5723C162.291 50.9049 162.175 51.4473 162.175 52.1992V52.4043C162.175 53.1654 162.291 53.7122 162.523 54.0449C162.756 54.3776 163.109 54.5439 163.583 54.5439ZM171.212 56.1367C170.127 56.1367 169.243 55.804 168.56 55.1387C167.881 54.4733 167.541 53.5869 167.541 52.4795V52.2881C167.541 51.5452 167.685 50.8822 167.972 50.2988C168.259 49.7109 168.664 49.2598 169.188 48.9453C169.717 48.6263 170.319 48.4668 170.993 48.4668C172.005 48.4668 172.8 48.7858 173.379 49.4238C173.962 50.0618 174.254 50.9665 174.254 52.1377V52.9443H169.544C169.608 53.4274 169.799 53.8148 170.118 54.1064C170.442 54.3981 170.85 54.5439 171.342 54.5439C172.103 54.5439 172.698 54.2682 173.126 53.7168L174.097 54.8037C173.8 55.223 173.399 55.5511 172.894 55.7881C172.388 56.0205 171.827 56.1367 171.212 56.1367ZM170.986 50.0664C170.594 50.0664 170.275 50.1986 170.029 50.4629C169.788 50.7272 169.633 51.1055 169.564 51.5977H172.312V51.4404C172.303 51.0029 172.185 50.6657 171.957 50.4287C171.729 50.1872 171.406 50.0664 170.986 50.0664ZM179.388 53.9561C179.388 53.7145 179.267 53.5254 179.025 53.3887C178.788 53.2474 178.406 53.1221 177.877 53.0127C176.118 52.6436 175.238 51.8962 175.238 50.7705C175.238 50.1143 175.509 49.5674 176.052 49.1299C176.599 48.6878 177.312 48.4668 178.191 48.4668C179.13 48.4668 179.88 48.6878 180.44 49.1299C181.006 49.5719 181.288 50.1462 181.288 50.8525H179.312C179.312 50.57 179.221 50.3376 179.039 50.1553C178.857 49.9684 178.572 49.875 178.185 49.875C177.852 49.875 177.594 49.9502 177.412 50.1006C177.23 50.251 177.139 50.4424 177.139 50.6748C177.139 50.8936 177.241 51.0713 177.446 51.208C177.656 51.3402 178.007 51.4564 178.499 51.5566C178.991 51.6523 179.406 51.7617 179.743 51.8848C180.787 52.2676 181.309 52.9307 181.309 53.874C181.309 54.5485 181.019 55.0954 180.44 55.5146C179.862 55.9294 179.114 56.1367 178.198 56.1367C177.578 56.1367 177.027 56.0273 176.544 55.8086C176.065 55.5853 175.689 55.2822 175.416 54.8994C175.143 54.512 175.006 54.0951 175.006 53.6484H176.879C176.897 53.9993 177.027 54.2682 177.269 54.4551C177.51 54.6419 177.834 54.7354 178.239 54.7354C178.618 54.7354 178.902 54.6647 179.094 54.5234C179.29 54.3776 179.388 54.1885 179.388 53.9561ZM186.593 53.9561C186.593 53.7145 186.472 53.5254 186.23 53.3887C185.993 53.2474 185.611 53.1221 185.082 53.0127C183.323 52.6436 182.443 51.8962 182.443 50.7705C182.443 50.1143 182.715 49.5674 183.257 49.1299C183.804 48.6878 184.517 48.4668 185.396 48.4668C186.335 48.4668 187.085 48.6878 187.646 49.1299C188.211 49.5719 188.493 50.1462 188.493 50.8525H186.518C186.518 50.57 186.426 50.3376 186.244 50.1553C186.062 49.9684 185.777 49.875 185.39 49.875C185.057 49.875 184.799 49.9502 184.617 50.1006C184.435 50.251 184.344 50.4424 184.344 50.6748C184.344 50.8936 184.446 51.0713 184.651 51.208C184.861 51.3402 185.212 51.4564 185.704 51.5566C186.196 51.6523 186.611 51.7617 186.948 51.8848C187.992 52.2676 188.514 52.9307 188.514 53.874C188.514 54.5485 188.224 55.0954 187.646 55.5146C187.067 55.9294 186.319 56.1367 185.403 56.1367C184.784 56.1367 184.232 56.0273 183.749 55.8086C183.271 55.5853 182.895 55.2822 182.621 54.8994C182.348 54.512 182.211 54.0951 182.211 53.6484H184.084C184.102 53.9993 184.232 54.2682 184.474 54.4551C184.715 54.6419 185.039 54.7354 185.444 54.7354C185.823 54.7354 186.107 54.6647 186.299 54.5234C186.495 54.3776 186.593 54.1885 186.593 53.9561Z" fill="black"/>
<path d="M544.05 53.3887C544.05 53.0013 543.913 52.7051 543.64 52.5C543.366 52.2904 542.874 52.0716 542.163 51.8438C541.452 51.6113 540.889 51.3835 540.475 51.1602C539.344 50.5495 538.779 49.7269 538.779 48.6924C538.779 48.1546 538.93 47.6761 539.23 47.2568C539.536 46.833 539.971 46.5026 540.536 46.2656C541.106 46.0286 541.744 45.9102 542.45 45.9102C543.161 45.9102 543.795 46.04 544.351 46.2998C544.907 46.555 545.337 46.9173 545.643 47.3867C545.952 47.8561 546.107 48.3893 546.107 48.9863H544.057C544.057 48.5306 543.913 48.1774 543.626 47.9268C543.339 47.6715 542.936 47.5439 542.416 47.5439C541.915 47.5439 541.525 47.651 541.247 47.8652C540.969 48.0749 540.83 48.3529 540.83 48.6992C540.83 49.0228 540.992 49.2939 541.315 49.5127C541.644 49.7314 542.124 49.9365 542.758 50.1279C543.924 50.4788 544.774 50.9141 545.308 51.4336C545.841 51.9531 546.107 52.6003 546.107 53.375C546.107 54.2363 545.782 54.9131 545.13 55.4053C544.478 55.8929 543.601 56.1367 542.498 56.1367C541.732 56.1367 541.035 55.9977 540.406 55.7197C539.777 55.4372 539.297 55.0521 538.964 54.5645C538.636 54.0768 538.472 53.5117 538.472 52.8691H540.529C540.529 53.9674 541.186 54.5166 542.498 54.5166C542.986 54.5166 543.366 54.4186 543.64 54.2227C543.913 54.0221 544.05 53.7441 544.05 53.3887ZM551.802 55.248C551.314 55.8405 550.64 56.1367 549.778 56.1367C548.985 56.1367 548.379 55.9089 547.96 55.4531C547.545 54.9974 547.333 54.3298 547.324 53.4502V48.6035H549.3V53.3818C549.3 54.152 549.651 54.5371 550.353 54.5371C551.022 54.5371 551.483 54.3047 551.733 53.8398V48.6035H553.716V56H551.856L551.802 55.248ZM558.282 54.5439C558.647 54.5439 558.943 54.4437 559.171 54.2432C559.399 54.0426 559.517 53.776 559.526 53.4434H561.379C561.374 53.9447 561.238 54.4049 560.969 54.8242C560.7 55.2389 560.331 55.5625 559.861 55.7949C559.396 56.0228 558.882 56.1367 558.316 56.1367C557.259 56.1367 556.425 55.8018 555.814 55.1318C555.204 54.4574 554.898 53.5277 554.898 52.3428V52.2129C554.898 51.0736 555.201 50.1644 555.808 49.4854C556.414 48.8063 557.245 48.4668 558.303 48.4668C559.228 48.4668 559.968 48.7311 560.524 49.2598C561.085 49.7839 561.37 50.4834 561.379 51.3584H559.526C559.517 50.9756 559.399 50.6657 559.171 50.4287C558.943 50.1872 558.642 50.0664 558.269 50.0664C557.808 50.0664 557.46 50.235 557.223 50.5723C556.99 50.9049 556.874 51.4473 556.874 52.1992V52.4043C556.874 53.1654 556.99 53.7122 557.223 54.0449C557.455 54.3776 557.808 54.5439 558.282 54.5439ZM565.583 54.5439C565.948 54.5439 566.244 54.4437 566.472 54.2432C566.7 54.0426 566.818 53.776 566.827 53.4434H568.68C568.675 53.9447 568.538 54.4049 568.27 54.8242C568.001 55.2389 567.632 55.5625 567.162 55.7949C566.697 56.0228 566.182 56.1367 565.617 56.1367C564.56 56.1367 563.726 55.8018 563.115 55.1318C562.505 54.4574 562.199 53.5277 562.199 52.3428V52.2129C562.199 51.0736 562.502 50.1644 563.108 49.4854C563.715 48.8063 564.546 48.4668 565.604 48.4668C566.529 48.4668 567.269 48.7311 567.825 49.2598C568.386 49.7839 568.671 50.4834 568.68 51.3584H566.827C566.818 50.9756 566.7 50.6657 566.472 50.4287C566.244 50.1872 565.943 50.0664 565.569 50.0664C565.109 50.0664 564.76 50.235 564.523 50.5723C564.291 50.9049 564.175 51.4473 564.175 52.1992V52.4043C564.175 53.1654 564.291 53.7122 564.523 54.0449C564.756 54.3776 565.109 54.5439 565.583 54.5439ZM573.212 56.1367C572.127 56.1367 571.243 55.804 570.56 55.1387C569.881 54.4733 569.541 53.5869 569.541 52.4795V52.2881C569.541 51.5452 569.685 50.8822 569.972 50.2988C570.259 49.7109 570.664 49.2598 571.188 48.9453C571.717 48.6263 572.319 48.4668 572.993 48.4668C574.005 48.4668 574.8 48.7858 575.379 49.4238C575.962 50.0618 576.254 50.9665 576.254 52.1377V52.9443H571.544C571.608 53.4274 571.799 53.8148 572.118 54.1064C572.442 54.3981 572.85 54.5439 573.342 54.5439C574.103 54.5439 574.698 54.2682 575.126 53.7168L576.097 54.8037C575.8 55.223 575.399 55.5511 574.894 55.7881C574.388 56.0205 573.827 56.1367 573.212 56.1367ZM572.986 50.0664C572.594 50.0664 572.275 50.1986 572.029 50.4629C571.788 50.7272 571.633 51.1055 571.564 51.5977H574.312V51.4404C574.303 51.0029 574.185 50.6657 573.957 50.4287C573.729 50.1872 573.406 50.0664 572.986 50.0664ZM581.388 53.9561C581.388 53.7145 581.267 53.5254 581.025 53.3887C580.788 53.2474 580.406 53.1221 579.877 53.0127C578.118 52.6436 577.238 51.8962 577.238 50.7705C577.238 50.1143 577.509 49.5674 578.052 49.1299C578.599 48.6878 579.312 48.4668 580.191 48.4668C581.13 48.4668 581.88 48.6878 582.44 49.1299C583.006 49.5719 583.288 50.1462 583.288 50.8525H581.312C581.312 50.57 581.221 50.3376 581.039 50.1553C580.857 49.9684 580.572 49.875 580.185 49.875C579.852 49.875 579.594 49.9502 579.412 50.1006C579.23 50.251 579.139 50.4424 579.139 50.6748C579.139 50.8936 579.241 51.0713 579.446 51.208C579.656 51.3402 580.007 51.4564 580.499 51.5566C580.991 51.6523 581.406 51.7617 581.743 51.8848C582.787 52.2676 583.309 52.9307 583.309 53.874C583.309 54.5485 583.019 55.0954 582.44 55.5146C581.862 55.9294 581.114 56.1367 580.198 56.1367C579.578 56.1367 579.027 56.0273 578.544 55.8086C578.065 55.5853 577.689 55.2822 577.416 54.8994C577.143 54.512 577.006 54.0951 577.006 53.6484H578.879C578.897 53.9993 579.027 54.2682 579.269 54.4551C579.51 54.6419 579.834 54.7354 580.239 54.7354C580.618 54.7354 580.902 54.6647 581.094 54.5234C581.29 54.3776 581.388 54.1885 581.388 53.9561ZM588.593 53.9561C588.593 53.7145 588.472 53.5254 588.23 53.3887C587.993 53.2474 587.611 53.1221 587.082 53.0127C585.323 52.6436 584.443 51.8962 584.443 50.7705C584.443 50.1143 584.715 49.5674 585.257 49.1299C585.804 48.6878 586.517 48.4668 587.396 48.4668C588.335 48.4668 589.085 48.6878 589.646 49.1299C590.211 49.5719 590.493 50.1462 590.493 50.8525H588.518C588.518 50.57 588.426 50.3376 588.244 50.1553C588.062 49.9684 587.777 49.875 587.39 49.875C587.057 49.875 586.799 49.9502 586.617 50.1006C586.435 50.251 586.344 50.4424 586.344 50.6748C586.344 50.8936 586.446 51.0713 586.651 51.208C586.861 51.3402 587.212 51.4564 587.704 51.5566C588.196 51.6523 588.611 51.7617 588.948 51.8848C589.992 52.2676 590.514 52.9307 590.514 53.874C590.514 54.5485 590.224 55.0954 589.646 55.5146C589.067 55.9294 588.319 56.1367 587.403 56.1367C586.784 56.1367 586.232 56.0273 585.749 55.8086C585.271 55.5853 584.895 55.2822 584.621 54.8994C584.348 54.512 584.211 54.0951 584.211 53.6484H586.084C586.102 53.9993 586.232 54.2682 586.474 54.4551C586.715 54.6419 587.039 54.7354 587.444 54.7354C587.823 54.7354 588.107 54.6647 588.299 54.5234C588.495 54.3776 588.593 54.1885 588.593 53.9561Z" fill="black"/>
<path d="M437.877 51.9326H433.939V56H431.889V46.0469H438.369V47.708H433.939V50.2783H437.877V51.9326ZM443.482 56C443.391 55.8223 443.325 55.6012 443.284 55.3369C442.806 55.8701 442.184 56.1367 441.418 56.1367C440.693 56.1367 440.092 55.9271 439.613 55.5078C439.139 55.0885 438.902 54.5599 438.902 53.9219C438.902 53.138 439.192 52.5365 439.771 52.1172C440.354 51.6979 441.195 51.486 442.293 51.4814H443.202V51.0576C443.202 50.7158 443.113 50.4424 442.936 50.2373C442.762 50.0322 442.487 49.9297 442.108 49.9297C441.776 49.9297 441.514 50.0094 441.322 50.1689C441.135 50.3285 441.042 50.5472 441.042 50.8252H439.066C439.066 50.3968 439.199 50.0003 439.463 49.6357C439.727 49.2712 440.101 48.9863 440.584 48.7812C441.067 48.5716 441.609 48.4668 442.211 48.4668C443.122 48.4668 443.845 48.6969 444.378 49.1572C444.916 49.613 445.185 50.2555 445.185 51.085V54.291C445.189 54.9928 445.287 55.5238 445.479 55.8838V56H443.482ZM441.849 54.626C442.14 54.626 442.409 54.5622 442.655 54.4346C442.901 54.3024 443.084 54.127 443.202 53.9082V52.6367H442.464C441.475 52.6367 440.949 52.9785 440.885 53.6621L440.878 53.7783C440.878 54.0244 440.965 54.2272 441.138 54.3867C441.311 54.5462 441.548 54.626 441.849 54.626ZM448.787 56H446.805V48.6035H448.787V56ZM446.688 46.6895C446.688 46.3932 446.786 46.1494 446.982 45.958C447.183 45.7666 447.454 45.6709 447.796 45.6709C448.133 45.6709 448.402 45.7666 448.603 45.958C448.803 46.1494 448.903 46.3932 448.903 46.6895C448.903 46.9902 448.801 47.2363 448.596 47.4277C448.395 47.6191 448.129 47.7148 447.796 47.7148C447.463 47.7148 447.194 47.6191 446.989 47.4277C446.789 47.2363 446.688 46.9902 446.688 46.6895ZM452.506 56H450.523V45.5H452.506V56ZM458.569 55.248C458.082 55.8405 457.407 56.1367 456.546 56.1367C455.753 56.1367 455.147 55.9089 454.728 55.4531C454.313 54.9974 454.101 54.3298 454.092 53.4502V48.6035H456.067V53.3818C456.067 54.152 456.418 54.5371 457.12 54.5371C457.79 54.5371 458.25 54.3047 458.501 53.8398V48.6035H460.483V56H458.624L458.569 55.248ZM466.13 50.4561C465.861 50.4196 465.624 50.4014 465.419 50.4014C464.672 50.4014 464.182 50.6543 463.949 51.1602V56H461.974V48.6035H463.84L463.895 49.4854C464.291 48.8063 464.84 48.4668 465.542 48.4668C465.761 48.4668 465.966 48.4964 466.157 48.5557L466.13 50.4561ZM470.354 56.1367C469.27 56.1367 468.386 55.804 467.702 55.1387C467.023 54.4733 466.684 53.5869 466.684 52.4795V52.2881C466.684 51.5452 466.827 50.8822 467.114 50.2988C467.401 49.7109 467.807 49.2598 468.331 48.9453C468.86 48.6263 469.461 48.4668 470.136 48.4668C471.147 48.4668 471.943 48.7858 472.521 49.4238C473.105 50.0618 473.396 50.9665 473.396 52.1377V52.9443H468.687C468.75 53.4274 468.942 53.8148 469.261 54.1064C469.584 54.3981 469.992 54.5439 470.484 54.5439C471.245 54.5439 471.84 54.2682 472.269 53.7168L473.239 54.8037C472.943 55.223 472.542 55.5511 472.036 55.7881C471.53 56.0205 470.97 56.1367 470.354 56.1367ZM470.129 50.0664C469.737 50.0664 469.418 50.1986 469.172 50.4629C468.93 50.7272 468.775 51.1055 468.707 51.5977H471.455V51.4404C471.446 51.0029 471.327 50.6657 471.1 50.4287C470.872 50.1872 470.548 50.0664 470.129 50.0664Z" fill="black"/>
<path d="M325.877 50.6865H321.939V53.3525H326.561V55H319.889V45.0469H326.547V46.708H321.939V49.0801H325.877V50.6865ZM329.486 47.6035L329.548 48.4307C330.072 47.7881 330.781 47.4668 331.674 47.4668C332.626 47.4668 333.28 47.8428 333.636 48.5947C334.155 47.8428 334.896 47.4668 335.857 47.4668C336.66 47.4668 337.257 47.7015 337.648 48.1709C338.04 48.6357 338.236 49.3376 338.236 50.2764V55H336.254V50.2832C336.254 49.8639 336.172 49.5586 336.008 49.3672C335.844 49.1712 335.554 49.0732 335.14 49.0732C334.547 49.0732 334.137 49.3558 333.909 49.9209L333.916 55H331.94V50.29C331.94 49.8617 331.856 49.5518 331.688 49.3604C331.519 49.1689 331.232 49.0732 330.826 49.0732C330.266 49.0732 329.86 49.3057 329.609 49.7705V55H327.634V47.6035H329.486ZM346.419 51.3701C346.419 52.5094 346.159 53.4232 345.64 54.1113C345.125 54.7949 344.427 55.1367 343.548 55.1367C342.8 55.1367 342.197 54.877 341.736 54.3574V57.8438H339.761V47.6035H341.593L341.661 48.3281C342.14 47.7539 342.764 47.4668 343.534 47.4668C344.446 47.4668 345.154 47.804 345.66 48.4785C346.166 49.153 346.419 50.0827 346.419 51.2676V51.3701ZM344.443 51.2266C344.443 50.5384 344.32 50.0075 344.074 49.6338C343.833 49.2601 343.479 49.0732 343.015 49.0732C342.395 49.0732 341.969 49.3102 341.736 49.7842V52.8125C341.978 53.3001 342.409 53.5439 343.028 53.5439C343.972 53.5439 344.443 52.7715 344.443 51.2266ZM350.015 45.7852V47.6035H351.279V49.0527H350.015V52.7441C350.015 53.0176 350.067 53.2135 350.172 53.332C350.277 53.4505 350.477 53.5098 350.773 53.5098C350.992 53.5098 351.186 53.4938 351.354 53.4619V54.959C350.967 55.0775 350.568 55.1367 350.158 55.1367C348.773 55.1367 348.066 54.4372 348.039 53.0381V49.0527H346.959V47.6035H348.039V45.7852H350.015ZM355.142 52.2041L356.509 47.6035H358.628L355.654 56.1484L355.49 56.5381C355.048 57.5042 354.319 57.9873 353.303 57.9873C353.016 57.9873 352.724 57.944 352.428 57.8574V56.3604L352.729 56.3672C353.102 56.3672 353.38 56.3102 353.562 56.1963C353.749 56.0824 353.895 55.8932 354 55.6289L354.232 55.0205L351.642 47.6035H353.768L355.142 52.2041Z" fill="white"/>
</svg>
