<svg width="1097" height="468" viewBox="0 0 1097 468" fill="none" xmlns="http://www.w3.org/2000/svg">
<rect width="1097" height="468" fill="#E5E5E5"/>
<rect x="0.446289" y="0.824707" width="1095.93" height="467.013" rx="10" fill="#E5ECF7"/>
<rect x="120.574" y="244.101" width="124.358" height="69.4612" rx="10" fill="#4A79DF"/>
<path d="M157.347 291.331L165.995 267.337H162.515L155.853 287.376H155.747L149.05 267.337H145.552L154.183 291.331H157.347ZM169.001 268.409C169.001 269.481 169.862 270.325 170.935 270.325C172.007 270.325 172.886 269.481 172.886 268.409C172.886 267.319 172.007 266.476 170.935 266.476C169.862 266.476 169.001 267.319 169.001 268.409ZM169.423 291.331H172.446V272.856H169.423V291.331ZM185.05 291.63C189.128 291.63 191.571 289.362 192.274 286.304H189.269C188.671 288.026 187.265 289.099 185.12 289.099C182.114 289.099 180.321 286.69 180.321 283.175V282.841H192.521V281.118C192.521 276.038 189.743 272.558 184.909 272.558C180.058 272.558 177.298 276.038 177.298 280.907V282.981C177.298 288.237 180.233 291.63 185.05 291.63ZM180.321 280.397V280.345C180.321 277.427 182.114 275.089 184.927 275.089C187.687 275.089 189.497 277.409 189.497 280.345V280.397H180.321ZM219.538 272.856H216.479L213.087 287.464H212.946L208.763 272.856H205.88L201.714 287.464H201.573L198.181 272.856H195.122L199.938 291.331H203.085L207.286 277.093H207.356L211.575 291.331H214.704L219.538 272.856Z" fill="white"/>
<path d="M349.665 280.245C350.446 279.464 350.446 278.198 349.665 277.417L336.937 264.689C336.156 263.908 334.889 263.908 334.108 264.689C333.327 265.47 333.327 266.736 334.108 267.517L345.422 278.831L334.108 290.145C333.327 290.926 333.327 292.192 334.108 292.973C334.889 293.754 336.156 293.754 336.937 292.973L349.665 280.245ZM267.448 280.831H348.251V276.831H267.448V280.831Z" fill="black"/>
<rect x="599.311" y="244.101" width="124.358" height="69.4612" rx="10" fill="#4A79DF"/>
<path d="M614.303 291.331L616.729 284.124H625.658L628.084 291.331H631.318L622.775 267.337H619.646L611.104 291.331H614.303ZM621.246 270.958L624.832 281.646H617.555L621.158 270.958H621.246ZM633.709 282.929C633.709 287.851 636.469 291.63 641.373 291.63C645.609 291.63 647.93 289.415 648.545 286.251H645.574C645.24 287.728 643.887 288.958 641.584 288.958C638.631 288.958 636.732 286.568 636.732 282.947V281.224C636.732 277.497 638.508 275.23 641.566 275.23C643.57 275.23 645.029 276.654 645.434 278.218H648.404C648.246 275.388 645.645 272.558 641.373 272.558C636.557 272.558 633.709 276.126 633.709 281.101V282.929ZM654.416 272.857H651.92V275.388H654.398V286.163C654.398 289.802 655.295 291.49 659.672 291.49C660.305 291.49 660.938 291.419 661.201 291.366V288.941C660.955 288.976 660.727 288.976 660.428 288.976C658.16 288.976 657.422 288.413 657.422 286.198V275.388H661.078V272.857H657.422V268.251H654.416V272.857ZM665.49 268.409C665.49 269.482 666.352 270.325 667.424 270.325C668.496 270.325 669.375 269.482 669.375 268.409C669.375 267.32 668.496 266.476 667.424 266.476C666.352 266.476 665.49 267.32 665.49 268.409ZM665.912 291.331H668.936V272.857H665.912V291.331ZM681.732 272.558C676.564 272.558 673.787 276.302 673.787 281.241V282.894C673.787 287.904 676.547 291.63 681.732 291.63C686.918 291.63 689.643 287.904 689.643 282.894V281.241C689.643 276.302 686.9 272.558 681.732 272.558ZM681.732 275.142C684.896 275.142 686.619 277.568 686.619 281.347V282.788C686.619 286.568 684.896 289.011 681.732 289.011C678.551 289.011 676.811 286.55 676.811 282.788V281.347C676.811 277.568 678.551 275.142 681.732 275.142ZM694.318 291.331H697.342V280.081C697.342 277.55 698.713 275.3 701.895 275.3C704.584 275.3 706.412 276.882 706.412 279.993V291.331H709.436V279.484C709.436 274.984 706.605 272.558 702.809 272.558C699.803 272.558 698.098 274.122 697.412 275.3H697.324V272.857H694.318V291.331Z" fill="white"/>
<rect x="849.156" y="244.101" width="124.358" height="69.4612" rx="10" fill="#4A79DF"/>
<path d="M870.907 284.863C870.995 287.974 873.192 291.841 879.556 291.841C884.548 291.841 888.503 289.38 888.503 284.652C888.503 280.802 885.954 279.097 882.263 278.13L878.114 277.023C875.812 276.443 874.739 275.177 874.739 273.472C874.739 270.906 876.901 269.482 879.872 269.482C883.229 269.482 884.987 271.292 885.198 273.595H888.239C888.134 268.937 884.021 266.775 879.942 266.775C875.636 266.775 871.628 269.183 871.628 273.683C871.628 277.427 874.388 279.238 877.235 279.976L881.454 281.083C884.126 281.769 885.374 282.894 885.374 284.88C885.374 287.499 883.229 289.116 879.89 289.116C876.198 289.116 874.212 287.183 873.983 284.863H870.907ZM894.497 272.857H892.001V275.388H894.479V286.163C894.479 289.802 895.376 291.49 899.753 291.49C900.386 291.49 901.019 291.419 901.282 291.366V288.941C901.036 288.976 900.808 288.976 900.509 288.976C898.241 288.976 897.503 288.413 897.503 286.198V275.388H901.159V272.857H897.503V268.251H894.497V272.857ZM915.749 289.029H915.837V291.331H918.737V278.587C918.737 274.702 915.872 272.558 911.935 272.558C907.47 272.558 905.272 274.913 905.079 278.148H907.927C908.103 276.302 909.456 275.089 911.829 275.089C914.325 275.089 915.731 276.425 915.731 278.851V280.732H910.862C906.626 280.749 904.376 282.788 904.376 286.023C904.376 289.415 906.837 291.63 910.405 291.63C913.13 291.63 914.817 290.523 915.749 289.029ZM911.214 289.116C909.28 289.116 907.47 288.097 907.47 285.917C907.47 284.247 908.56 283.052 911.091 283.052H915.731V285.197C915.731 287.499 913.798 289.116 911.214 289.116ZM925.083 272.857H922.587V275.388H925.065V286.163C925.065 289.802 925.962 291.49 930.339 291.49C930.972 291.49 931.604 291.419 931.868 291.366V288.941C931.622 288.976 931.394 288.976 931.095 288.976C928.827 288.976 928.089 288.413 928.089 286.198V275.388H931.745V272.857H928.089V268.251H925.083V272.857ZM943.03 291.63C947.108 291.63 949.552 289.363 950.255 286.304H947.249C946.651 288.027 945.245 289.099 943.101 289.099C940.095 289.099 938.302 286.691 938.302 283.175V282.841H950.501V281.118C950.501 276.038 947.724 272.558 942.89 272.558C938.038 272.558 935.278 276.038 935.278 280.907V282.982C935.278 288.238 938.214 291.63 943.03 291.63ZM938.302 280.398V280.345C938.302 277.427 940.095 275.089 942.907 275.089C945.667 275.089 947.478 277.409 947.478 280.345V280.398H938.302Z" fill="white"/>
<path d="M828.402 280.246C829.183 279.464 829.183 278.198 828.402 277.417L815.674 264.689C814.893 263.908 813.627 263.908 812.846 264.689C812.065 265.47 812.065 266.737 812.846 267.518L824.159 278.831L812.846 290.145C812.065 290.926 812.065 292.192 812.846 292.973C813.627 293.754 814.893 293.754 815.674 292.973L828.402 280.246ZM746.185 280.831H826.988V276.831H746.185V280.831Z" fill="black"/>
<path d="M578.557 280.245C579.338 279.464 579.338 278.198 578.557 277.417L565.829 264.689C565.048 263.908 563.782 263.908 563.001 264.689C562.219 265.47 562.219 266.736 563.001 267.517L574.314 278.831L563.001 290.145C562.219 290.926 562.219 292.192 563.001 292.973C563.782 293.754 565.048 293.754 565.829 292.973L578.557 280.245ZM496.34 280.831H577.143V276.831H496.34V280.831Z" fill="black"/>
<path d="M909.469 107.025L911.469 107.025L911.469 105.025L909.469 105.025L909.469 107.025ZM179.88 107.025L179.88 105.025L177.88 105.025L177.88 107.025L179.88 107.025ZM178.466 218.097C179.247 218.878 180.513 218.878 181.294 218.097L194.022 205.369C194.803 204.588 194.803 203.321 194.022 202.54C193.241 201.759 191.975 201.759 191.194 202.54L179.88 213.854L168.566 202.54C167.785 201.759 166.519 201.759 165.738 202.54C164.957 203.321 164.957 204.588 165.738 205.369L178.466 218.097ZM911.469 216.684L911.469 107.025L907.469 107.025L907.469 216.684L911.469 216.684ZM909.469 105.025L179.88 105.025L179.88 109.025L909.469 109.025L909.469 105.025ZM177.88 107.025L177.88 216.683L181.88 216.683L181.88 107.025L177.88 107.025Z" fill="black"/>
<path d="M478.374 83.396L484.139 67.3999H481.819L477.377 80.7593H477.307L472.842 67.3999H470.51L476.264 83.396H478.374ZM486.143 68.1147C486.143 68.8296 486.717 69.3921 487.432 69.3921C488.147 69.3921 488.733 68.8296 488.733 68.1147C488.733 67.3882 488.147 66.8257 487.432 66.8257C486.717 66.8257 486.143 67.3882 486.143 68.1147ZM486.424 83.396H488.44V71.0796H486.424V83.396ZM496.842 83.5952C499.561 83.5952 501.19 82.0835 501.659 80.0444H499.655C499.256 81.1929 498.319 81.9077 496.889 81.9077C494.885 81.9077 493.69 80.3022 493.69 77.9585V77.7358H501.823V76.5874C501.823 73.2007 499.971 70.8804 496.749 70.8804C493.514 70.8804 491.674 73.2007 491.674 76.4468V77.8296C491.674 81.3335 493.631 83.5952 496.842 83.5952ZM493.69 76.1069V76.0718C493.69 74.1265 494.885 72.5679 496.76 72.5679C498.6 72.5679 499.807 74.1147 499.807 76.0718V76.1069H493.69ZM519.834 71.0796H517.795L515.534 80.8179H515.44L512.651 71.0796H510.729L507.952 80.8179H507.858L505.596 71.0796H503.557L506.768 83.396H508.866L511.667 73.9038H511.713L514.526 83.396H516.612L519.834 71.0796ZM536.721 71.0796H534.694V78.7085C534.694 80.6655 533.452 81.7788 531.682 81.7788C530.065 81.7788 528.741 81.0405 528.741 78.7437V71.0796H526.713V79.3179C526.713 82.1421 528.53 83.5952 531.073 83.5952C533.042 83.5952 534.202 82.7515 534.635 81.7788H534.717V83.396H536.721V71.0796ZM545.885 83.5952C548.78 83.5952 550.795 81.4038 550.795 77.8062V76.6694C550.795 73.0249 548.745 70.8921 545.967 70.8921C544.315 70.8921 543.049 71.689 542.334 72.8491H542.276V71.0796H540.342V87.4858H542.358V81.7554H542.417C543.108 82.8452 544.315 83.5952 545.885 83.5952ZM545.686 81.8374C543.588 81.8374 542.323 80.1733 542.323 77.6538V76.728C542.323 74.2788 543.577 72.6265 545.627 72.6265C547.62 72.6265 548.768 74.1499 548.768 76.7397V77.6538C548.768 80.3608 547.526 81.8374 545.686 81.8374ZM558.331 70.8921C555.225 70.8921 553.409 73.3296 553.409 76.6812V77.7944C553.409 81.228 555.12 83.5835 558.331 83.5835C559.983 83.5835 561.272 82.8101 561.963 81.5444H562.01V83.396H563.944V66.5562H561.928V72.7905H561.87C561.249 71.7007 559.959 70.8921 558.331 70.8921ZM558.612 72.6499C560.686 72.6499 561.963 74.2671 561.963 76.7515V77.7358C561.963 80.3491 560.709 81.8257 558.647 81.8257C556.784 81.8257 555.436 80.4663 555.436 77.7241V76.7515C555.436 74.0093 556.784 72.6499 558.612 72.6499ZM574.444 81.8608H574.502V83.396H576.436V74.8999C576.436 72.3101 574.526 70.8804 571.901 70.8804C568.924 70.8804 567.459 72.4507 567.331 74.6069H569.229C569.346 73.3765 570.249 72.5679 571.831 72.5679C573.495 72.5679 574.432 73.4585 574.432 75.0757V76.3296H571.186C568.362 76.3413 566.862 77.7007 566.862 79.8569C566.862 82.1187 568.502 83.5952 570.881 83.5952C572.698 83.5952 573.823 82.8569 574.444 81.8608ZM571.42 81.9194C570.131 81.9194 568.924 81.2397 568.924 79.7866C568.924 78.6733 569.651 77.8765 571.338 77.8765H574.432V79.3062C574.432 80.8413 573.143 81.9194 571.42 81.9194ZM580.667 71.0796H579.002V72.7671H580.655V79.9507C580.655 82.3765 581.252 83.5015 584.17 83.5015C584.592 83.5015 585.014 83.4546 585.19 83.4194V81.8022C585.026 81.8257 584.874 81.8257 584.674 81.8257C583.163 81.8257 582.67 81.4507 582.67 79.9741V72.7671H585.108V71.0796H582.67V68.0093H580.667V71.0796ZM592.631 83.5952C595.35 83.5952 596.979 82.0835 597.448 80.0444H595.444C595.045 81.1929 594.108 81.9077 592.678 81.9077C590.674 81.9077 589.479 80.3022 589.479 77.9585V77.7358H597.612V76.5874C597.612 73.2007 595.76 70.8804 592.538 70.8804C589.303 70.8804 587.463 73.2007 587.463 76.4468V77.8296C587.463 81.3335 589.42 83.5952 592.631 83.5952ZM589.479 76.1069V76.0718C589.479 74.1265 590.674 72.5679 592.549 72.5679C594.389 72.5679 595.596 74.1147 595.596 76.0718V76.1069H589.479Z" fill="black"/>
<path d="M275.147 229.335H269.37V245.331H271.409V238.968H275.288L278.241 245.331H280.573L277.315 238.558C278.721 238.054 280.292 236.729 280.292 234.104C280.292 231.597 278.709 229.335 275.147 229.335ZM271.409 237.175V231.14H274.889C276.881 231.14 278.182 232.183 278.182 234.222C278.182 236.108 277.034 237.175 274.795 237.175H271.409ZM288.143 245.53C290.862 245.53 292.491 244.019 292.959 241.979H290.956C290.557 243.128 289.62 243.843 288.19 243.843C286.186 243.843 284.991 242.237 284.991 239.894V239.671H293.124V238.522C293.124 235.136 291.272 232.815 288.049 232.815C284.815 232.815 282.975 235.136 282.975 238.382V239.765C282.975 243.269 284.932 245.53 288.143 245.53ZM284.991 238.042V238.007C284.991 236.062 286.186 234.503 288.061 234.503C289.901 234.503 291.108 236.05 291.108 238.007V238.042H284.991ZM296.17 245.331H298.186V237.831C298.186 236.144 299.1 234.644 301.221 234.644C303.014 234.644 304.233 235.698 304.233 237.772V245.331H306.249V237.433C306.249 234.433 304.362 232.815 301.831 232.815C299.827 232.815 298.69 233.858 298.233 234.644H298.174V233.015H296.17V245.331ZM314.077 232.827C310.971 232.827 309.155 235.265 309.155 238.616V239.729C309.155 243.163 310.866 245.519 314.077 245.519C315.729 245.519 317.018 244.745 317.709 243.479H317.756V245.331H319.69V228.491H317.674V234.726H317.616C316.995 233.636 315.706 232.827 314.077 232.827ZM314.358 234.585C316.432 234.585 317.709 236.202 317.709 238.687V239.671C317.709 242.284 316.456 243.761 314.393 243.761C312.53 243.761 311.182 242.401 311.182 239.659V238.687C311.182 235.944 312.53 234.585 314.358 234.585ZM327.987 245.53C330.706 245.53 332.334 244.019 332.803 241.979H330.799C330.401 243.128 329.463 243.843 328.034 243.843C326.03 243.843 324.834 242.237 324.834 239.894V239.671H332.967V238.522C332.967 235.136 331.116 232.815 327.893 232.815C324.659 232.815 322.819 235.136 322.819 238.382V239.765C322.819 243.269 324.776 245.53 327.987 245.53ZM324.834 238.042V238.007C324.834 236.062 326.03 234.503 327.905 234.503C329.745 234.503 330.952 236.05 330.952 238.007V238.042H324.834ZM336.014 245.331H338.042V237.702C338.042 236.038 338.721 234.679 340.901 234.679C341.276 234.679 341.674 234.69 341.885 234.726V232.886C341.639 232.851 341.381 232.827 341.124 232.827C339.377 232.827 338.452 233.788 338.088 234.526H338.03V233.015H336.014V245.331Z" fill="black"/>
<path d="M500.715 212.335H498.688V223.011C498.688 226.315 500.95 228.671 504.747 228.671C508.555 228.671 510.817 226.315 510.817 223.011V212.335H508.79V222.741C508.79 225.226 507.208 226.831 504.747 226.831C502.297 226.831 500.715 225.237 500.715 222.741V212.335ZM513.852 219.542C513.852 221.769 515.739 222.472 518.036 222.94C519.758 223.28 521.129 223.55 521.129 224.944C521.129 225.987 520.274 226.878 518.387 226.878C516.747 226.878 515.786 226.14 515.61 225.015H513.641C513.641 227.229 515.528 228.53 518.235 228.53C521.129 228.53 523.11 227.147 523.11 224.698C523.11 222.296 521.165 221.675 518.856 221.265C517.45 221.007 515.821 220.714 515.821 219.331C515.821 218.112 516.875 217.468 518.34 217.468C520.262 217.468 520.848 218.569 520.918 219.507H522.793C522.793 217.468 521.305 215.815 518.411 215.815C516.043 215.815 513.852 216.94 513.852 219.542ZM530.657 228.53C533.375 228.53 535.004 227.019 535.473 224.979H533.469C533.071 226.128 532.133 226.843 530.704 226.843C528.7 226.843 527.504 225.237 527.504 222.894V222.671H535.637V221.522C535.637 218.136 533.786 215.815 530.563 215.815C527.329 215.815 525.489 218.136 525.489 221.382V222.765C525.489 226.269 527.446 228.53 530.657 228.53ZM527.504 221.042V221.007C527.504 219.062 528.7 217.503 530.575 217.503C532.415 217.503 533.622 219.05 533.622 221.007V221.042H527.504ZM538.684 228.331H540.711V220.702C540.711 219.038 541.391 217.679 543.571 217.679C543.946 217.679 544.344 217.69 544.555 217.726V215.886C544.309 215.851 544.051 215.827 543.793 215.827C542.047 215.827 541.122 216.788 540.758 217.526H540.7V216.015H538.684V228.331ZM505.625 255.796H505.684V257.331H507.618V248.835C507.618 246.245 505.708 244.815 503.083 244.815C500.106 244.815 498.641 246.386 498.512 248.542H500.411C500.528 247.312 501.43 246.503 503.012 246.503C504.676 246.503 505.614 247.394 505.614 249.011V250.265H502.368C499.543 250.276 498.043 251.636 498.043 253.792C498.043 256.054 499.684 257.53 502.063 257.53C503.879 257.53 505.004 256.792 505.625 255.796ZM502.602 255.854C501.313 255.854 500.106 255.175 500.106 253.722C500.106 252.608 500.833 251.812 502.52 251.812H505.614V253.241C505.614 254.776 504.325 255.854 502.602 255.854ZM510.606 251.729C510.606 255.011 512.446 257.53 515.715 257.53C518.54 257.53 520.086 256.054 520.497 253.944H518.516C518.293 254.929 517.391 255.749 515.856 255.749C513.887 255.749 512.622 254.155 512.622 251.741V250.593C512.622 248.108 513.805 246.597 515.844 246.597C517.18 246.597 518.153 247.546 518.422 248.589H520.403C520.297 246.702 518.563 244.815 515.715 244.815C512.504 244.815 510.606 247.194 510.606 250.511V251.729ZM524.411 245.015H522.747V246.702H524.399V253.886C524.399 256.312 524.997 257.437 527.915 257.437C528.336 257.437 528.758 257.39 528.934 257.354V255.737C528.77 255.761 528.618 255.761 528.418 255.761C526.907 255.761 526.415 255.386 526.415 253.909V246.702H528.852V245.015H526.415V241.944H524.411V245.015ZM531.793 242.05C531.793 242.765 532.368 243.327 533.083 243.327C533.797 243.327 534.383 242.765 534.383 242.05C534.383 241.323 533.797 240.761 533.083 240.761C532.368 240.761 531.793 241.323 531.793 242.05ZM532.075 257.331H534.09V245.015H532.075V257.331ZM542.622 244.815C539.176 244.815 537.325 247.312 537.325 250.604V251.706C537.325 255.046 539.165 257.53 542.622 257.53C546.079 257.53 547.895 255.046 547.895 251.706V250.604C547.895 247.312 546.067 244.815 542.622 244.815ZM542.622 246.538C544.731 246.538 545.879 248.155 545.879 250.675V251.636C545.879 254.155 544.731 255.784 542.622 255.784C540.5 255.784 539.34 254.144 539.34 251.636V250.675C539.34 248.155 540.5 246.538 542.622 246.538ZM551.012 257.331H553.028V249.831C553.028 248.144 553.942 246.644 556.063 246.644C557.856 246.644 559.075 247.698 559.075 249.772V257.331H561.09V249.433C561.09 246.433 559.204 244.815 556.672 244.815C554.668 244.815 553.532 245.858 553.075 246.644H553.016V245.015H551.012V257.331Z" fill="black"/>
<path d="M395.445 227.976C395.445 216.93 404.4 207.976 415.445 207.976H454.171C465.217 207.976 474.171 216.93 474.171 227.976V329.687C474.171 340.733 465.217 349.687 454.171 349.687H415.445C404.4 349.687 395.445 340.733 395.445 329.687V227.976Z" fill="url(#paint0_linear)"/>
<path d="M416.148 285.331L417.765 280.526H423.718L425.335 285.331H427.492L421.796 269.335H419.71L414.015 285.331H416.148ZM420.777 271.749L423.167 278.874H418.316L420.718 271.749H420.777ZM435.156 285.53C438.05 285.53 440.066 283.339 440.066 279.741V278.604C440.066 274.96 438.015 272.827 435.238 272.827C433.585 272.827 432.32 273.624 431.605 274.784H431.546V273.015H429.613V289.421H431.628V283.69H431.687C432.378 284.78 433.585 285.53 435.156 285.53ZM434.957 283.772C432.859 283.772 431.593 282.108 431.593 279.589V278.663C431.593 276.214 432.847 274.562 434.898 274.562C436.89 274.562 438.039 276.085 438.039 278.675V279.589C438.039 282.296 436.796 283.772 434.957 283.772ZM448.75 285.53C451.644 285.53 453.66 283.339 453.66 279.741V278.604C453.66 274.96 451.609 272.827 448.832 272.827C447.179 272.827 445.914 273.624 445.199 274.784H445.14V273.015H443.207V289.421H445.222V283.69H445.281C445.972 284.78 447.179 285.53 448.75 285.53ZM448.55 283.772C446.453 283.772 445.187 282.108 445.187 279.589V278.663C445.187 276.214 446.441 274.562 448.492 274.562C450.484 274.562 451.632 276.085 451.632 278.675V279.589C451.632 282.296 450.39 283.772 448.55 283.772Z" fill="black"/>
<path d="M739.11 218.019C739.169 220.093 740.634 222.671 744.876 222.671C748.204 222.671 750.841 221.03 750.841 217.878C750.841 215.312 749.142 214.175 746.681 213.53L743.915 212.792C742.38 212.405 741.665 211.562 741.665 210.425C741.665 208.714 743.106 207.765 745.087 207.765C747.325 207.765 748.497 208.972 748.638 210.507H750.665C750.595 207.401 747.853 205.96 745.134 205.96C742.263 205.96 739.591 207.565 739.591 210.565C739.591 213.062 741.431 214.269 743.329 214.761L746.142 215.499C747.923 215.956 748.755 216.706 748.755 218.03C748.755 219.776 747.325 220.854 745.099 220.854C742.638 220.854 741.313 219.565 741.161 218.019H739.11ZM754.837 210.015H753.173V211.702H754.825V218.886C754.825 221.312 755.423 222.437 758.341 222.437C758.763 222.437 759.185 222.39 759.36 222.354V220.737C759.196 220.761 759.044 220.761 758.845 220.761C757.333 220.761 756.841 220.386 756.841 218.909V211.702H759.278V210.015H756.841V206.944H754.837V210.015ZM769.005 220.796H769.063V222.331H770.997V213.835C770.997 211.245 769.087 209.815 766.462 209.815C763.485 209.815 762.021 211.386 761.892 213.542H763.79C763.907 212.312 764.81 211.503 766.392 211.503C768.056 211.503 768.993 212.394 768.993 214.011V215.265H765.747C762.923 215.276 761.423 216.636 761.423 218.792C761.423 221.054 763.063 222.53 765.442 222.53C767.259 222.53 768.384 221.792 769.005 220.796ZM765.981 220.854C764.692 220.854 763.485 220.175 763.485 218.722C763.485 217.608 764.212 216.812 765.899 216.812H768.993V218.241C768.993 219.776 767.704 220.854 765.981 220.854ZM775.228 210.015H773.563V211.702H775.216V218.886C775.216 221.312 775.813 222.437 778.731 222.437C779.153 222.437 779.575 222.39 779.751 222.354V220.737C779.587 220.761 779.435 220.761 779.235 220.761C777.724 220.761 777.231 220.386 777.231 218.909V211.702H779.669V210.015H777.231V206.944H775.228V210.015ZM787.192 222.53C789.911 222.53 791.54 221.019 792.009 218.979H790.005C789.606 220.128 788.669 220.843 787.239 220.843C785.235 220.843 784.04 219.237 784.04 216.894V216.671H792.173V215.522C792.173 212.136 790.321 209.815 787.099 209.815C783.864 209.815 782.024 212.136 782.024 215.382V216.765C782.024 220.269 783.981 222.53 787.192 222.53ZM784.04 215.042V215.007C784.04 213.062 785.235 211.503 787.11 211.503C788.95 211.503 790.157 213.05 790.157 215.007V215.042H784.04ZM802.591 222.331H804.759L809.177 210.015H807.138L803.692 219.905H803.622L800.411 210.015H798.278L802.591 222.331ZM817.872 220.796H817.931V222.331H819.864V213.835C819.864 211.245 817.954 209.815 815.329 209.815C812.353 209.815 810.888 211.386 810.759 213.542H812.657C812.774 212.312 813.677 211.503 815.259 211.503C816.923 211.503 817.86 212.394 817.86 214.011V215.265H814.614C811.79 215.276 810.29 216.636 810.29 218.792C810.29 221.054 811.931 222.53 814.31 222.53C816.126 222.53 817.251 221.792 817.872 220.796ZM814.849 220.854C813.56 220.854 812.353 220.175 812.353 218.722C812.353 217.608 813.079 216.812 814.767 216.812H817.86V218.241C817.86 219.776 816.571 220.854 814.849 220.854ZM823.345 222.331H825.372V214.702C825.372 213.038 826.052 211.679 828.231 211.679C828.606 211.679 829.005 211.69 829.216 211.726V209.886C828.97 209.851 828.712 209.827 828.454 209.827C826.708 209.827 825.782 210.788 825.419 211.526H825.36V210.015H823.345V222.331ZM831.759 207.05C831.759 207.765 832.333 208.327 833.048 208.327C833.763 208.327 834.349 207.765 834.349 207.05C834.349 206.323 833.763 205.761 833.048 205.761C832.333 205.761 831.759 206.323 831.759 207.05ZM832.04 222.331H834.056V210.015H832.04V222.331ZM844.661 220.796H844.72V222.331H846.653V213.835C846.653 211.245 844.743 209.815 842.118 209.815C839.142 209.815 837.677 211.386 837.548 213.542H839.446C839.563 212.312 840.466 211.503 842.048 211.503C843.712 211.503 844.649 212.394 844.649 214.011V215.265H841.403C838.579 215.276 837.079 216.636 837.079 218.792C837.079 221.054 838.72 222.53 841.099 222.53C842.915 222.53 844.04 221.792 844.661 220.796ZM841.638 220.854C840.349 220.854 839.142 220.175 839.142 218.722C839.142 217.608 839.868 216.812 841.556 216.812H844.649V218.241C844.649 219.776 843.36 220.854 841.638 220.854ZM855.841 222.53C858.806 222.53 860.751 220.327 860.751 216.765V215.569C860.751 211.866 858.735 209.827 855.864 209.827C854.306 209.827 852.876 210.636 852.243 211.702H852.185V205.491H850.169V222.331H852.103V220.479H852.161C852.888 221.745 854.083 222.53 855.841 222.53ZM855.595 220.772C853.438 220.772 852.161 219.308 852.161 216.636V215.687C852.161 213.015 853.45 211.585 855.595 211.585C857.435 211.585 858.724 213.026 858.724 215.687V216.659C858.724 219.296 857.446 220.772 855.595 220.772ZM863.927 222.331H865.931V205.491H863.927V222.331ZM874.286 222.53C877.005 222.53 878.634 221.019 879.103 218.979H877.099C876.7 220.128 875.763 220.843 874.333 220.843C872.329 220.843 871.134 219.237 871.134 216.894V216.671H879.267V215.522C879.267 212.136 877.415 209.815 874.192 209.815C870.958 209.815 869.118 212.136 869.118 215.382V216.765C869.118 220.269 871.075 222.53 874.286 222.53ZM871.134 215.042V215.007C871.134 213.062 872.329 211.503 874.204 211.503C876.044 211.503 877.251 213.05 877.251 215.007V215.042H871.134ZM739.696 245.729C739.696 249.011 741.536 251.53 744.806 251.53C747.63 251.53 749.177 250.054 749.587 247.944H747.606C747.384 248.929 746.481 249.749 744.946 249.749C742.978 249.749 741.712 248.155 741.712 245.741V244.593C741.712 242.108 742.896 240.597 744.935 240.597C746.271 240.597 747.243 241.546 747.513 242.589H749.493C749.388 240.702 747.653 238.815 744.806 238.815C741.595 238.815 739.696 241.194 739.696 244.511V245.729ZM752.435 251.331H754.45V243.831C754.45 242.144 755.364 240.644 757.485 240.644C759.29 240.644 760.497 241.698 760.497 243.772V251.331H762.513V243.433C762.513 240.433 760.638 238.815 758.095 238.815C756.103 238.815 754.966 239.858 754.509 240.644H754.45V234.491H752.435V251.331ZM772.802 249.796H772.86V251.331H774.794V242.835C774.794 240.245 772.884 238.815 770.259 238.815C767.282 238.815 765.817 240.386 765.688 242.542H767.587C767.704 241.312 768.606 240.503 770.188 240.503C771.853 240.503 772.79 241.394 772.79 243.011V244.265H769.544C766.72 244.276 765.22 245.636 765.22 247.792C765.22 250.054 766.86 251.53 769.239 251.53C771.056 251.53 772.181 250.792 772.802 249.796ZM769.778 249.854C768.489 249.854 767.282 249.175 767.282 247.722C767.282 246.608 768.009 245.812 769.696 245.812H772.79V247.241C772.79 248.776 771.501 249.854 769.778 249.854ZM778.274 251.331H780.29V243.831C780.29 242.144 781.204 240.644 783.325 240.644C785.118 240.644 786.337 241.698 786.337 243.772V251.331H788.353V243.433C788.353 240.433 786.466 238.815 783.935 238.815C781.931 238.815 780.794 239.858 780.337 240.644H780.278V239.015H778.274V251.331ZM796.556 254.155C794.868 254.155 793.825 253.241 793.603 252.245H791.54C791.821 254.296 793.415 255.843 796.544 255.843C799.333 255.843 801.782 254.261 801.782 251.108V239.015H799.837V240.749H799.778C799.204 239.706 797.868 238.827 796.192 238.827C793.298 238.827 791.271 240.866 791.271 244.487V245.507C791.271 249.198 793.321 251.214 796.192 251.214C797.868 251.214 799.216 250.335 799.708 249.269H799.767V251.085C799.767 253.019 798.501 254.155 796.556 254.155ZM796.579 240.562C798.524 240.562 799.767 242.144 799.767 244.64V245.401C799.767 247.944 798.595 249.491 796.579 249.491C794.505 249.491 793.286 247.956 793.286 245.401V244.64C793.286 242.038 794.505 240.562 796.579 240.562ZM810.091 251.53C812.81 251.53 814.438 250.019 814.907 247.979H812.903C812.505 249.128 811.567 249.843 810.138 249.843C808.134 249.843 806.938 248.237 806.938 245.894V245.671H815.071V244.522C815.071 241.136 813.22 238.815 809.997 238.815C806.763 238.815 804.923 241.136 804.923 244.382V245.765C804.923 249.269 806.88 251.53 810.091 251.53ZM806.938 244.042V244.007C806.938 242.062 808.134 240.503 810.009 240.503C811.849 240.503 813.056 242.05 813.056 244.007V244.042H806.938Z" fill="black"/>
<defs>
<linearGradient id="paint0_linear" x1="503.165" y1="230.123" x2="464.289" y2="339.21" gradientUnits="userSpaceOnUse">
<stop offset="0.0303053" stop-color="#DCD2F8"/>
<stop offset="0.421875" stop-color="#FFE4E9"/>
<stop offset="1" stop-color="white"/>
</linearGradient>
</defs>
</svg>
