<svg width="1024" height="1024" viewBox="0 0 1024 1024" fill="none" xmlns="http://www.w3.org/2000/svg">
<g clip-path="url(#clip0)">
<rect width="1024" height="1024" rx="200" fill="white"/>
<rect width="1024" height="1024" fill="#F18D8D"/>
<rect width="1024" height="1024" fill="url(#paint0_linear)"/>
<path d="M0.474119 -9.80613e-06H1024.47V1024H0.474119V-9.80613e-06Z" fill="url(#paint1_linear)"/>
<g filter="url(#filter0_f)">
<circle cx="512" cy="512" r="450" fill="white" fill-opacity="0.35"/>
</g>
<g filter="url(#filter1_ii)">
<circle cx="512" cy="512" r="325" fill="url(#paint2_linear)"/>
</g>
<g filter="url(#filter2_i)">
<path d="M386.211 527.617L400.062 516.292C438.187 490.037 492.151 490.248 532.331 513.306C568.553 534.092 613.462 533.182 648.793 510.945L652.317 508.726C686.728 487.068 730.671 491.812 765.187 513.306C802.53 536.559 850.55 534.376 885.58 507.833L894.395 501.357" stroke="white" stroke-width="55" stroke-linecap="round" stroke-linejoin="round"/>
</g>
<g filter="url(#filter3_i)">
<path d="M144.01 666.121L157.86 654.795C195.985 628.541 249.949 628.752 290.13 651.81C326.352 672.596 371.26 671.686 406.591 649.449L410.116 647.23C444.527 625.572 488.469 630.316 522.986 651.81C560.328 675.063 608.349 672.88 643.379 646.337L652.194 639.861" stroke="white" stroke-width="55" stroke-linecap="round" stroke-linejoin="round"/>
</g>
<g filter="url(#filter4_i)">
<path d="M144.01 382.113L157.86 370.788C195.985 344.534 249.949 344.744 290.13 367.802C326.352 388.589 371.26 387.678 406.591 365.441L410.116 363.222C444.527 341.564 488.469 346.309 522.986 367.802C560.328 391.056 608.349 388.873 643.379 362.329L652.194 355.853" stroke="white" stroke-width="55" stroke-linecap="round" stroke-linejoin="round"/>
</g>
</g>
<defs>
<filter id="filter0_f" x="-58" y="-58" width="1140" height="1140" filterUnits="userSpaceOnUse" color-interpolation-filters="sRGB">
<feFlood flood-opacity="0" result="BackgroundImageFix"/>
<feBlend mode="normal" in="SourceGraphic" in2="BackgroundImageFix" result="shape"/>
<feGaussianBlur stdDeviation="60" result="effect1_foregroundBlur"/>
</filter>
<filter id="filter1_ii" x="187" y="157" width="650" height="710" filterUnits="userSpaceOnUse" color-interpolation-filters="sRGB">
<feFlood flood-opacity="0" result="BackgroundImageFix"/>
<feBlend mode="normal" in="SourceGraphic" in2="BackgroundImageFix" result="shape"/>
<feColorMatrix in="SourceAlpha" type="matrix" values="0 0 0 0 0 0 0 0 0 0 0 0 0 0 0 0 0 0 127 0" result="hardAlpha"/>
<feOffset dy="-30"/>
<feGaussianBlur stdDeviation="25"/>
<feComposite in2="hardAlpha" operator="arithmetic" k2="-1" k3="1"/>
<feColorMatrix type="matrix" values="0 0 0 0 0 0 0 0 0 0 0 0 0 0 0 0 0 0 0.1 0"/>
<feBlend mode="normal" in2="shape" result="effect1_innerShadow"/>
<feColorMatrix in="SourceAlpha" type="matrix" values="0 0 0 0 0 0 0 0 0 0 0 0 0 0 0 0 0 0 127 0" result="hardAlpha"/>
<feOffset dy="30"/>
<feGaussianBlur stdDeviation="17"/>
<feComposite in2="hardAlpha" operator="arithmetic" k2="-1" k3="1"/>
<feColorMatrix type="matrix" values="0 0 0 0 1 0 0 0 0 1 0 0 0 0 1 0 0 0 0.6 0"/>
<feBlend mode="normal" in2="effect1_innerShadow" result="effect2_innerShadow"/>
</filter>
<filter id="filter2_i" x="358.71" y="451.134" width="563.187" height="105.719" filterUnits="userSpaceOnUse" color-interpolation-filters="sRGB">
<feFlood flood-opacity="0" result="BackgroundImageFix"/>
<feBlend mode="normal" in="SourceGraphic" in2="BackgroundImageFix" result="shape"/>
<feColorMatrix in="SourceAlpha" type="matrix" values="0 0 0 0 0 0 0 0 0 0 0 0 0 0 0 0 0 0 127 0" result="hardAlpha"/>
<feOffset dy="-25"/>
<feGaussianBlur stdDeviation="8"/>
<feComposite in2="hardAlpha" operator="arithmetic" k2="-1" k3="1"/>
<feColorMatrix type="matrix" values="0 0 0 0 0.482353 0 0 0 0 0.666667 0 0 0 0 0.988235 0 0 0 0.25 0"/>
<feBlend mode="normal" in2="shape" result="effect1_innerShadow"/>
</filter>
<filter id="filter3_i" x="116.509" y="589.638" width="563.187" height="105.719" filterUnits="userSpaceOnUse" color-interpolation-filters="sRGB">
<feFlood flood-opacity="0" result="BackgroundImageFix"/>
<feBlend mode="normal" in="SourceGraphic" in2="BackgroundImageFix" result="shape"/>
<feColorMatrix in="SourceAlpha" type="matrix" values="0 0 0 0 0 0 0 0 0 0 0 0 0 0 0 0 0 0 127 0" result="hardAlpha"/>
<feOffset dy="-25"/>
<feGaussianBlur stdDeviation="8"/>
<feComposite in2="hardAlpha" operator="arithmetic" k2="-1" k3="1"/>
<feColorMatrix type="matrix" values="0 0 0 0 0.482353 0 0 0 0 0.666667 0 0 0 0 0.988235 0 0 0 0.25 0"/>
<feBlend mode="normal" in2="shape" result="effect1_innerShadow"/>
</filter>
<filter id="filter4_i" x="116.509" y="305.63" width="563.187" height="105.719" filterUnits="userSpaceOnUse" color-interpolation-filters="sRGB">
<feFlood flood-opacity="0" result="BackgroundImageFix"/>
<feBlend mode="normal" in="SourceGraphic" in2="BackgroundImageFix" result="shape"/>
<feColorMatrix in="SourceAlpha" type="matrix" values="0 0 0 0 0 0 0 0 0 0 0 0 0 0 0 0 0 0 127 0" result="hardAlpha"/>
<feOffset dy="-25"/>
<feGaussianBlur stdDeviation="8"/>
<feComposite in2="hardAlpha" operator="arithmetic" k2="-1" k3="1"/>
<feColorMatrix type="matrix" values="0 0 0 0 0.482353 0 0 0 0 0.666667 0 0 0 0 0.988235 0 0 0 0.25 0"/>
<feBlend mode="normal" in2="shape" result="effect1_innerShadow"/>
</filter>
<linearGradient id="paint0_linear" x1="512" y1="0" x2="512" y2="1024" gradientUnits="userSpaceOnUse">
<stop stop-color="#E8EBEE"/>
<stop offset="1" stop-color="#CED3DB"/>
</linearGradient>
<linearGradient id="paint1_linear" x1="512.474" y1="0" x2="512.474" y2="1138.21" gradientUnits="userSpaceOnUse">
<stop offset="0.9999" stop-color="#A3C8FF"/>
<stop offset="1" stop-color="#DAE9FF"/>
</linearGradient>
<linearGradient id="paint2_linear" x1="512" y1="837" x2="512" y2="52.0266" gradientUnits="userSpaceOnUse">
<stop stop-color="#E19062"/>
<stop offset="1" stop-color="#FFEF5C"/>
</linearGradient>
<clipPath id="clip0">
<rect width="1024" height="1024" rx="200" fill="white"/>
</clipPath>
</defs>
</svg>
